<svg width="21" height="23" viewBox="0 0 21 23" fill="none" xmlns="http://www.w3.org/2000/svg">
<path d="M20.4583 18.0938C19.7887 17.4968 19.2024 16.8124 18.7153 16.059C18.1835 15.0191 17.8648 13.8835 17.7778 12.7188V9.2882C17.7824 7.45876 17.1188 5.69061 15.9116 4.31595C14.7045 2.9413 13.0369 2.05476 11.2222 1.82292V0.927083C11.2222 0.681206 11.1245 0.445398 10.9507 0.271537C10.7768 0.0976747 10.541 0 10.2951 0C10.0493 0 9.81345 0.0976747 9.63959 0.271537C9.46573 0.445398 9.36806 0.681206 9.36806 0.927083V1.83681C7.56962 2.08537 5.9222 2.97726 4.73092 4.3473C3.53964 5.71733 2.88523 7.47267 2.88889 9.2882V12.7188C2.80191 13.8835 2.48318 15.0191 1.95139 16.059C1.47283 16.8107 0.895969 17.495 0.236111 18.0938C0.162036 18.1588 0.102668 18.2389 0.0619565 18.3287C0.0212455 18.4185 0.000124859 18.516 0 18.6146V19.559C0 19.7432 0.0731644 19.9198 0.203398 20.0501C0.333632 20.1803 0.510267 20.2535 0.694445 20.2535H20C20.1842 20.2535 20.3608 20.1803 20.491 20.0501C20.6213 19.9198 20.6944 19.7432 20.6944 19.559V18.6146C20.6943 18.516 20.6732 18.4185 20.6325 18.3287C20.5918 18.2389 20.5324 18.1588 20.4583 18.0938ZM1.44444 18.8646C2.09056 18.2404 2.65944 17.541 3.13889 16.7813C3.80876 15.5253 4.19961 14.1396 4.28472 12.7188V9.2882C4.25718 8.47433 4.3937 7.66325 4.68614 6.90324C4.97859 6.14324 5.42098 5.44985 5.98698 4.86438C6.55297 4.2789 7.231 3.81331 7.98068 3.49533C8.73036 3.17735 9.53636 3.01348 10.3507 3.01348C11.165 3.01348 11.971 3.17735 12.7207 3.49533C13.4704 3.81331 14.1484 4.2789 14.7144 4.86438C15.2804 5.44985 15.7228 6.14324 16.0152 6.90324C16.3077 7.66325 16.4442 8.47433 16.4167 9.2882V12.7188C16.5018 14.1396 16.8926 15.5253 17.5625 16.7813C18.0419 17.541 18.6108 18.2404 19.2569 18.8646H1.44444Z" fill="#CACACA"/>
<path d="M10.3819 22.5731C10.8193 22.563 11.2391 22.3985 11.567 22.1088C11.8949 21.819 12.1097 21.4226 12.1735 20.9897H8.52075C8.58636 21.4344 8.81125 21.8401 9.1536 22.1313C9.49595 22.4226 9.93243 22.5796 10.3819 22.5731Z" fill="#CACACA"/>
</svg>
