<svg width="17" height="17" viewBox="0 0 17 17" fill="none" xmlns="http://www.w3.org/2000/svg">
<path d="M9.9375 6.0625H7.78125V3.90625H6.34375V6.0625H4.1875V7.5H6.34375V9.65625H7.78125V7.5H9.9375V6.0625Z" fill="black" fill-opacity="0.5"/>
<path fill-rule="evenodd" clip-rule="evenodd" d="M0.59375 6.78125C0.59375 10.3538 3.48991 13.25 7.0625 13.25C10.6333 13.2456 13.5269 10.352 13.5312 6.78125C13.5312 3.20866 10.6351 0.3125 7.0625 0.3125C3.48991 0.3125 0.59375 3.20866 0.59375 6.78125ZM2.03125 6.78125C2.03125 4.00257 4.28382 1.75 7.0625 1.75C9.83987 1.75317 12.0906 4.00388 12.0938 6.78125C12.0938 9.55993 9.84118 11.8125 7.0625 11.8125C4.28382 11.8125 2.03125 9.55993 2.03125 6.78125Z" fill="black" fill-opacity="0.5"/>
<path d="M16.1956 14.8979L13.1366 11.8389C12.8295 12.2078 12.4893 12.548 12.1203 12.8552L15.1793 15.9142C15.4613 16.1866 15.9096 16.1827 16.1869 15.9054C16.4641 15.6282 16.468 15.1799 16.1956 14.8979Z" fill="black" fill-opacity="0.5"/>
</svg>
