<svg width="87" height="87" viewBox="0 0 87 87" fill="none" xmlns="http://www.w3.org/2000/svg">
<path d="M43.5 87C67.5244 87 87 67.5244 87 43.5C87 19.4756 67.5244 0 43.5 0C19.4756 0 0 19.4756 0 43.5C0 67.5244 19.4756 87 43.5 87Z" fill="#51A888"/>
<path d="M31.7852 67.7213C36.0419 74.4055 46.508 74.8101 51.1165 70.8699C51.0462 70.8171 50.9582 70.7996 50.9055 70.7468C50.7823 70.6413 50.6416 70.4829 50.5185 70.2895C50.0963 69.6914 50.325 69.3044 50.5712 69.0933C50.7296 68.9702 50.9055 68.8823 51.0989 68.8471C52.2599 68.6184 54.6697 68.2666 55.0743 68.9174C55.5844 69.709 54.7928 71.6263 54.3707 72.7696C54.1772 73.3149 53.8078 73.6843 53.2449 73.4908C52.9283 73.3853 52.7172 72.9631 52.4006 72.6113C51.4507 73.0159 51.0462 73.4205 49.938 73.913C45.5405 75.9182 41.5124 75.3202 37.326 73.2973C35.6198 72.4706 34.0367 71.2745 32.9285 69.621C32.5063 69.0054 32.1545 68.3546 31.7852 67.7213Z" fill="white"/>
<path d="M28.4783 22.5327C20.5628 22.4799 14.5294 31.0287 15.3385 37.0444C15.4265 37.0092 15.4793 36.9565 15.5672 36.9389C15.7255 36.9037 15.9366 36.8685 16.1653 36.8509C16.9041 36.8158 17.0975 37.2203 17.1503 37.5545C17.1855 37.748 17.1503 37.9415 17.0624 38.135C16.605 39.2432 15.6024 41.4419 14.8284 41.4419C13.8962 41.4419 12.7 39.7357 11.9789 38.7682C11.6271 38.3109 11.5215 37.8008 11.9964 37.4314C12.2603 37.2203 12.7176 37.2907 13.1926 37.2027C13.3685 36.1825 13.2453 35.6372 13.4388 34.4235C14.16 29.639 16.8337 26.596 20.809 24.1686C22.4273 23.1835 24.3094 22.4975 26.2971 22.4799C27.0007 22.4447 27.7395 22.5151 28.4783 22.5327Z" fill="white"/>
<path d="M70.2368 41.6003C73.0512 34.1949 67.1234 25.5583 61.2132 24.2214C61.2307 24.3094 61.2483 24.3973 61.2483 24.4677C61.2307 24.626 61.1956 24.8371 61.1252 25.0482C60.8965 25.7518 60.4568 25.7869 60.1226 25.7166C59.9291 25.6814 59.7532 25.5759 59.6125 25.4351C58.733 24.626 57.0267 22.9198 57.2906 22.1986C57.6072 21.3191 59.6301 20.809 60.791 20.4572C61.3363 20.2989 61.864 20.3692 62.0399 20.9321C62.1454 21.2487 61.9343 21.6709 61.8288 22.1282C62.7259 22.6559 63.2888 22.7263 64.3442 23.3243C68.5834 25.6638 70.5007 29.2346 71.3977 33.808C71.7671 35.6725 71.7496 37.6602 71.0811 39.5423C70.8349 40.2635 70.5183 40.9143 70.2368 41.6003Z" fill="white"/>
<path d="M49.3221 19.0147C49.3221 19.1203 49.3221 19.2434 49.3221 19.3489C49.3221 19.4545 49.3045 19.56 49.3045 19.6831C49.2869 19.8415 49.2694 19.9998 49.2342 20.1581C49.199 20.334 49.1638 20.5099 49.1286 20.6682C49.0407 20.9848 48.9351 21.3014 48.7944 21.6005C48.7768 21.6356 48.7593 21.6884 48.7417 21.7236C48.6713 21.8819 48.6009 22.0226 48.513 22.1633C48.4954 22.1985 48.4602 22.2513 48.4426 22.2865C48.1436 22.7966 47.7742 23.2539 47.3521 23.6585C47.3169 23.6937 47.2641 23.7288 47.2289 23.764C47.1586 23.8344 47.0882 23.8871 47.0178 23.9575C46.9651 23.9927 46.9123 24.0455 46.8771 24.0806C46.7716 24.1686 46.6485 24.2565 46.5429 24.3269C46.5253 24.3445 46.5077 24.3445 46.4901 24.3621C46.3318 24.4676 46.1735 24.5556 46.0152 24.6435C45.8745 24.7315 45.7162 24.8018 45.5755 24.8722C45.5579 24.8722 45.5579 24.8722 45.5403 24.8898C45.2413 25.0305 44.9246 25.136 44.608 25.224C44.5377 25.2416 44.4673 25.2592 44.3969 25.2768C44.0803 25.3471 43.7461 25.3999 43.3943 25.4351C43.2888 25.4351 43.1832 25.4527 43.0601 25.4527C43.0073 25.4527 42.9546 25.4527 42.9018 25.4527C42.849 25.4527 42.7962 25.4527 42.7435 25.4527C42.6379 25.4527 42.5148 25.4527 42.4093 25.4351C42.0751 25.4175 41.7408 25.3647 41.4066 25.2768C41.3363 25.2592 41.2659 25.2416 41.1956 25.224C40.8789 25.136 40.5623 25.0305 40.2633 24.8898C40.2457 24.8898 40.2457 24.8898 40.2281 24.8722C40.0874 24.8018 39.9643 24.7491 39.8235 24.6787C39.6476 24.5907 39.4717 24.4852 39.3134 24.3621C39.2958 24.3445 39.2783 24.3445 39.2607 24.3269C39.1375 24.2565 39.032 24.1686 38.9265 24.0806C38.8737 24.0455 38.8209 24.0103 38.7857 23.9575C38.7154 23.9047 38.645 23.8344 38.5747 23.764C38.5043 23.6937 38.4163 23.6233 38.346 23.5529C37.959 23.166 37.6248 22.7438 37.3609 22.2865C37.3434 22.2513 37.3082 22.1985 37.2906 22.1633C37.2026 22.0226 37.1323 21.8643 37.0619 21.7236C37.0443 21.6884 37.0267 21.6356 37.0091 21.6005C36.8684 21.3014 36.7629 20.9848 36.6749 20.6682C36.6222 20.4923 36.587 20.334 36.5694 20.1581C36.5342 19.9998 36.5166 19.8415 36.499 19.6831C36.4814 19.5776 36.4814 19.4721 36.4814 19.3489C36.4814 19.2434 36.4814 19.1203 36.4814 19.0147C36.4814 18.9092 36.499 18.7861 36.5166 18.6805C36.5166 18.6102 36.5518 18.5398 36.5518 18.487C36.5518 18.4518 36.5342 18.3991 36.5518 18.3639C36.5518 18.3287 36.5518 18.2759 36.5518 18.2408C36.5694 18.1176 36.587 17.9945 36.6046 17.8714C36.6398 17.6955 36.6749 17.5196 36.7101 17.3613C36.7981 17.0446 36.9036 16.728 37.0443 16.429C37.0619 16.4114 37.0619 16.3938 37.0795 16.3586C37.0971 16.341 37.0971 16.3235 37.1147 16.2883C37.185 16.13 37.2554 15.9892 37.3434 15.8485C37.3609 15.8133 37.3961 15.7606 37.4137 15.7254C37.7127 15.2153 38.0821 14.758 38.5043 14.3534C38.5395 14.3182 38.5922 14.283 38.6274 14.2478C38.6978 14.1775 38.7681 14.1247 38.8385 14.0544C38.8913 14.0192 38.944 13.9664 38.9792 13.9312C39.0848 13.8433 39.2079 13.7553 39.3134 13.685C39.331 13.6674 39.3486 13.6674 39.3662 13.6498C39.6476 13.4563 39.9643 13.2804 40.2809 13.1397C40.2985 13.1397 40.2985 13.1397 40.3161 13.1221C40.6151 12.9814 40.9317 12.8758 41.2483 12.7879C41.3187 12.7703 41.389 12.7527 41.4594 12.7351C41.776 12.6647 42.1102 12.612 42.462 12.5768C42.5676 12.5768 42.6731 12.5592 42.7962 12.5592C42.849 12.5592 42.9018 12.5592 42.9546 12.5592C43.0073 12.5592 43.0601 12.5592 43.1129 12.5592C43.2184 12.5592 43.3415 12.5592 43.4471 12.5768C43.7813 12.5944 44.1155 12.6472 44.4497 12.7351C44.5201 12.7527 44.5904 12.7703 44.6608 12.7879C44.9774 12.8758 45.294 12.9814 45.5931 13.1221C45.6106 13.1221 45.6106 13.1221 45.6282 13.1397C45.9449 13.2804 46.2615 13.4563 46.5429 13.6498C46.5605 13.6674 46.5781 13.6674 46.5957 13.685C46.7188 13.7553 46.8244 13.8433 46.9299 13.9312C46.9827 13.9664 47.0354 14.0016 47.0706 14.0544C47.141 14.1071 47.2113 14.1775 47.2817 14.2478C47.3169 14.283 47.3696 14.3182 47.4048 14.3534C47.827 14.758 48.1964 15.2153 48.4954 15.7254C48.513 15.7606 48.5482 15.8133 48.5658 15.8485C48.6537 15.9892 48.7241 16.1476 48.7944 16.2883C48.812 16.3235 48.8296 16.3762 48.8472 16.4114C48.9879 16.7104 49.0935 17.0271 49.1814 17.3437C49.2342 17.5196 49.2694 17.6779 49.287 17.8538C49.3221 18.0121 49.3397 18.1704 49.3573 18.3287C49.3573 18.3815 49.3749 18.4343 49.3749 18.487C49.3749 18.5398 49.3749 18.6102 49.3925 18.6629C49.3221 18.8036 49.3221 18.9092 49.3221 19.0147Z" fill="white"/>
<path d="M36.4288 18.487C36.4464 18.487 36.4464 18.487 36.4288 18.487V18.487ZM36.3232 18.4342C36.376 18.4518 36.3936 18.4694 36.4464 18.487C36.4464 18.487 36.4288 18.487 36.4288 18.4694C36.376 18.4518 36.3408 18.4342 36.3232 18.4342Z" fill="white"/>
<path d="M36.3232 18.4342C36.3584 18.4518 36.3936 18.4694 36.4112 18.487C36.3936 18.4694 36.3584 18.4518 36.3232 18.4342Z" fill="white"/>
<path d="M53.5438 31.6619V38.3461C53.5438 38.4869 53.5438 38.5044 53.4206 38.5044H32.3302C32.2071 38.5044 32.084 38.4869 32.084 38.3461V31.6619C32.084 31.5564 32.084 31.4509 32.084 31.3453C32.1543 29.7622 32.7876 28.3023 33.7902 27.2293C33.8254 27.1941 33.843 27.1589 33.8782 27.1413C34.3707 26.6312 34.9512 26.1915 35.602 25.8748C35.6372 25.8573 35.6723 25.8397 35.7251 25.8221C35.901 25.7341 36.0769 25.6638 36.2704 25.5934C36.3056 25.5758 36.3583 25.5582 36.3935 25.5582C36.5518 25.5055 36.7277 25.4527 36.9036 25.4175C37.1147 25.611 37.3258 25.8045 37.5545 25.9804C38.1349 26.4377 38.7682 26.8071 39.4366 27.1061C39.5597 27.1589 39.6829 27.2117 39.8236 27.2645C40.3161 27.4579 40.8262 27.5987 41.3363 27.6866C41.8464 27.7746 42.3565 27.8273 42.8842 27.8273C43.4823 27.8273 44.0628 27.7746 44.6432 27.6514C44.7136 27.6338 44.784 27.6162 44.8543 27.6162C44.9599 27.6162 45.0654 27.6162 45.1709 27.6162C45.4524 27.6162 45.7338 27.4052 45.9977 27.282C46.1032 27.2469 46.2087 27.1413 46.3143 27.0886C46.842 26.8599 47.3345 26.5433 47.7918 26.1915C47.8446 26.1915 47.8974 26.1387 47.9502 26.1035C48.2492 25.8748 48.5482 25.6462 48.8296 25.3823C51.4681 25.998 53.4382 28.4254 53.5789 31.3277C53.5614 31.4333 53.5438 31.5564 53.5438 31.6619Z" fill="white"/>
<path d="M32.3129 44.5378C32.3129 44.6433 32.3129 44.7665 32.3129 44.872C32.3129 44.9775 32.2953 45.0831 32.2953 45.2062C32.2777 45.3645 32.2601 45.5228 32.2249 45.6811C32.1897 45.857 32.1545 46.0329 32.1194 46.1912C32.0314 46.5079 31.9259 46.8245 31.7852 47.1235C31.7676 47.1587 31.75 47.2115 31.7324 47.2466C31.662 47.405 31.5917 47.5457 31.5037 47.6864C31.4861 47.7216 31.4509 47.7743 31.4334 47.8095C31.1343 48.3196 30.7649 48.777 30.3428 49.1815C30.3076 49.2167 30.2548 49.2519 30.2196 49.2871C30.1493 49.3574 30.0789 49.4102 30.0086 49.4806C29.9558 49.5157 29.903 49.5685 29.8678 49.6037C29.7623 49.6917 29.6392 49.7796 29.5336 49.85C29.516 49.8675 29.4985 49.8676 29.4809 49.8851C29.3226 49.9907 29.1642 50.0786 29.0059 50.1666C28.8652 50.2545 28.7069 50.3249 28.5662 50.3952C28.5486 50.3952 28.5486 50.3953 28.531 50.4128C28.232 50.5536 27.9154 50.6591 27.5987 50.747C27.5284 50.7646 27.458 50.7822 27.3877 50.7998C27.071 50.8702 26.7368 50.9229 26.385 50.9581C26.2795 50.9581 26.174 50.9757 26.0508 50.9757C25.9981 50.9757 25.9453 50.9757 25.8925 50.9757C25.8397 50.9757 25.787 50.9757 25.7342 50.9757C25.6287 50.9757 25.5055 50.9757 25.4 50.9581C25.0658 50.9405 24.7316 50.8878 24.3974 50.7998C24.327 50.7822 24.2566 50.7646 24.1863 50.747C23.8697 50.6591 23.553 50.5536 23.254 50.4128C23.2364 50.4128 23.2364 50.4128 23.2188 50.3952C23.0781 50.3249 22.955 50.2721 22.8143 50.2018C22.6384 50.1138 22.4625 50.0083 22.3042 49.8851C22.2866 49.8676 22.269 49.8675 22.2514 49.85C22.1283 49.7796 22.0227 49.6917 21.9172 49.6037C21.8644 49.5685 21.8116 49.5333 21.7765 49.4806C21.7061 49.4278 21.6357 49.3574 21.5654 49.2871C21.495 49.2167 21.4071 49.1464 21.3367 49.076C20.9497 48.689 20.6155 48.2669 20.3517 47.8095C20.3341 47.7743 20.2989 47.7216 20.2813 47.6864C20.1934 47.5457 20.123 47.3874 20.0526 47.2466C20.035 47.2115 20.0175 47.1587 19.9999 47.1235C19.8591 46.8245 19.7536 46.5079 19.6657 46.1912C19.6129 46.0153 19.5777 45.857 19.5601 45.6811C19.5249 45.5228 19.5073 45.3645 19.4898 45.2062C19.4722 45.1007 19.4722 44.9951 19.4722 44.872C19.4722 44.7665 19.4722 44.6433 19.4722 44.5378C19.4722 44.4323 19.4722 44.3091 19.4722 44.2036C19.4722 44.1332 19.4898 44.0629 19.4898 44.0101C19.4898 43.9749 19.5073 43.9221 19.5073 43.887C19.5073 43.8518 19.5249 43.799 19.5249 43.7638C19.5425 43.6407 19.5601 43.5176 19.5777 43.3944C19.6129 43.2185 19.6481 43.0426 19.6832 42.8843C19.7712 42.5677 19.8767 42.2511 20.0175 41.9521C20.035 41.9345 20.035 41.9169 20.0526 41.8817C20.0702 41.8641 20.0702 41.8465 20.0878 41.8113C20.1582 41.653 20.2285 41.5123 20.3165 41.3716C20.3341 41.3364 20.3693 41.2836 20.3868 41.2485C20.6859 40.7384 21.0553 40.281 21.4774 39.8765C21.5126 39.8413 21.5654 39.8061 21.6006 39.7709C21.6709 39.7006 21.7413 39.6478 21.8116 39.5774C21.8644 39.5422 21.9172 39.4895 21.9524 39.4543C22.0579 39.3663 22.181 39.2784 22.2866 39.208C22.3042 39.1904 22.3217 39.1904 22.3393 39.1729C22.6208 38.9794 22.9374 38.8035 23.254 38.6627C23.2716 38.6627 23.2716 38.6627 23.2892 38.6452C23.5882 38.5044 23.9048 38.3989 24.2215 38.3109C24.2918 38.2934 24.3622 38.2758 24.4325 38.2582C24.7492 38.1878 25.0834 38.135 25.4352 38.0999C25.5407 38.0999 25.6463 38.0823 25.7694 38.0823C25.8222 38.0823 25.8749 38.0823 25.9277 38.0823C25.9805 38.0823 26.0332 38.0823 26.086 38.0823C26.1915 38.0823 26.3147 38.0823 26.4202 38.0999C26.7544 38.1175 27.0886 38.1702 27.4228 38.2582C27.4932 38.2758 27.5636 38.2934 27.6339 38.3109C27.9505 38.3989 28.2672 38.5044 28.5662 38.6452C28.5838 38.6452 28.5838 38.6452 28.6014 38.6627C28.918 38.8035 29.2346 38.9794 29.516 39.1729C29.5336 39.1904 29.5512 39.1904 29.5688 39.208C29.6919 39.2784 29.7975 39.3663 29.903 39.4543C29.9558 39.4895 30.0086 39.5247 30.0437 39.5774C30.1141 39.6302 30.1845 39.7006 30.2548 39.7709C30.29 39.8061 30.3428 39.8413 30.378 39.8765C30.8001 40.281 31.1695 40.7384 31.4685 41.2485C31.4861 41.2836 31.5213 41.3364 31.5389 41.3716C31.6268 41.5123 31.6972 41.6706 31.7676 41.8113C31.7852 41.8465 31.8027 41.8993 31.8203 41.9345C31.9611 42.2335 32.0666 42.5501 32.1545 42.8667C32.2073 43.0426 32.2425 43.201 32.2601 43.3769C32.2953 43.5352 32.3129 43.6935 32.3304 43.8518C32.3304 43.9046 32.348 43.9573 32.348 44.0101C32.348 44.0629 32.348 44.1332 32.3656 44.186C32.3129 44.3267 32.3129 44.4323 32.3129 44.5378Z" fill="white"/>
<path d="M19.2964 43.9573C19.314 43.9573 19.314 43.9573 19.2964 43.9573C19.3492 43.9749 19.3667 43.9925 19.4195 44.01C19.4195 44.01 19.4019 44.01 19.4019 43.9925C19.3667 43.9749 19.3316 43.9573 19.2964 43.9573Z" fill="white"/>
<path d="M19.2964 43.9573C19.3316 43.9749 19.3667 43.9925 19.3843 44.01C19.3667 43.9749 19.3492 43.9749 19.2964 43.9573C19.314 43.9573 19.314 43.9573 19.2964 43.9573Z" fill="white"/>
<path d="M36.6576 57.185V63.8692C36.6576 64.0099 36.5345 64.0099 36.4114 64.0099H15.3034C15.1803 64.0099 15.0044 63.9923 15.0044 63.8692V57.185C15.0044 57.0795 15.022 56.9739 15.022 56.8684C15.0923 55.2853 15.7432 53.8253 16.7458 52.7523C16.781 52.7172 16.8162 52.682 16.8338 52.6644C17.3263 52.1543 17.9067 51.7145 18.5576 51.3979C18.5927 51.3803 18.6279 51.3627 18.6807 51.3451C18.8566 51.2572 19.0325 51.1868 19.226 51.1165C19.2612 51.0989 19.3139 51.0813 19.3491 51.0813C19.5074 51.0285 19.6833 50.9758 19.8592 50.9406C20.0703 51.1341 20.2814 51.3276 20.5101 51.5035C21.0905 51.9608 21.7238 52.3302 22.3922 52.6292C22.5153 52.682 22.6384 52.7348 22.7792 52.7875C23.2717 52.981 23.7818 53.1217 24.2919 53.2097C24.802 53.2976 25.3121 53.3504 25.8398 53.3504C26.4379 53.3504 27.0183 53.28 27.5988 53.1569C27.6692 53.1393 27.7395 53.1041 27.8099 53.1041C27.9154 53.1041 28.021 53.1041 28.1265 53.1041C28.408 53.1041 28.6894 52.8931 28.9532 52.7875C29.0588 52.7523 29.1643 52.6468 29.2699 52.594C29.7976 52.3654 30.2901 52.0487 30.7474 51.6969C30.8002 51.6969 30.853 51.6618 30.9057 51.6266C31.2048 51.3979 31.5038 51.1692 31.7852 50.9054C34.4237 51.521 36.4642 53.9485 36.5873 56.8684C36.6225 56.9563 36.6576 57.0619 36.6576 57.185Z" fill="white"/>
<path d="M68.9877 45.4877C68.9877 45.5933 68.9877 45.7164 68.9877 45.822C68.9877 45.9275 68.9701 46.033 68.9701 46.1562C68.9525 46.3145 68.9349 46.4728 68.8997 46.6311C68.8646 46.807 68.8294 46.9829 68.7942 47.1412C68.7063 47.4578 68.6007 47.7744 68.46 48.0735C68.4424 48.1087 68.4248 48.1614 68.4072 48.1966C68.3369 48.3549 68.2665 48.4956 68.1786 48.6364C68.161 48.6715 68.1258 48.7243 68.1082 48.7595C67.8092 49.2696 67.4398 49.7269 67.0176 50.1315C66.9824 50.1667 66.9297 50.2019 66.8945 50.237C66.8241 50.3074 66.7538 50.3602 66.6834 50.4305C66.6306 50.4657 66.5779 50.5185 66.5427 50.5537C66.4371 50.6416 66.314 50.7296 66.2085 50.7999C66.1909 50.8175 66.1733 50.8175 66.1557 50.8351C65.9974 50.9406 65.8391 51.0286 65.6808 51.1165C65.5401 51.2045 65.3818 51.2748 65.241 51.3452C65.2234 51.3452 65.2234 51.3452 65.2059 51.3628C64.9068 51.5035 64.5902 51.6091 64.2736 51.697C64.2032 51.7146 64.1329 51.7322 64.0625 51.7498C63.7459 51.8201 63.4117 51.8729 63.0599 51.9081C62.9543 51.9081 62.8488 51.9257 62.7257 51.9257C62.6729 51.9257 62.6201 51.9257 62.5674 51.9257C62.5146 51.9257 62.4618 51.9257 62.409 51.9257C62.3035 51.9257 62.1804 51.9257 62.0748 51.9081C61.7406 51.8905 61.4064 51.8377 61.0722 51.7498C61.0019 51.7322 60.9315 51.7146 60.8611 51.697C60.5445 51.6091 60.2279 51.5035 59.9289 51.3628C59.9113 51.3628 59.9113 51.3628 59.8937 51.3452C59.753 51.2748 59.6298 51.2221 59.4891 51.1517C59.3132 51.0638 59.1373 50.9582 58.979 50.8351C58.9614 50.8175 58.9438 50.8175 58.9262 50.7999C58.8031 50.7296 58.6976 50.6416 58.592 50.5537C58.5393 50.5185 58.4865 50.4833 58.4513 50.4305C58.3809 50.3778 58.3106 50.3074 58.2402 50.237C58.1699 50.1667 58.0819 50.0963 58.0116 50.026C57.6246 49.639 57.2904 49.2168 57.0265 48.7595C57.0089 48.7243 56.9737 48.6715 56.9562 48.6364C56.8682 48.4956 56.7979 48.3373 56.7275 48.1966C56.7099 48.1614 56.6923 48.1087 56.6747 48.0735C56.534 47.7744 56.4285 47.4578 56.3405 47.1412C56.2877 46.9653 56.2526 46.807 56.235 46.6311C56.1998 46.4728 56.1822 46.3145 56.1646 46.1562C56.147 46.0506 56.147 45.9451 56.147 45.822C56.147 45.7164 56.147 45.5933 56.147 45.4877C56.147 45.3822 56.0943 45.2591 56.1118 45.1535C56.1118 45.0832 56.0767 45.0128 56.0767 44.96C56.0767 44.9249 56.1294 44.8721 56.1294 44.8369C56.1294 44.8017 56.1646 44.749 56.1646 44.7138C56.1822 44.5907 56.2174 44.4675 56.235 44.3444C56.2702 44.1685 56.3053 43.9926 56.3581 43.8343C56.4461 43.5177 56.5516 43.201 56.6923 42.902C56.7099 42.8844 56.7099 42.8668 56.7275 42.8317C56.7451 42.8141 56.7451 42.7965 56.7627 42.7613C56.833 42.603 56.9034 42.4623 56.9913 42.3216C57.0089 42.2864 57.0441 42.2336 57.0617 42.1984C57.3607 41.6883 57.7301 41.231 58.1523 40.8264C58.1875 40.7912 58.2402 40.756 58.2754 40.7209C58.3458 40.6505 58.4161 40.5977 58.4865 40.5274C58.5393 40.4922 58.592 40.4394 58.6272 40.4042C58.7327 40.3163 58.8559 40.2283 58.9614 40.158C58.979 40.1404 58.9966 40.1404 59.0142 40.1228C59.2956 39.9293 59.6122 39.7534 59.9289 39.6127C59.9465 39.6127 59.9465 39.6127 59.964 39.5951C60.2631 39.4544 60.5797 39.3488 60.8963 39.2609C60.9667 39.2433 61.037 39.2257 61.1074 39.2081C61.424 39.1378 61.7582 39.085 62.11 39.0498C62.2156 39.0498 62.3211 39.0322 62.4442 39.0322C62.497 39.0322 62.5498 39.0322 62.6025 39.0322C62.6553 39.0322 62.7081 39.0322 62.7608 39.0322C62.8664 39.0322 62.9895 39.0322 63.0951 39.0498C63.4293 39.0674 63.7635 39.1202 64.0977 39.2081C64.168 39.2257 64.2384 39.2433 64.3088 39.2609C64.6254 39.3488 64.942 39.4544 65.241 39.5951C65.2586 39.5951 65.2586 39.5951 65.2762 39.6127C65.5928 39.7534 65.9094 39.9293 66.1909 40.1228C66.2085 40.1404 66.2261 40.1404 66.2437 40.158C66.3668 40.2283 66.4723 40.3163 66.5779 40.4042C66.6306 40.4394 66.6834 40.4746 66.7186 40.5274C66.7889 40.5801 66.8593 40.6505 66.9297 40.7209C66.9648 40.756 67.0176 40.7912 67.0528 40.8264C67.475 41.231 67.8443 41.6883 68.1434 42.1984C68.161 42.2336 68.1961 42.2864 68.2137 42.3216C68.3017 42.4623 68.372 42.6206 68.4424 42.7613C68.46 42.7965 68.4776 42.8493 68.4952 42.8844C68.6359 43.1835 68.7414 43.5001 68.8294 43.8167C68.8822 43.9926 68.9173 44.1509 68.9349 44.3268C68.9701 44.4851 68.9877 44.6434 69.0053 44.8017C69.0053 44.8545 69.0229 44.9073 69.0229 44.96C69.0229 45.0128 69.0229 45.0832 69.0405 45.1359C68.9877 45.2767 68.9877 45.3822 68.9877 45.4877Z" fill="white"/>
<path d="M55.9712 44.8896C55.9888 44.8896 55.9888 44.9072 55.9712 44.8896C56.024 44.9072 56.0415 44.9248 56.0943 44.9424C56.0943 44.9424 56.0767 44.9424 56.0767 44.9248C56.0415 44.9248 56.0064 44.9072 55.9712 44.8896Z" fill="white"/>
<path d="M55.9712 44.8896C56.0064 44.9072 56.0416 44.9248 56.0591 44.9424C56.0591 44.9248 56.024 44.9072 55.9712 44.8896C55.9888 44.9072 55.9888 44.8896 55.9712 44.8896Z" fill="white"/>
<path d="M73.2444 58.1174V64.8016C73.2444 64.9423 73.2093 65.0654 73.0861 65.0654H51.9782C51.855 65.0654 51.7671 64.9423 51.7671 64.8016V58.1174C51.7671 58.0118 51.7495 57.9063 51.7495 57.8007C51.8199 56.2177 52.4531 54.7577 53.4557 53.6847C53.4909 53.6495 53.5085 53.6143 53.5437 53.5967C54.0362 53.0866 54.6167 52.6469 55.2675 52.3303C55.3027 52.3127 55.3379 52.2951 55.3906 52.2775C55.5665 52.1895 55.7424 52.1192 55.9359 52.0488C55.9711 52.0312 56.0239 52.0136 56.0591 52.0136C56.2174 51.9609 56.3933 51.9081 56.5692 51.8729C56.7802 52.0664 56.9913 52.2599 57.22 52.4358C57.8005 52.8931 58.4337 53.2625 59.1021 53.5616C59.2252 53.6143 59.3484 53.6671 59.4891 53.7199C59.9816 53.9134 60.4917 54.0541 61.0018 54.142C61.5119 54.23 62.022 54.2828 62.5497 54.2828C63.1478 54.2828 63.7283 54.1948 64.3087 54.0717C64.3791 54.0541 64.4495 53.9837 64.5198 53.9837C64.6254 53.9837 64.7309 53.9837 64.8364 53.9837C65.1179 53.9837 65.3993 53.8078 65.6632 53.7023C65.7687 53.6671 65.8743 53.6319 65.9798 53.5792C66.5075 53.3505 67 53.1042 67.4573 52.7524C67.5101 52.7524 67.5629 52.6645 67.6157 52.6293C67.9147 52.4006 68.2137 52.1368 68.4952 51.8729C71.1336 52.4886 73.1213 54.8984 73.262 57.8183C73.2444 57.9063 73.2444 58.0118 73.2444 58.1174Z" fill="white"/>
</svg>
