<svg width="87" height="87" viewBox="0 0 87 87" fill="none" xmlns="http://www.w3.org/2000/svg">
<path d="M43.5 87C67.5244 87 87 67.5244 87 43.5C87 19.4756 67.5244 0 43.5 0C19.4756 0 0 19.4756 0 43.5C0 67.5244 19.4756 87 43.5 87Z" fill="#733999"/>
<path d="M47.1589 49.1287C45.5582 49.1287 43.94 49.1111 42.3217 49.1463C42.1458 49.1463 41.9171 49.3926 41.8116 49.5861C40.422 52.2597 38.1705 53.6142 35.057 53.6142C33.3332 53.6142 31.8205 52.9985 30.4485 51.8728C30.3253 52.0663 30.2198 52.2422 30.0967 52.4005C29.0237 54.1067 28.0034 55.8481 26.8601 57.5016C25.6288 59.2606 23.9929 60.5798 21.8118 61.1954C19.0326 61.987 14.5119 59.4716 14.8461 55.8305C15.0748 53.3503 15.3035 50.8701 15.5146 48.3724C15.8136 44.784 16.1478 41.2133 16.4117 37.6249C16.6227 34.6522 17.9948 32.3303 20.4749 30.5537C20.7212 30.3778 20.9147 30.0788 21.0378 29.7974C21.2313 29.34 21.3896 28.8475 21.4776 28.355C21.7414 27.0006 22.7089 26.2794 23.9753 25.9276C25.9102 25.3823 27.8275 25.6285 29.6569 26.4201C30.5716 26.8071 31.0993 27.5107 31.2752 28.4605C31.3631 28.9355 31.4511 29.4104 31.539 29.8853C31.6973 30.7648 32.1195 31.1166 33.0342 31.1166C40.7738 31.1166 48.5134 31.1166 56.2529 31.1166C56.9741 31.1166 57.4315 30.7296 57.5722 30.0436C57.6777 29.5159 57.8009 28.9882 57.8888 28.4429C58.0471 27.4755 58.5924 26.7895 59.5071 26.4025C61.2661 25.6285 63.113 25.3823 65.0127 25.8572C66.3848 26.209 67.4226 26.9478 67.6864 28.3902C67.8975 29.5511 68.478 30.4482 69.5158 31.2222C71.5738 32.7877 72.5588 34.9688 72.7523 37.4842C72.9634 40.2986 73.1921 43.113 73.4208 45.9274C73.7022 49.1815 74.0364 52.4356 74.3003 55.6898C74.441 57.396 73.755 58.7856 72.3654 59.8586C69.9907 61.688 67.5633 61.7759 65.0479 60.1225C63.887 59.3661 62.8844 58.4162 62.1456 57.2729C61.1078 55.6546 60.1051 54.0363 59.0849 52.4005C58.9794 52.2246 58.8563 52.0311 58.7507 51.8552C54.5819 55.2149 48.8652 53.4383 47.1589 49.1287Z" fill="white"/>
<path d="M26.4554 44.6081C30.29 44.6081 33.421 41.5123 33.421 37.6953C33.421 33.7903 30.3076 30.6593 26.4554 30.6593C22.6032 30.6593 19.4897 33.8079 19.4897 37.6953C19.4897 41.5123 22.6208 44.6257 26.4554 44.6081Z" fill="#733999"/>
<path d="M62.761 44.6082C66.6308 44.6082 69.7267 41.53 69.7442 37.6602C69.7442 33.808 66.6132 30.6594 62.7962 30.677C58.9088 30.677 55.813 33.7904 55.813 37.6953C55.813 41.5124 58.9264 44.6082 62.761 44.6082Z" fill="#733999"/>
<path d="M35.6723 42.7084C33.3328 42.7084 31.4683 44.5905 31.4683 46.9124C31.4859 49.1991 33.4207 51.0812 35.7426 51.046C38.0117 51.0108 39.8939 49.1463 39.9114 46.9124C39.9114 44.5729 38.0469 42.7084 35.6723 42.7084Z" fill="#733999"/>
<path d="M53.5088 42.7084C55.8307 42.7084 57.6952 44.5377 57.7128 46.842C57.7304 49.1815 55.8131 51.0812 53.4736 51.0636C51.1693 51.046 49.3048 49.1639 49.3048 46.8948C49.2872 44.5553 51.1518 42.7084 53.5088 42.7084Z" fill="#733999"/>
<path d="M21.8291 39.2784C21.8291 38.1527 21.8291 37.1324 21.8291 36.0419C22.5327 36.0419 23.2011 36.0419 23.8695 36.0419C23.9927 36.0419 24.1334 36.1298 24.2213 36.2002C24.7139 36.6575 25.1888 37.1324 25.7693 37.6777C25.2064 38.2054 24.6963 38.6804 24.1862 39.1377C24.0982 39.2256 23.9399 39.2608 23.8168 39.2608C23.1835 39.2784 22.5327 39.2784 21.8291 39.2784Z" fill="white"/>
<path d="M30.7649 39.2784C30.7649 38.1527 30.7649 37.1324 30.7649 36.0419C30.0613 36.0419 29.3928 36.0419 28.7244 36.0419C28.6013 36.0419 28.4606 36.1298 28.3726 36.2002C27.8801 36.6575 27.4052 37.1324 26.8247 37.6777C27.3876 38.2054 27.8977 38.6804 28.4078 39.1377C28.4958 39.2256 28.6541 39.2608 28.7772 39.2608C29.4104 39.2784 30.0613 39.2784 30.7649 39.2784Z" fill="white"/>
<path d="M24.6787 33.2803C25.8045 33.2803 26.8247 33.2803 27.9153 33.2803C27.9153 33.9839 27.9153 34.6523 27.9153 35.3207C27.9153 35.4438 27.8273 35.5846 27.757 35.6725C27.2996 36.165 26.8247 36.64 26.2794 37.2204C25.7517 36.6575 25.2768 36.1474 24.8194 35.6373C24.7315 35.5494 24.6963 35.3911 24.6963 35.2679C24.6787 34.6347 24.6787 33.9839 24.6787 33.2803Z" fill="white"/>
<path d="M24.6787 42.0224C25.8045 42.0224 26.8247 42.0224 27.9153 42.0224C27.9153 41.3188 27.9153 40.6504 27.9153 39.982C27.9153 39.8589 27.8273 39.7181 27.757 39.6302C27.2996 39.1377 26.8247 38.6627 26.2794 38.0823C25.7517 38.6452 25.2768 39.1553 24.8194 39.6654C24.7315 39.7533 24.6963 39.9116 24.6963 40.0348C24.6787 40.668 24.6787 41.3364 24.6787 42.0224Z" fill="white"/>
<path d="M64.6253 41.4596C64.6253 42.4798 63.7986 43.3066 62.7784 43.3066C61.7582 43.3066 60.9314 42.4974 60.9138 41.4772C60.8963 40.4394 61.7406 39.5951 62.7784 39.5951C63.7986 39.6127 64.6253 40.4394 64.6253 41.4596Z" fill="white"/>
<path d="M62.7784 31.9434C63.7986 31.9434 64.6253 32.7877 64.6253 33.7903C64.6253 34.8281 63.7634 35.6724 62.7256 35.6548C61.723 35.6373 60.8963 34.7929 60.9138 33.7727C60.9314 32.7525 61.7582 31.9434 62.7784 31.9434Z" fill="white"/>
<path d="M59.0669 35.7955C60.0872 35.7955 60.9139 36.6399 60.9139 37.6425C60.9139 38.6803 60.052 39.5246 59.0142 39.507C58.0116 39.4894 57.1848 38.6451 57.2024 37.6249C57.22 36.6047 58.0643 35.7955 59.0669 35.7955Z" fill="white"/>
<path d="M66.5079 35.778C67.5281 35.778 68.3372 36.6223 68.3372 37.6425C68.3372 38.6452 67.4929 39.4895 66.4903 39.4895C65.4525 39.4895 64.6082 38.6276 64.6258 37.5898C64.6433 36.5695 65.4877 35.7604 66.5079 35.778Z" fill="white"/>
</svg>
