<svg width="75" height="75" viewBox="0 0 75 75" fill="none" xmlns="http://www.w3.org/2000/svg">
<path d="M37.5 75C58.2107 75 75 58.2107 75 37.5C75 16.7893 58.2107 0 37.5 0C16.7893 0 0 16.7893 0 37.5C0 58.2107 16.7893 75 37.5 75Z" fill="#733999"/>
<path d="M26.37 13.2683C18.409 13.2683 11.9492 19.7281 11.9492 27.6891C11.9492 35.65 18.409 42.1098 26.37 42.1098C34.3309 42.1098 40.7907 35.65 40.7907 27.6891C40.7907 19.7281 34.3309 13.2683 26.37 13.2683ZM26.37 40.1688C19.4856 40.1688 13.8902 34.5886 13.8902 27.6891C13.8902 20.8047 19.4704 15.2093 26.37 15.2093C33.2543 15.2093 38.8498 20.7895 38.8498 27.6891C38.8498 34.5734 33.2695 40.1688 26.37 40.1688Z" fill="white"/>
<path d="M34.4521 38.607L37.5304 35.8472L59.6847 54.0589L55.3478 58.4563L34.4521 38.607Z" fill="white"/>
</svg>
