<svg width="1163" height="819" viewBox="0 0 1163 819" fill="none" xmlns="http://www.w3.org/2000/svg">
<path fill-rule="evenodd" clip-rule="evenodd" d="M750.563 -1272.15C929.883 -1370.1 1083.32 -1011.62 1273.48 -919.956C1440.02 -839.674 1651.72 -908.719 1787.07 -772.497C1925.54 -633.134 1961.11 -409.872 1981.16 -207.72C2000.74 -10.3138 1979.36 189.083 1899.55 361.515C1821.42 530.304 1693.58 664.909 1539.21 747.121C1392.3 825.361 1223.45 814.617 1057.29 810.074C887.45 805.431 693.435 845.573 561.234 720.383C429.218 595.368 488.658 354.589 401.317 188.893C296.654 -9.66476 -51.9069 -117.782 7.64696 -329.833C72.205 -559.702 469.612 -378.682 611.133 -558.188C756.7 -742.827 551.227 -1163.28 750.563 -1272.15Z" fill="#6CA8D2"/>
<path fill-rule="evenodd" clip-rule="evenodd" d="M821.275 -1144.53C998.526 -1238.93 1145.19 -902.968 1330.94 -818.835C1493.62 -745.152 1702.34 -812.705 1833.75 -685.943C1968.19 -556.26 2000.6 -346.31 2018 -156.068C2035 29.7074 2011.74 217.842 1931.39 381.257C1852.74 541.219 1725.64 669.558 1573.07 748.841C1427.88 824.294 1262.15 816.161 1098.98 813.839C932.205 811.465 741.174 851.575 612.735 735.173C484.474 618.933 545.588 391.357 461.672 236.259C361.113 50.4014 19.9555 -47.365 80.8554 -247.872C146.873 -465.227 535.185 -299.345 676.23 -470.152C821.309 -645.844 624.24 -1039.6 821.275 -1144.53Z" fill="#3B77A2"/>
<path fill-rule="evenodd" clip-rule="evenodd" d="M880.797 -1057.69C1057.53 -1149.51 1198.98 -832.073 1382.07 -754.371C1542.42 -686.319 1750.04 -753.011 1878.79 -634.154C2010.51 -512.557 2040.19 -313.472 2055.24 -132.932C2069.94 43.3701 2044.71 222.397 1963.21 378.624C1883.42 531.55 1755.99 655.013 1603.9 732.174C1459.15 805.608 1295.02 799.872 1133.36 799.627C968.125 799.377 778.365 839.782 652.435 730.731C526.682 621.833 589.87 404.878 508.507 258.527C411.008 83.1514 74.0761 -5.63629 136.739 -196.871C204.668 -404.175 587.541 -251.236 729.278 -415.216C875.07 -583.886 684.338 -955.622 880.797 -1057.69Z" fill="#0E4870"/>
</svg>
