<svg width="109" height="40" viewBox="0 0 109 40" fill="none" xmlns="http://www.w3.org/2000/svg">
<path d="M8.23503 27.5278C5.65057 27.5278 3.63391 26.8151 2.18504 25.3898C0.73618 23.9644 0.0078317 21.9477 0 19.3398C0 16.6496 0.671568 14.5722 2.0147 13.1077C3.35784 11.6432 5.21591 10.9089 7.58892 10.905C9.85619 10.905 11.6183 11.5511 12.8753 12.8434C14.1323 14.1356 14.7628 15.9173 14.7667 18.1885V20.3148H4.42883C4.40489 21.3995 4.80046 22.4515 5.53309 23.2517C5.9183 23.6156 6.374 23.8966 6.87205 24.0774C7.37011 24.2582 7.89996 24.3351 8.42887 24.3031C9.34993 24.3061 10.2683 24.2036 11.166 23.9977C12.0963 23.7754 13.0001 23.4545 13.8621 23.0403V26.4235C13.0847 26.8092 12.2617 27.0953 11.4127 27.2752C10.3652 27.4695 9.30017 27.5542 8.23503 27.5278V27.5278ZM7.64766 14.0181C7.24202 13.996 6.83647 14.0634 6.45984 14.2157C6.08322 14.368 5.74475 14.6013 5.46848 14.8992C4.89437 15.6079 4.57573 16.4894 4.56393 17.4014H10.702C10.7443 16.4907 10.4424 15.5975 9.85619 14.8992C9.56926 14.599 9.22052 14.3647 8.83412 14.2126C8.44771 14.0605 8.03287 13.9941 7.61829 14.0181H7.64766Z" fill="#FAB954"/>
<path d="M16.9106 21.1545V17.5715H24.6112V21.1545H16.9106Z" fill="#0E4870"/>
<path d="M40.4998 21.4188C40.5363 22.2723 40.37 23.1224 40.0147 23.8993C39.6595 24.6763 39.1252 25.358 38.4557 25.8887C37.093 26.9813 35.1978 27.5275 32.7699 27.5275C30.7198 27.5674 28.688 27.1353 26.8315 26.2647V22.153C27.9936 22.6896 29.1954 23.1354 30.4263 23.4864C31.3027 23.7304 32.2068 23.8607 33.1165 23.874C33.9039 23.9225 34.6872 23.7277 35.3603 23.316C35.619 23.125 35.826 22.8723 35.9624 22.581C36.0988 22.2897 36.1604 21.969 36.1415 21.6479C36.1458 21.2542 36.0244 20.8694 35.7949 20.5495C35.5149 20.1851 35.1729 19.873 34.7846 19.6273C33.9055 19.1063 32.9975 18.6357 32.0651 18.2176C31.0338 17.7688 30.0661 17.1862 29.1869 16.4848C28.5554 15.9424 28.0331 15.2845 27.648 14.5465C27.2458 13.7474 27.0442 12.8624 27.0606 11.9679C27.0209 11.1431 27.1701 10.3201 27.4969 9.56167C27.8236 8.80329 28.3193 8.12958 28.9461 7.59194C30.2031 6.53466 31.9417 6.00014 34.1561 6.00014C35.2081 5.99506 36.2564 6.12536 37.2751 6.38781C38.3376 6.67103 39.3764 7.0363 40.3823 7.48034L38.9491 10.9341C38.0464 10.5508 37.1181 10.2309 36.1708 9.97669C35.4663 9.79688 34.7423 9.70417 34.0152 9.70062C33.3194 9.65671 32.6312 9.86527 32.0768 10.288C31.8585 10.4779 31.6851 10.7139 31.5693 10.9791C31.4535 11.2442 31.3981 11.5318 31.4072 11.8211C31.3978 12.1824 31.4916 12.5389 31.6774 12.849C31.9052 13.1883 32.2013 13.4764 32.5467 13.6948C33.4543 14.2402 34.3939 14.7306 35.3603 15.1632C37.3182 16.103 38.6613 17.0428 39.3897 17.9827C40.1365 18.9702 40.5277 20.181 40.4998 21.4188V21.4188Z" fill="#0E4870"/>
<path d="M51.2135 27.5278C48.6291 27.5278 46.6105 26.8151 45.1577 25.3898C43.7049 23.9644 42.9785 21.9477 42.9785 19.3398C42.9785 16.6496 43.6501 14.5722 44.9932 13.1077C46.3364 11.6432 48.1944 10.9089 50.5674 10.905C52.8347 10.905 54.5968 11.5511 55.8538 12.8434C57.1108 14.1356 57.7374 15.9271 57.7334 18.2179V20.3442H47.3956C47.3717 21.4288 47.7672 22.4809 48.4999 23.2811C48.8851 23.6449 49.3408 23.9259 49.8388 24.1068C50.3369 24.2876 50.8667 24.3644 51.3956 24.3325C52.3167 24.3355 53.2351 24.233 54.1328 24.027C55.063 23.8048 55.9668 23.4838 56.8289 23.0696V26.4529C56.0514 26.8386 55.2285 27.1247 54.3795 27.3046C53.3347 27.4883 52.2737 27.5631 51.2135 27.5278V27.5278ZM50.5968 14.0181C50.1912 13.996 49.7856 14.0634 49.409 14.2157C49.0324 14.368 48.6939 14.6013 48.4176 14.8992C47.8435 15.6079 47.5249 16.4894 47.5131 17.4014H53.6512C53.6877 16.4915 53.3865 15.6003 52.8053 14.8992C52.5217 14.6029 52.1777 14.3708 51.7967 14.2189C51.4157 14.0669 51.0065 13.9984 50.5968 14.0181Z" fill="#0E4870"/>
<path d="M76.1066 27.2398H71.7306V17.877C71.7932 16.9653 71.5782 16.0561 71.1139 15.269C70.8849 14.9729 70.5854 14.7387 70.2427 14.5879C69.9001 14.4371 69.5251 14.3744 69.1521 14.4056C68.6408 14.3604 68.1267 14.45 67.6609 14.6654C67.195 14.8808 66.7938 15.2145 66.4971 15.6332C65.9508 16.4497 65.6806 17.8006 65.6806 19.6979V27.2398H61.3047V11.2044H64.6469L65.2342 13.2602H65.4809C65.9646 12.4875 66.6654 11.8745 67.4956 11.4981C68.4199 11.09 69.4224 10.8895 70.4325 10.9107C72.2926 10.9107 73.7062 11.4158 74.6734 12.4261C75.6406 13.4364 76.1242 14.8912 76.1242 16.7904L76.1066 27.2398Z" fill="#0E4870"/>
<path d="M91.8013 22.4761C91.8446 23.1952 91.7109 23.9139 91.4118 24.5693C91.1128 25.2247 90.6576 25.7967 90.0862 26.2354C88.9467 27.0929 87.2374 27.5276 84.9584 27.5276C83.9604 27.5409 82.9633 27.4602 81.9804 27.2868C81.1859 27.1411 80.4099 26.9086 79.6661 26.5937V22.9813C80.5504 23.3859 81.4708 23.7064 82.415 23.9387C83.2925 24.1777 84.196 24.3079 85.1052 24.3264C86.6716 24.3264 87.4547 23.8682 87.4547 22.9519C87.4644 22.641 87.3503 22.3389 87.1376 22.112C86.8134 21.8167 86.4472 21.5713 86.0509 21.3836C85.534 21.1076 84.8468 20.7962 83.9833 20.4262C83.0248 20.0586 82.1137 19.5775 81.2697 18.993C80.7281 18.6019 80.2938 18.0808 80.0068 17.4776C79.7248 16.8155 79.5905 16.0999 79.6132 15.3806C79.586 14.7341 79.7237 14.0913 80.0135 13.5128C80.3033 12.9343 80.7356 12.439 81.2697 12.0737C82.3681 11.2925 83.9364 10.8989 85.9687 10.8989C87.9179 10.9036 89.8425 11.3346 91.6075 12.1618L90.2859 15.316C89.5509 14.9959 88.8 14.7136 88.0362 14.4702C87.3443 14.2528 86.6234 14.1419 85.8982 14.1413C84.606 14.1413 83.9598 14.4878 83.9598 15.1868C83.9688 15.3951 84.0306 15.5977 84.1396 15.7755C84.2485 15.9533 84.4009 16.1004 84.5825 16.203C85.4544 16.7114 86.3705 17.14 87.3196 17.4834C88.2897 17.8426 89.2128 18.3179 90.0686 18.899C90.6155 19.2947 91.0588 19.8166 91.3608 20.4203C91.661 21.0635 91.8116 21.7664 91.8013 22.4761Z" fill="#0E4870"/>
<path d="M102.463 27.5278C99.8859 27.5278 97.8693 26.8151 96.4126 25.3898C94.9559 23.9644 94.2295 21.9477 94.2334 19.3398C94.2334 16.6496 94.905 14.5722 96.2481 13.1077C97.5913 11.6432 99.4474 10.9089 101.816 10.905C104.084 10.905 105.846 11.5511 107.103 12.8434C108.36 14.1356 108.992 15.9173 109 18.1885V20.3148H98.6622C98.6383 21.3995 99.0339 22.4515 99.7665 23.2517C100.152 23.6153 100.608 23.8961 101.106 24.0769C101.604 24.2577 102.133 24.3347 102.662 24.3031C103.585 24.3062 104.506 24.2037 105.405 23.9977C106.335 23.7735 107.239 23.4526 108.101 23.0403V26.4235C107.322 26.8083 106.497 27.0944 105.646 27.2752C104.597 27.4699 103.53 27.5546 102.463 27.5278V27.5278ZM101.875 14.0181C101.47 13.9968 101.064 14.0646 100.688 14.2169C100.311 14.3691 99.9728 14.602 99.696 14.8992C99.1255 15.61 98.8073 16.4901 98.7915 17.4014H104.9C104.942 16.4907 104.641 15.5975 104.054 14.8992C103.771 14.6025 103.427 14.3703 103.046 14.2183C102.665 14.0663 102.256 13.998 101.846 14.0181H101.875Z" fill="#0E4870"/>
</svg>
