<svg width="63" height="61" viewBox="0 0 63 61" fill="none" xmlns="http://www.w3.org/2000/svg">
<path d="M62.6626 -0.875488H0.788086V60.9897H62.6626V-0.875488Z" fill="#FF8300"/>
<path d="M25.0555 54.9993C24.2182 55.5665 23.2267 55.8643 22.2146 55.8527C20.5949 55.8527 19.6567 54.7925 19.6567 53.3548C19.6567 51.4345 21.4212 50.4005 25.072 50.0066V49.5241C25.072 48.9037 24.6012 48.5394 23.7288 48.5394C23.3252 48.5265 22.9242 48.609 22.5586 48.7802C22.193 48.9513 21.8732 49.2062 21.6253 49.5241L20.088 48.6444C20.8978 47.5349 22.1257 46.9703 23.7651 46.9703C26.0069 46.9703 27.271 47.9321 27.271 49.5208C27.271 49.5208 27.271 55.7411 27.271 55.7576H25.2629L25.0555 54.9993ZM21.8821 53.1939C21.8703 53.3356 21.888 53.4782 21.9339 53.6128C21.9799 53.7474 22.0532 53.871 22.1493 53.9761C22.2454 54.0811 22.3622 54.1653 22.4923 54.2233C22.6225 54.2813 22.7633 54.3119 22.9059 54.3133C23.6924 54.2798 24.439 53.9584 25.0028 53.4106V51.3722C22.8861 51.6348 21.8821 52.1731 21.8821 53.1939Z" fill="white"/>
<path d="M29.0552 47.3839L30.9382 47.1246L31.139 48.1454C32.1957 47.3675 33.0417 46.9572 34.1017 46.9572C35.876 46.9572 36.7912 47.8927 36.7912 49.7571V55.7444H34.5165V50.1641C34.5165 49.1072 34.2367 48.6312 33.4203 48.6312C32.7619 48.6312 32.0706 48.9595 31.3036 49.5864V55.7542H29.0552V47.3839Z" fill="white"/>
<path d="M51.7994 55.9118C49.2581 55.9118 47.7471 54.2902 47.7471 51.4509C47.7471 48.6115 49.2811 46.9572 51.7698 46.9572C54.2585 46.9572 55.7201 48.5393 55.7201 51.336C55.7201 51.4837 55.6937 51.6347 55.6937 51.7824H49.9658C49.9889 53.4236 50.6604 54.2311 51.9936 54.2311C52.8495 54.2311 53.419 53.9029 53.949 53.1315L55.595 54.0473C54.8708 55.2684 53.5573 55.9118 51.7994 55.9118ZM53.4947 50.3316C53.4947 49.1761 52.8364 48.4966 51.7698 48.4966C50.7032 48.4966 50.0975 49.1531 50.0086 50.3316H53.4947Z" fill="white"/>
<path d="M8.4118 56.0036C6.16343 56.0036 4.13232 54.5823 4.13232 51.4705C4.13232 48.3587 6.15355 46.9275 8.4118 46.9275C10.67 46.9275 12.6715 48.3488 12.6715 51.4705C12.6715 54.5921 10.6503 56.0036 8.4118 56.0036ZM8.4118 48.8346C6.70989 48.8346 6.39386 50.361 6.39386 51.4606C6.39386 52.5603 6.72305 54.0866 8.4118 54.0866C10.1005 54.0866 10.3869 52.5668 10.3869 51.4606C10.3869 50.3544 10.0973 48.8346 8.4118 48.8346Z" fill="white"/>
<path d="M14.2157 47.1606H16.3686V48.165C16.6635 47.8164 17.0268 47.5315 17.436 47.3277C17.8453 47.124 18.2919 47.0056 18.7486 46.98C18.8433 46.9774 18.938 46.9829 19.0317 46.9964V49.1136H18.9264C17.9388 49.1136 16.869 49.2646 16.5167 50.0327V55.7541H14.2124L14.2157 47.1606Z" fill="white"/>
<path d="M42.3252 53.8963C44.0502 53.8963 44.195 52.1368 44.195 50.9945C44.195 49.652 43.5367 48.5524 42.3121 48.5524C41.5023 48.5524 40.5937 49.153 40.5937 51.0864C40.6069 52.1631 40.6628 53.9192 42.3252 53.8963ZM46.3677 47.1081V55.2552C46.3677 56.6995 46.2591 59.0629 42.1541 59.0892C40.462 59.0892 38.8951 58.4163 38.5791 56.9424L40.8176 56.5813C40.913 57.0048 41.1731 57.4315 42.4405 57.4315C43.6058 57.4315 44.172 56.8636 44.172 55.5178V54.5331L44.1424 54.5002C43.7803 55.1567 43.2404 55.7509 41.917 55.7509C39.9156 55.7509 38.3354 54.3624 38.3354 51.4508C38.3354 48.5392 39.9649 46.9669 41.7952 46.9636C43.5103 46.9636 44.1489 47.7449 44.3004 48.1519H44.2708L44.4551 47.1212L46.3677 47.1081Z" fill="white"/>
</svg>
