<svg width="17" height="17" viewBox="0 0 17 17" fill="none" xmlns="http://www.w3.org/2000/svg">
<path fill-rule="evenodd" clip-rule="evenodd" d="M8.49993 0.834595C4.27305 0.834595 0.834473 4.27342 0.834473 8.50005C0.834473 12.7267 4.27305 16.1655 8.49993 16.1655C12.7268 16.1655 16.1654 12.7267 16.1654 8.50005C16.1654 4.27342 12.7268 0.834595 8.49993 0.834595ZM5.53265 7.51096C5.53265 5.87475 6.86372 4.54369 8.49993 4.54369C10.1361 4.54369 11.4672 5.87475 11.4672 7.51096V8.25278C11.4672 9.88898 10.1361 11.22 8.49993 11.22C6.86372 11.22 5.53265 9.88898 5.53265 8.25278V7.51096ZM4.10119 14.1572C5.31679 15.1045 6.84295 15.671 8.49993 15.671C10.1567 15.671 11.6828 15.1047 12.8984 14.1574C12.187 12.9485 10.9066 12.2091 9.48902 12.2091H7.51084C6.09149 12.2091 4.81111 12.9485 4.10119 14.1572Z" fill="#ADB5BD"/>
</svg>
