<svg width="12" height="13" viewBox="0 0 12 13" fill="none" xmlns="http://www.w3.org/2000/svg">
<path d="M5.41406 12.5859C5.67969 12.5859 5.9375 12.4766 6.125 12.2969L11.2109 7.21094C11.3984 7.02344 11.5 6.76563 11.5 6.5C11.5 6.23438 11.3984 5.97656 11.2109 5.79688L6.125 0.710937C5.9375 0.523437 5.67969 0.414062 5.41406 0.414062C5.14844 0.414062 4.89844 0.523437 4.71094 0.710937L4.125 1.29687C3.9375 1.47656 3.82812 1.73437 3.82812 2C3.82812 2.26562 3.9375 2.52344 4.125 2.70312L6.41406 5L0.914062 5C0.351562 5 -2.8375e-07 5.46875 -3.06972e-07 6L-3.50683e-07 7C-3.73905e-07 7.53125 0.351562 8 0.914062 8L6.41406 8L4.125 10.2969C3.9375 10.4766 3.82812 10.7344 3.82812 11C3.82812 11.2656 3.9375 11.5234 4.125 11.7109L4.71094 12.2969C4.89844 12.4766 5.14844 12.5859 5.41406 12.5859Z" fill="#0E4870"/>
</svg>
