<svg width="13" height="15" viewBox="0 0 13 15" fill="none" xmlns="http://www.w3.org/2000/svg">
<path d="M2.9585 6.79199H4.37516V8.20866H2.9585V6.79199ZM2.9585 9.62532H4.37516V11.042H2.9585V9.62532ZM5.79183 6.79199H7.2085V8.20866H5.79183V6.79199ZM5.79183 9.62532H7.2085V11.042H5.79183V9.62532ZM8.62516 6.79199H10.0418V8.20866H8.62516V6.79199ZM8.62516 9.62532H10.0418V11.042H8.62516V9.62532Z" fill="black"/>
<path d="M1.54167 14.5837H11.4583C12.2396 14.5837 12.875 13.9483 12.875 13.167V3.25033C12.875 2.46903 12.2396 1.83366 11.4583 1.83366H10.0417V0.416992H8.625V1.83366H4.375V0.416992H2.95833V1.83366H1.54167C0.760375 1.83366 0.125 2.46903 0.125 3.25033V13.167C0.125 13.9483 0.760375 14.5837 1.54167 14.5837ZM11.4583 4.66699L11.459 13.167H1.54167V4.66699H11.4583Z" fill="black"/>
</svg>
