<svg width="22" height="25" viewBox="0 0 22 25" fill="none" xmlns="http://www.w3.org/2000/svg">
<path d="M4.88885 11H7.3333V13.4444H4.88885V11ZM4.88885 15.8889H7.3333V18.3333H4.88885V15.8889ZM9.77774 11H12.2222V13.4444H9.77774V11ZM9.77774 15.8889H12.2222V18.3333H9.77774V15.8889ZM14.6666 11H17.1111V13.4444H14.6666V11ZM14.6666 15.8889H17.1111V18.3333H14.6666V15.8889Z" fill="#A8A8A8"/>
<path d="M2.44444 24.4444H19.5556C20.9037 24.4444 22 23.3481 22 22V4.88889C22 3.54078 20.9037 2.44444 19.5556 2.44444H17.1111V0H14.6667V2.44444H7.33333V0H4.88889V2.44444H2.44444C1.09633 2.44444 0 3.54078 0 4.88889V22C0 23.3481 1.09633 24.4444 2.44444 24.4444ZM19.5556 7.33333L19.5568 22H2.44444V7.33333H19.5556Z" fill="#A8A8A8"/>
</svg>
