<svg width="40" height="40" viewBox="0 0 40 40" fill="none" xmlns="http://www.w3.org/2000/svg">
<path d="M20 0C8.85714 0 0 8.85714 0 20C0 31.1429 8.85714 40 20 40C31.1429 40 40 31.1429 40 20C40 8.85714 31.1429 0 20 0ZM27.7143 30L20 22.2857L12.2857 30L10 27.7143L17.7143 20L10 12.2857L12.2857 10L20 17.7143L27.7143 10L30 12.2857L22.2857 20L30 27.7143L27.7143 30Z" fill="#EE0000"/>
<path d="M20 0C8.85714 0 0 8.85714 0 20C0 31.1429 8.85714 40 20 40C31.1429 40 40 31.1429 40 20C40 8.85714 31.1429 0 20 0ZM27.7143 30L20 22.2857L12.2857 30L10 27.7143L17.7143 20L10 12.2857L12.2857 10L20 17.7143L27.7143 10L30 12.2857L22.2857 20L30 27.7143L27.7143 30Z" fill="#EE0000"/>
</svg>
