<svg width="27" height="27" viewBox="0 0 27 27" fill="none" xmlns="http://www.w3.org/2000/svg">
<path d="M7.97163 19.2558L10.2463 18.5996L23.9418 4.74006C24.0498 4.62936 24.11 4.48061 24.1092 4.32594C24.1085 4.17126 24.047 4.02308 23.9379 3.9134L23.1177 3.08415C23.0647 3.02969 23.0014 2.98633 22.9315 2.9566C22.8615 2.92688 22.7864 2.91139 22.7104 2.91103C22.6344 2.91066 22.5591 2.92545 22.4888 2.9545C22.4186 2.98356 22.3549 3.02632 22.3014 3.08027L8.64201 16.9037L7.97034 19.2545L7.97163 19.2558ZM24.7413 1.44115L25.5615 2.27169C26.693 3.4174 26.7034 5.26577 25.5822 6.39986L11.4695 20.6831L6.60763 22.0833C6.3108 22.1664 5.99313 22.1283 5.72434 21.9774C5.45555 21.8266 5.25758 21.5752 5.17388 21.2786C5.1116 21.0653 5.1107 20.8388 5.1713 20.625L6.58567 15.665L20.661 1.41919C20.9286 1.14969 21.2472 0.936186 21.5983 0.791119C21.9493 0.646053 22.3257 0.572332 22.7055 0.574255C23.0853 0.576179 23.4609 0.653709 23.8105 0.802324C24.16 0.950938 24.4764 1.16766 24.7413 1.43986V1.44115ZM9.86263 2.93044C10.5033 2.93044 11.0225 3.45615 11.0225 4.10456C11.0236 4.25784 10.9944 4.40982 10.9366 4.55181C10.8789 4.69379 10.7937 4.823 10.686 4.93205C10.5782 5.04109 10.4501 5.12784 10.3088 5.18731C10.1675 5.24679 10.0159 5.27784 9.86263 5.27869H5.22296C3.94163 5.27869 2.90313 6.33011 2.90313 7.62565V21.7126C2.90313 23.0094 3.94163 24.0608 5.22296 24.0608H19.142C20.4233 24.0608 21.4631 23.0094 21.4631 21.7126V17.0174C21.4631 16.3689 21.9823 15.8432 22.623 15.8432C23.2637 15.8432 23.7829 16.3689 23.7829 17.0186V21.7126C23.7829 24.3062 21.7046 26.4091 19.142 26.4091H5.22296C2.6603 26.4091 0.583298 24.3062 0.583298 21.7126V7.62565C0.583298 5.03327 2.6603 2.93044 5.22296 2.93044H9.86263Z" fill="#FBBC05"/>
</svg>
