<svg width="22" height="16" viewBox="0 0 22 16" fill="none" xmlns="http://www.w3.org/2000/svg">
<path d="M21.7742 7.75273C20.9188 5.54011 19.4339 3.62663 17.5028 2.24879C15.5718 0.87095 13.2793 0.089144 10.9088 0C8.53825 0.089144 6.24579 0.87095 4.31475 2.24879C2.3837 3.62663 0.898717 5.54011 0.043327 7.75273C-0.0144423 7.91251 -0.0144423 8.08749 0.043327 8.24727C0.898717 10.4599 2.3837 12.3734 4.31475 13.7512C6.24579 15.1291 8.53825 15.9109 10.9088 16C13.2793 15.9109 15.5718 15.1291 17.5028 13.7512C19.4339 12.3734 20.9188 10.4599 21.7742 8.24727C21.832 8.08749 21.832 7.91251 21.7742 7.75273ZM10.9088 14.5455C7.05424 14.5455 2.98151 11.6873 1.50515 8C2.98151 4.31273 7.05424 1.45455 10.9088 1.45455C14.7633 1.45455 18.8361 4.31273 20.3124 8C18.8361 11.6873 14.7633 14.5455 10.9088 14.5455Z" fill="#0E4870"/>
<path d="M10.9087 3.63647C10.0456 3.63647 9.20197 3.8924 8.48438 4.37188C7.76678 4.85136 7.20748 5.53287 6.87721 6.33022C6.54693 7.12757 6.46052 8.00495 6.62889 8.85141C6.79726 9.69788 7.21286 10.4754 7.82313 11.0857C8.43339 11.6959 9.21092 12.1115 10.0574 12.2799C10.9038 12.4483 11.7812 12.3619 12.5786 12.0316C13.3759 11.7013 14.0574 11.142 14.5369 10.4244C15.0164 9.70682 15.2723 8.86316 15.2723 8.00011C15.2723 6.8428 14.8126 5.73289 13.9942 4.91455C13.1759 4.09621 12.066 3.63647 10.9087 3.63647ZM10.9087 10.9092C10.3333 10.9092 9.77088 10.7386 9.29248 10.4189C8.81408 10.0993 8.44121 9.64494 8.22103 9.11337C8.00085 8.5818 7.94324 7.99688 8.05549 7.43258C8.16774 6.86827 8.4448 6.34992 8.85164 5.94307C9.25849 5.53623 9.77684 5.25917 10.3411 5.14692C10.9055 5.03467 11.4904 5.09228 12.0219 5.31246C12.5535 5.53264 13.0078 5.90551 13.3275 6.38391C13.6472 6.8623 13.8178 7.42475 13.8178 8.00011C13.8178 8.77165 13.5113 9.51159 12.9657 10.0571C12.4202 10.6027 11.6802 10.9092 10.9087 10.9092Z" fill="#0E4870"/>
</svg>
