<svg width="16" height="14" viewBox="0 0 16 14" fill="none" xmlns="http://www.w3.org/2000/svg">
<path fill-rule="evenodd" clip-rule="evenodd" d="M2 4V11.5C2 12.364 2.642 13 3.357 13H12.643C13.358 13 14 12.364 14 11.5V4H15V11.5C15 12.845 13.979 14 12.643 14H3.357C2.021 14 1 12.845 1 11.5V4H2Z" fill="#0E4870"/>
<path fill-rule="evenodd" clip-rule="evenodd" d="M5.5 6.5C5.5 6.36739 5.55268 6.24021 5.64645 6.14645C5.74021 6.05268 5.86739 6 6 6H10C10.1326 6 10.2598 6.05268 10.3536 6.14645C10.4473 6.24021 10.5 6.36739 10.5 6.5C10.5 6.63261 10.4473 6.75979 10.3536 6.85355C10.2598 6.94732 10.1326 7 10 7H6C5.86739 7 5.74021 6.94732 5.64645 6.85355C5.55268 6.75979 5.5 6.63261 5.5 6.5ZM15 1H1V3H15V1ZM1 0C0.734784 0 0.48043 0.105357 0.292893 0.292893C0.105357 0.48043 0 0.734784 0 1L0 3C0 3.26522 0.105357 3.51957 0.292893 3.70711C0.48043 3.89464 0.734784 4 1 4H15C15.2652 4 15.5196 3.89464 15.7071 3.70711C15.8946 3.51957 16 3.26522 16 3V1C16 0.734784 15.8946 0.48043 15.7071 0.292893C15.5196 0.105357 15.2652 0 15 0H1Z" fill="#0E4870"/>
</svg>
