<svg width="28" height="28" viewBox="0 0 28 28" fill="none" xmlns="http://www.w3.org/2000/svg">
<path d="M24.4947 24.5H22.7464V26.25C22.7464 26.7422 22.5779 27.1569 22.241 27.4941C21.9041 27.8314 21.4898 28 20.9981 28H17.5015C17.028 28 16.6182 27.8314 16.2722 27.4941C15.9262 27.1569 15.7532 26.7422 15.7532 26.25V24.5H3.51514C2.54994 24.5 1.72587 24.1582 1.04294 23.4746C0.360018 22.791 0.0185547 21.9661 0.0185547 21V7C0.0185547 6.52604 0.191563 6.11589 0.537579 5.76953C0.883595 5.42318 1.29335 5.25 1.76685 5.25H14.879L16.1356 2.95312C16.2995 2.66146 16.5727 2.38802 16.9551 2.13281C17.3376 1.8776 17.72 1.75 18.1025 1.75H24.6586C25.0956 1.75 25.5054 1.86393 25.8878 2.0918C26.2703 2.31966 26.5252 2.60677 26.6527 2.95312C27.5451 4.17448 27.9912 4.9401 27.9912 5.25V21C27.9912 21.9661 27.6498 22.791 26.9668 23.4746C26.2839 24.1582 25.4599 24.5 24.4947 24.5ZM24.4947 17.5H20.9981V14C20.9981 13.526 20.8251 13.1159 20.479 12.7695C20.133 12.4232 19.7187 12.25 19.2361 12.25C18.7535 12.25 18.3438 12.4232 18.0068 12.7695C17.6699 13.1159 17.5015 13.526 17.5015 14V17.5H14.0049C13.5132 17.5 13.0989 17.6732 12.762 18.0195C12.4251 18.3659 12.2566 18.7806 12.2566 19.2637C12.2566 19.7467 12.4251 20.1569 12.762 20.4941C13.0989 20.8314 13.5132 21 14.0049 21H17.5015V24.5C17.5015 24.9922 17.6699 25.4069 18.0068 25.7441C18.3438 26.0814 18.7535 26.25 19.2361 26.25C19.7187 26.25 20.133 26.0814 20.479 25.7441C20.8251 25.4069 20.9981 24.9922 20.9981 24.5V21H24.4947C24.9681 21 25.3779 20.8314 25.7239 20.4941C26.0699 20.1569 26.2429 19.7467 26.2429 19.2637C26.2429 18.7806 26.0699 18.3659 25.7239 18.0195C25.3779 17.6732 24.9681 17.5 24.4947 17.5ZM1.27514 1.20312C1.40262 0.856771 1.65758 0.569661 2.04002 0.341797C2.42246 0.113932 2.82311 0 3.24197 0H9.79807C10.2351 0 10.6449 0.113932 11.0273 0.341797C11.4098 0.569661 11.6738 0.856771 11.8195 1.20312L13.1307 3.5H0.0185547L1.27514 1.20312Z" fill="#A4A4A4"/>
</svg>
