<svg width="50" height="50" viewBox="0 0 50 50" fill="none" xmlns="http://www.w3.org/2000/svg">
<path d="M25 49C38.2548 49 49 38.2548 49 25C49 11.7452 38.2548 1 25 1C11.7452 1 1 11.7452 1 25C1 38.2548 11.7452 49 25 49Z" stroke="#E9ECEF" stroke-linecap="square"/>
<path d="M19.6938 31.2498C19.3898 31.2503 19.0872 31.2104 18.7938 31.1311C17.9131 30.8799 17.1659 30.2936 16.7126 29.4979C16.2592 28.7022 16.1358 27.7605 16.3688 26.8748L17.825 21.3498C17.9384 20.9027 18.14 20.4827 18.418 20.1146C18.696 19.7464 19.0448 19.4375 19.4438 19.2061C19.8323 18.981 20.2616 18.8353 20.7068 18.7774C21.1521 18.7195 21.6044 18.7504 22.0375 18.8686C22.498 18.9964 22.9269 19.2186 23.297 19.5209C23.6671 19.8232 23.9703 20.1991 24.1875 20.6248H25.8125C26.0288 20.1984 26.3317 19.822 26.702 19.5195C27.0722 19.2171 27.5016 18.9954 27.9625 18.8686C28.3957 18.7504 28.848 18.7195 29.2932 18.7774C29.7384 18.8353 30.1678 18.981 30.5563 19.2061C30.9534 19.4369 31.3008 19.7441 31.5786 20.1099C31.8565 20.4757 32.0591 20.8928 32.175 21.3373L33.6313 26.8748C33.8677 27.7631 33.7453 28.7087 33.2904 29.5074C32.8355 30.3061 32.0846 30.8938 31.2 31.1436C30.7669 31.2617 30.3146 31.2927 29.8693 31.2347C29.4241 31.1768 28.9948 31.0311 28.6063 30.8061C28.2085 30.576 27.8606 30.2691 27.5827 29.9032C27.3047 29.5373 27.1024 29.1197 26.9875 28.6748L26.875 28.1248H23.125L22.9813 28.6623C22.8664 29.1072 22.6641 29.5248 22.3861 29.8907C22.1082 30.2566 21.7603 30.5635 21.3625 30.7936C20.8547 31.0865 20.28 31.2436 19.6938 31.2498ZM21.1438 19.9998C20.7666 20.0011 20.3962 20.1001 20.0688 20.2873C19.5556 20.5884 19.1825 21.0806 19.0313 21.6561L17.575 27.1811C17.4226 27.7503 17.4996 28.3566 17.7895 28.8696C18.0793 29.3827 18.5588 29.7615 19.125 29.9248C19.3985 29.9994 19.684 30.019 19.9651 29.9825C20.2461 29.9461 20.5172 29.8542 20.7625 29.7123C21.018 29.5648 21.2413 29.3678 21.4195 29.1327C21.5977 28.8977 21.7271 28.6293 21.8 28.3436L22.1875 26.8748H27.8125L28.1938 28.3436C28.268 28.6288 28.3979 28.8966 28.576 29.1314C28.754 29.3663 28.9767 29.5637 29.2313 29.7123C29.4778 29.8541 29.7499 29.9458 30.032 29.9823C30.314 30.0188 30.6005 29.9992 30.875 29.9248C31.4419 29.7631 31.922 29.3841 32.2111 28.8704C32.5001 28.3566 32.5748 27.7495 32.4188 27.1811L30.9625 21.6561C30.89 21.3709 30.7614 21.1031 30.5844 20.8681C30.4073 20.6331 30.1853 20.4357 29.9313 20.2873C29.6847 20.1455 29.4126 20.0538 29.1306 20.0173C28.8485 19.9809 28.562 20.0004 28.2875 20.0748C27.9481 20.1716 27.6366 20.3479 27.3789 20.5893C27.1213 20.8306 26.925 21.1299 26.8063 21.4623L26.6563 21.8748H23.3438L23.1938 21.4623C23.074 21.1294 22.8766 20.8299 22.6179 20.5886C22.3592 20.3473 22.0467 20.1712 21.7063 20.0748C21.5229 20.0254 21.3337 20.0001 21.1438 19.9998Z" fill="#767676"/>
<path d="M21.25 25C21.0028 25 20.7611 24.9267 20.5555 24.7893C20.35 24.652 20.1898 24.4568 20.0952 24.2284C20.0005 23.9999 19.9758 23.7486 20.024 23.5061C20.0723 23.2637 20.1913 23.0409 20.3661 22.8661C20.5409 22.6913 20.7637 22.5723 21.0061 22.524C21.2486 22.4758 21.4999 22.5005 21.7284 22.5952C21.9568 22.6898 22.152 22.85 22.2893 23.0555C22.4267 23.2611 22.5 23.5028 22.5 23.75C22.5 24.0815 22.3683 24.3995 22.1339 24.6339C21.8995 24.8683 21.5815 25 21.25 25Z" fill="#767676"/>
<path d="M28.75 23.125C29.0952 23.125 29.375 22.8452 29.375 22.5C29.375 22.1548 29.0952 21.875 28.75 21.875C28.4048 21.875 28.125 22.1548 28.125 22.5C28.125 22.8452 28.4048 23.125 28.75 23.125Z" fill="#767676"/>
<path d="M28.75 25.625C29.0952 25.625 29.375 25.3452 29.375 25C29.375 24.6548 29.0952 24.375 28.75 24.375C28.4048 24.375 28.125 24.6548 28.125 25C28.125 25.3452 28.4048 25.625 28.75 25.625Z" fill="#767676"/>
<path d="M27.5 24.375C27.8452 24.375 28.125 24.0952 28.125 23.75C28.125 23.4048 27.8452 23.125 27.5 23.125C27.1548 23.125 26.875 23.4048 26.875 23.75C26.875 24.0952 27.1548 24.375 27.5 24.375Z" fill="#767676"/>
<path d="M30 24.375C30.3452 24.375 30.625 24.0952 30.625 23.75C30.625 23.4048 30.3452 23.125 30 23.125C29.6548 23.125 29.375 23.4048 29.375 23.75C29.375 24.0952 29.6548 24.375 30 24.375Z" fill="#767676"/>
</svg>
