<svg width="50" height="50" viewBox="0 0 50 50" fill="none" xmlns="http://www.w3.org/2000/svg">
<path d="M25 49C38.2548 49 49 38.2548 49 25C49 11.7452 38.2548 1 25 1C11.7452 1 1 11.7452 1 25C1 38.2548 11.7452 49 25 49Z" stroke="#E9ECEF" stroke-linecap="square"/>
<path d="M37 27.6C37 28.2 35.8 28.6 34.4 28.8C33.5 27.1 31.7 25.8 29.6 24.9C29.8 24.6 30 24.4 30.2 24.1H31C34.1 24 37 25.9 37 27.6ZM19.8 24H19C15.9 24 13 25.9 13 27.6C13 28.2 14.2 28.6 15.6 28.8C16.5 27.1 18.3 25.8 20.4 24.9L19.8 24ZM25 25C27.2 25 29 23.2 29 21C29 18.8 27.2 17 25 17C22.8 17 21 18.8 21 21C21 23.2 22.8 25 25 25ZM25 26C20.9 26 17 28.6 17 31C17 33 25 33 25 33C25 33 33 33 33 31C33 28.6 29.1 26 25 26ZM30.7 23H31C32.7 23 34 21.7 34 20C34 18.3 32.7 17 31 17C30.5 17 30.1 17.1 29.7 17.3C30.5 18.3 31 19.6 31 21C31 21.7 30.9 22.4 30.7 23ZM19 23H19.3C19.1 22.4 19 21.7 19 21C19 19.6 19.5 18.3 20.3 17.3C19.9 17.1 19.5 17 19 17C17.3 17 16 18.3 16 20C16 21.7 17.3 23 19 23Z" fill="#767676"/>
</svg>
