<svg width="171" height="153" viewBox="0 0 171 153" fill="none" xmlns="http://www.w3.org/2000/svg">
<path d="M169.5 58.5103C169.439 58.5103 169.379 58.4916 169.329 58.4567L86.361 0.864785C86.1085 0.690338 85.8085 0.597111 85.5013 0.597633C85.194 0.598155 84.8943 0.692401 84.6424 0.867705L2.27241 58.4561C2.20726 58.5017 2.12663 58.5196 2.04824 58.5058C1.96986 58.4921 1.90015 58.448 1.85445 58.383C1.80876 58.3181 1.79081 58.2377 1.80457 58.1596C1.81832 58.0815 1.86265 58.012 1.92781 57.9664L84.2979 0.378005C84.6506 0.132616 85.0702 0.000707363 85.5003 2.83696e-06C85.9304 -0.00070169 86.3504 0.12983 86.7039 0.374063L169.672 57.9658C169.724 58.0022 169.763 58.0544 169.784 58.1146C169.805 58.1749 169.805 58.2401 169.786 58.3009C169.767 58.3616 169.729 58.4147 169.677 58.4524C169.626 58.49 169.564 58.5103 169.5 58.5103L169.5 58.5103Z" fill="#3F3D56"/>
<path d="M6.97913 60.5525L85.5827 2.48828L164.783 64.684L89.6327 109.088L48.8327 99.8187L6.97913 60.5525Z" fill="#E6E6E6"/>
<path d="M52.2766 136.513H13.4445C13.206 136.513 12.9699 136.467 12.7495 136.376C12.5291 136.285 12.3288 136.152 12.1601 135.984C11.9914 135.816 11.8576 135.617 11.7663 135.397C11.6749 135.178 11.6279 134.942 11.6279 134.705C11.6279 134.467 11.6749 134.232 11.7663 134.012C11.8576 133.793 11.9914 133.593 12.1601 133.425C12.3288 133.257 12.5291 133.124 12.7495 133.033C12.9699 132.943 13.206 132.896 13.4445 132.896H52.2766C52.515 132.896 52.7512 132.943 52.9716 133.033C53.1919 133.124 53.3922 133.257 53.5609 133.425C53.7296 133.593 53.8635 133.793 53.9548 134.012C54.0461 134.232 54.0931 134.467 54.0931 134.705C54.0931 134.942 54.0461 135.178 53.9548 135.397C53.8635 135.617 53.7296 135.816 53.5609 135.984C53.3922 136.152 53.1919 136.285 52.9716 136.376C52.7512 136.467 52.515 136.513 52.2766 136.513Z" fill="#F9A826"/>
<path d="M27.3766 128.74H13.4445C13.206 128.74 12.9699 128.693 12.7495 128.603C12.5291 128.512 12.3288 128.379 12.1601 128.211C11.9914 128.043 11.8576 127.843 11.7663 127.624C11.6749 127.404 11.6279 127.169 11.6279 126.931C11.6279 126.694 11.6749 126.458 11.7663 126.239C11.8576 126.019 11.9914 125.82 12.1601 125.652C12.3288 125.484 12.5291 125.351 12.7495 125.26C12.9699 125.169 13.206 125.123 13.4445 125.123H27.3766C27.615 125.123 27.8512 125.169 28.0716 125.26C28.2919 125.351 28.4922 125.484 28.6609 125.652C28.8296 125.82 28.9635 126.019 29.0548 126.239C29.1461 126.458 29.1931 126.694 29.1931 126.931C29.1931 127.169 29.1461 127.404 29.0548 127.624C28.9635 127.843 28.8296 128.043 28.6609 128.211C28.4922 128.379 28.2919 128.512 28.0716 128.603C27.8512 128.693 27.615 128.74 27.3766 128.74Z" fill="#F9A826"/>
<path d="M86.6881 92.8923C86.3929 92.8926 86.1006 92.8355 85.8273 92.7242L37.3501 72.6754V9.9193C37.3507 9.36437 37.5722 8.83235 37.9659 8.43995C38.3596 8.04755 38.8933 7.82682 39.4501 7.82617H132.45C133.007 7.82682 133.541 8.04755 133.934 8.43995C134.328 8.83235 134.549 9.36437 134.55 9.9193V72.7192L134.459 72.7581L87.5749 92.7144C87.2941 92.832 86.9926 92.8925 86.6881 92.8923Z" fill="white"/>
<path d="M86.688 93.0427C86.3733 93.043 86.0615 92.9822 85.7702 92.8637L37.2001 72.7763V9.92037C37.2007 9.32579 37.438 8.75576 37.8598 8.33533C38.2816 7.9149 38.8535 7.67841 39.4501 7.67773H132.45C133.047 7.67841 133.618 7.9149 134.04 8.33533C134.462 8.75576 134.699 9.32579 134.7 9.92037V72.819L87.6337 92.8529C87.3344 92.9784 87.0128 93.043 86.688 93.0427ZM37.8001 72.3769L85.999 92.3108C86.4485 92.4926 86.952 92.4896 87.3994 92.3024L134.1 72.4242V9.92037C134.1 9.48435 133.926 9.06634 133.616 8.75803C133.307 8.44972 132.888 8.27629 132.45 8.27577H39.4501C39.0126 8.27629 38.5933 8.44972 38.2839 8.75803C37.9746 9.06634 37.8006 9.48435 37.8001 9.92037L37.8001 72.3769Z" fill="#3F3D56"/>
<path d="M168.9 57.9121H168.84L134.4 72.57L87.2791 92.6251C87.0949 92.7023 86.8974 92.7426 86.6976 92.7436C86.4979 92.7446 86.2999 92.7064 86.1149 92.6311L37.5 72.5281L2.21396 57.936L2.16006 57.9121H2.1C1.54324 57.9127 1.00945 58.1334 0.615756 58.5259C0.222064 58.9183 0.000617775 59.4503 0 60.0052V150.907C0.000618568 151.462 0.222064 151.994 0.615756 152.386C1.00945 152.779 1.54324 152.999 2.1 153H168.9C169.457 152.999 169.991 152.779 170.384 152.386C170.778 151.994 170.999 151.462 171 150.907V60.0052C170.999 59.4503 170.778 58.9183 170.384 58.5259C169.991 58.1334 169.457 57.9127 168.9 57.9121ZM170.4 150.907C170.4 151.303 170.242 151.683 169.96 151.964C169.679 152.244 169.298 152.402 168.9 152.402H2.1C1.70222 152.402 1.32079 152.244 1.03952 151.964C0.758247 151.683 0.600159 151.303 0.6 150.907V60.0052C0.600544 59.6186 0.751008 59.2471 1.01993 58.9685C1.28886 58.6899 1.65543 58.5257 2.04302 58.5101L37.5 73.174L85.8841 93.1843C86.4078 93.3967 86.9947 93.3935 87.5161 93.1753L134.4 73.2188L168.96 58.5101C169.347 58.5268 169.713 58.6915 169.981 58.97C170.249 59.2484 170.399 59.6192 170.4 60.0052V150.907Z" fill="#3F3D56"/>
<path d="M86.2035 75.0966C84.4138 75.0999 82.6716 74.5231 81.2397 73.4532L81.1509 73.3867L62.4576 59.1213C61.5919 58.4602 60.8653 57.6355 60.3193 56.6945C59.7733 55.7535 59.4187 54.7145 59.2756 53.6368C59.1324 52.5591 59.2037 51.4639 59.4852 50.4137C59.7667 49.3635 60.253 48.3788 60.9164 47.5159C61.5797 46.6531 62.407 45.9288 63.3512 45.3847C64.2953 44.8405 65.3377 44.4869 66.4189 44.3443C67.5001 44.2016 68.5989 44.2726 69.6526 44.5532C70.7062 44.8339 71.6941 45.3186 72.5599 45.9797L84.668 55.2337L113.281 18.0398C113.945 17.1771 114.773 16.4532 115.717 15.9093C116.661 15.3654 117.704 15.0123 118.785 14.87C119.866 14.7278 120.965 14.7992 122.019 15.0802C123.072 15.3612 124.06 15.8463 124.925 16.5078L124.747 16.7485L124.93 16.5113C126.676 17.8486 127.818 19.8217 128.106 21.9974C128.394 24.1732 127.805 26.3741 126.467 28.1172L92.8108 71.8661C92.0324 72.8742 91.0314 73.6901 89.8856 74.2503C88.7397 74.8106 87.4798 75.1001 86.2035 75.0966Z" fill="#F9A826"/>
</svg>
