<svg width="16" height="20" viewBox="0 0 16 20" fill="none" xmlns="http://www.w3.org/2000/svg">
<path d="M15.1872 1.47368H10.9091V1.43158C10.9091 0.631579 10.2674 0 9.45455 0H6.54545C5.73262 0 5.09091 0.631579 5.09091 1.43158V1.47368H0.812834C0.363636 1.47368 0 1.83158 0 2.27368V3.07368C0 3.51579 0.363636 3.87368 0.812834 3.87368H15.1872C15.6364 3.87368 16 3.51579 16 3.07368V2.27368C16 1.83158 15.6364 1.47368 15.1872 1.47368Z" fill="#0E4870"/>
<path d="M14.1177 4.96826H1.88238C1.64708 4.96826 1.47596 5.15774 1.49735 5.38931L2.09628 17.5788C2.16045 18.9262 3.29414 19.9998 4.66313 19.9998H11.3155C12.6845 19.9998 13.8182 18.9472 13.8824 17.5788L14.4813 5.38931C14.5241 5.17879 14.3316 4.96826 14.1177 4.96826ZM6.67382 16.7367C6.67382 17.1156 6.37435 17.4104 5.98933 17.4104C5.6043 17.4104 5.30484 17.1156 5.30484 16.7367V8.25247C5.30484 7.87352 5.6043 7.57879 5.98933 7.57879C6.37435 7.57879 6.67382 7.87352 6.67382 8.25247V16.7367ZM10.6952 16.7367C10.6952 17.1156 10.3957 17.4104 10.0107 17.4104C9.62569 17.4104 9.32623 17.1156 9.32623 16.7367V8.25247C9.32623 7.87352 9.62569 7.57879 10.0107 7.57879C10.3957 7.57879 10.6952 7.87352 10.6952 8.25247V16.7367Z" fill="#0E4870"/>
</svg>
