<svg width="18" height="18" viewBox="0 0 18 18" fill="none" xmlns="http://www.w3.org/2000/svg">
<path d="M16.5 0.25H9C8.66858 0.250331 8.35083 0.382133 8.11648 0.616482C7.88213 0.850831 7.75033 1.16858 7.75 1.5V7.75H1.5C1.16858 7.75033 0.850831 7.88213 0.616482 8.11648C0.382133 8.35083 0.250331 8.66858 0.25 9V17.75H17.75V1.5C17.7497 1.16858 17.6179 0.850831 17.3835 0.616482C17.1492 0.382133 16.8314 0.250331 16.5 0.25ZM4.625 16.5V12.125H7.125V16.5H4.625ZM16.5 16.5H8.375V11.5C8.375 11.3342 8.30915 11.1753 8.19194 11.0581C8.07473 10.9408 7.91576 10.875 7.75 10.875H4C3.83424 10.875 3.67527 10.9408 3.55806 11.0581C3.44085 11.1753 3.375 11.3342 3.375 11.5V16.5H1.5V9H9V1.5H16.5V16.5Z" fill="black"/>
<path d="M10.25 4H11.5V5.25H10.25V4Z" fill="black"/>
<path d="M14 4H15.25V5.25H14V4Z" fill="black"/>
<path d="M10.25 7.75H11.5V9H10.25V7.75Z" fill="black"/>
<path d="M14 7.75H15.25V9H14V7.75Z" fill="black"/>
<path d="M10.25 11.5H11.5V12.75H10.25V11.5Z" fill="black"/>
<path d="M14 11.5H15.25V12.75H14V11.5Z" fill="black"/>
</svg>
