<svg width="20" height="18" viewBox="0 0 20 18" fill="none" xmlns="http://www.w3.org/2000/svg">
<path d="M14.1666 16.6011V14.9344C14.1666 14.0504 13.8155 13.2025 13.1903 12.5774C12.5652 11.9523 11.7174 11.6011 10.8333 11.6011H4.16665C3.28259 11.6011 2.43474 11.9523 1.80962 12.5774C1.1845 13.2025 0.833313 14.0504 0.833313 14.9344V16.6011" stroke="#072C2A" stroke-width="2" stroke-linecap="round" stroke-linejoin="round"/>
<path d="M7.50002 8.26774C9.34097 8.26774 10.8334 6.77536 10.8334 4.93441C10.8334 3.09346 9.34097 1.60107 7.50002 1.60107C5.65907 1.60107 4.16669 3.09346 4.16669 4.93441C4.16669 6.77536 5.65907 8.26774 7.50002 8.26774Z" stroke="#072C2A" stroke-width="2" stroke-linecap="round" stroke-linejoin="round"/>
<path d="M19.1667 16.6011V14.9345C19.1661 14.1959 18.9203 13.4784 18.4678 12.8947C18.0153 12.311 17.3818 11.8941 16.6667 11.7095" stroke="#072C2A" stroke-width="2" stroke-linecap="round" stroke-linejoin="round"/>
<path d="M13.3333 1.70947C14.0503 1.89306 14.6858 2.31006 15.1397 2.89473C15.5935 3.47941 15.8398 4.1985 15.8398 4.93864C15.8398 5.67878 15.5935 6.39787 15.1397 6.98255C14.6858 7.56722 14.0503 7.98422 13.3333 8.16781" stroke="#072C2A" stroke-width="2" stroke-linecap="round" stroke-linejoin="round"/>
</svg>
