<svg width="16" height="18" viewBox="0 0 16 18" fill="none" xmlns="http://www.w3.org/2000/svg">
<path d="M7.8125 0C4.80156 0 2.34375 2.45781 2.34375 5.46875C2.34375 7.35156 3.30469 9.025 4.76094 10.0102C1.97422 11.2055 0 13.9688 0 17.1875H1.5625C1.5625 13.7266 4.35156 10.9375 7.8125 10.9375C11.2734 10.9375 14.0625 13.7266 14.0625 17.1875H15.625C15.625 13.9688 13.6508 11.2047 10.8641 10.0094C11.6075 9.50784 12.2166 8.83164 12.638 8.04003C13.0594 7.24842 13.2803 6.36554 13.2812 5.46875C13.2812 2.45781 10.8234 0 7.8125 0ZM7.8125 1.5625C9.97891 1.5625 11.7188 3.30234 11.7188 5.46875C11.7188 7.63516 9.97891 9.375 7.8125 9.375C5.64609 9.375 3.90625 7.63516 3.90625 5.46875C3.90625 3.30234 5.64609 1.5625 7.8125 1.5625Z" fill="black"/>
</svg>
