<svg width="87" height="87" viewBox="0 0 87 87" fill="none" xmlns="http://www.w3.org/2000/svg">
<path d="M43.5 87C67.5244 87 87 67.5244 87 43.5C87 19.4756 67.5244 0 43.5 0C19.4756 0 0 19.4756 0 43.5C0 67.5244 19.4756 87 43.5 87Z" fill="#CD541F"/>
<path d="M39.8764 34.705C45.4624 34.705 49.9907 30.1767 49.9907 24.5908C49.9907 19.0049 45.4624 14.4766 39.8764 14.4766C34.2905 14.4766 29.7622 19.0049 29.7622 24.5908C29.7622 30.1767 34.2905 34.705 39.8764 34.705Z" fill="white"/>
<path d="M39.6128 58.5922L53.931 58.645C54.9864 58.645 56.0418 58.258 56.763 57.4841C57.2555 56.9739 57.6249 56.2879 57.537 55.426L57.6073 39.8589C57.6073 39.8589 55.8131 35.4614 52.5766 39.8237L52.4007 40.0172C52.4007 40.0172 53.0339 37.3084 51.9082 36.4992C51.9082 36.4992 49.6391 33.6672 47.2644 37.3787C47.2644 37.3787 47.8449 33.4386 45.6637 33.034C45.6637 33.034 43.5353 32.0138 42.093 34.9513C42.093 34.9513 42.304 28.056 42.093 27.4404C42.093 27.4404 42.7086 22.4976 39.7711 22.5504C39.7711 22.5504 36.0244 21.882 37.1502 29.6216L37.0974 41.6003C37.0974 41.6003 37.1678 43.9926 35.5671 42.7437L33.1573 38.4869C33.1573 38.4869 31.2399 37.4843 30.0614 38.311C28.8829 39.1201 29.6041 40.7208 29.7976 41.2309C29.7976 41.2309 34.9866 52.8755 37.1854 57.0971C37.6427 58.0118 38.575 58.5922 39.6128 58.5922Z" fill="white"/>
</svg>
