<svg width="448" height="582" viewBox="0 0 448 582" fill="none" xmlns="http://www.w3.org/2000/svg">
<g clip-path="url(#clip0)">
<path d="M132.129 218.428L7.08061 191.428L5.45549 191.078C4.6279 190.898 3.7664 190.955 2.97003 191.244C2.17366 191.532 1.47478 192.039 0.953747 192.708C0.432716 193.376 0.110685 194.178 0.0247101 195.021C-0.0612648 195.864 0.0923146 196.715 0.46775 197.475L50.1172 298.398C50.4385 299.046 50.9108 299.608 51.4943 300.035C52.0777 300.463 52.7552 300.744 53.4698 300.855C54.1866 300.966 54.9198 300.902 55.606 300.666C56.2923 300.431 56.9109 300.031 57.4085 299.503L91.8938 263.106C92.1391 262.841 92.4367 262.629 92.7678 262.484C93.0988 262.34 93.4562 262.265 93.8175 262.265C94.3085 262.258 94.7922 262.385 95.2167 262.632C95.6413 262.879 95.9907 263.237 96.2276 263.668L103.291 276.746C103.742 277.618 104.472 278.314 105.363 278.723C106.255 279.132 107.258 279.23 108.212 279.003L108.247 278.995C109.213 278.79 110.082 278.266 110.715 277.508C111.347 276.749 111.706 275.799 111.734 274.811L113.149 244.623C113.166 244.247 113.26 243.877 113.425 243.539C113.603 243.203 113.844 242.906 114.135 242.662L134.029 226.315C134.683 225.778 135.173 225.067 135.442 224.264C135.711 223.461 135.748 222.599 135.55 221.776C135.351 220.952 134.925 220.202 134.32 219.61C133.715 219.018 132.956 218.608 132.129 218.428H132.129ZM132.893 224.926L112.998 241.273C112.739 241.482 112.504 241.719 112.298 241.981L6.8546 194.115C6.7616 194.071 6.66459 194.037 6.56494 194.013C6.15823 193.908 5.72767 193.949 5.34772 194.128C4.96778 194.307 4.66234 194.613 4.48423 194.994C4.30613 195.375 4.26656 195.806 4.37236 196.213C4.47816 196.62 4.72268 196.977 5.06364 197.222L91.7618 260.969C91.3218 261.198 90.9246 261.501 90.5876 261.865L56.1027 298.261C55.8034 298.577 55.4326 298.815 55.0217 298.956C54.6108 299.097 54.1719 299.137 53.7424 299.071C53.313 299.006 52.9055 298.838 52.5547 298.582C52.2039 298.326 51.9202 297.988 51.7276 297.598L2.0781 196.676C1.85615 196.22 1.7666 195.71 1.81968 195.206C1.87276 194.701 2.06633 194.222 2.37833 193.822C2.69034 193.423 3.10823 193.119 3.5844 192.945C4.06057 192.772 4.57588 192.735 5.0716 192.841L6.73531 193.201L131.745 220.192C132.242 220.299 132.698 220.545 133.061 220.9C133.425 221.254 133.681 221.705 133.801 222.199C133.921 222.693 133.899 223.21 133.739 223.693C133.578 224.175 133.285 224.602 132.893 224.926Z" fill="#FAB955"/>
<path d="M158.785 578.453C147.568 575.421 133.917 562.808 136.84 545.472C138.289 536.875 143.852 531.309 149.62 527.71C157.599 522.732 166.686 520.857 175.443 520.383C185.543 519.836 195.632 521.214 205.657 522.672C215.554 524.111 225.451 525.399 235.392 526.186C274.291 529.24 313.428 526.331 351.45 517.56C360.834 515.392 370.162 512.849 379.434 509.931C388.22 507.343 396.81 504.129 405.138 500.315C416.161 495.018 434.088 484.71 432.626 465.619C431.851 455.497 425.896 447.412 419.889 441.78C412.625 434.969 404.221 430.489 395.989 426.137C357.701 405.898 319.337 385.898 281.011 365.781C272.066 361.085 263.062 356.516 254.381 351.014C246.253 345.862 238.164 339.878 231.623 331.604C225.91 324.377 220.805 314.676 220.985 303.831C221.135 294.837 225.224 287.205 230.232 281.501C242.63 267.378 260.17 261.653 276.021 258.653C295.716 254.927 315.695 254.946 335.402 251.348C351.315 248.443 368.317 242.834 381.258 229.691C386.733 224.346 390.605 217.574 392.437 210.142C394.089 202.357 393.286 194.251 390.138 186.943C386.633 178.562 381.041 171.886 375.161 166.418C368.407 160.226 360.746 155.103 352.445 151.228C334.967 142.891 316.587 138.55 298.684 132.152C289.903 129.015 281.034 125.574 272.881 120.185C265.974 115.619 258.45 109.464 254.607 100.312C246.678 81.4289 265.593 70.1748 276.312 65.9119C283.597 63.1462 291.1 60.9961 298.744 59.484C300.36 59.1366 299.674 55.9075 298.066 56.2532C290.02 57.8233 282.135 60.1279 274.509 63.1382C268.046 65.8262 261.377 69.3587 256.3 75.4374C253.989 78.182 252.28 81.3824 251.284 84.831C250.288 88.2795 250.028 91.8991 250.521 95.4548C251.866 104.515 257.711 111.496 263.201 116.553C270.461 123.24 278.738 127.607 287.13 131.167C295.969 134.916 304.995 137.838 314.019 140.704C332.049 146.43 350.889 151.534 367.165 163.72C378.551 172.245 394.019 188.229 390.232 208.04C388.55 216.835 383.445 223.711 377.935 228.768C371.465 234.532 364.004 239.073 355.914 242.171C319.845 256.7 280.148 246.31 245.009 266.044C233.061 272.754 218.549 284.971 218.432 304.192C218.371 314.178 222.37 323.336 227.314 330.574C233.235 339.244 240.902 345.655 248.703 351.013C256.917 356.449 265.447 361.391 274.246 365.816C283.858 370.869 293.472 375.916 303.089 380.956L361.447 411.589L390.442 426.809C399.292 431.454 408.368 435.91 416.415 442.729C423.003 448.313 430.787 457.472 430.114 468.846C429.581 477.879 423.586 484.397 418.108 488.756C411.014 494.399 403.046 498.049 395.118 501.082C385.973 504.581 376.678 507.483 367.365 510.092C348.288 515.429 328.819 519.243 309.139 521.499C289.509 523.762 269.733 524.5 249.989 523.706C240.013 523.305 230.052 522.506 220.107 521.31C209.856 520.074 199.649 518.17 189.371 517.326C180.075 516.562 170.689 516.739 161.534 519.194C153.89 521.245 145.814 524.9 140.011 532.031C135.734 537.476 133.593 544.297 133.989 551.212C134.382 558.112 136.84 564.735 141.043 570.218C145.313 575.819 151.312 579.85 158.107 581.684C159.709 582.117 160.395 578.888 158.785 578.453L158.785 578.453Z" fill="#E6E6E6"/>
<path d="M448 579.983H156.559V582H448V579.983Z" fill="#3F3D56"/>
<path d="M424.65 484.955C435.165 484.955 443.689 476.422 443.689 465.897C443.689 455.372 435.165 446.84 424.65 446.84C414.135 446.84 405.611 455.372 405.611 465.897C405.611 476.422 414.135 484.955 424.65 484.955Z" fill="#E6E6E6"/>
<path d="M389.915 216.352C400.43 216.352 408.954 207.82 408.954 197.295C408.954 186.77 400.43 178.238 389.915 178.238C379.4 178.238 370.876 186.77 370.876 197.295C370.876 207.82 379.4 216.352 389.915 216.352Z" fill="#E6E6E6"/>
<path d="M346.869 0.7972L294.004 23.8009C291.669 24.82 289.834 26.7246 288.9 29.0967C287.966 31.4688 288.011 34.1148 289.024 36.4542L305.439 74.2511C306.457 76.5882 308.36 78.4255 310.73 79.3602C313.1 80.2948 315.743 80.2503 318.08 79.2364L370.945 56.2327C373.28 55.2136 375.116 53.3091 376.05 50.9369C376.983 48.5648 376.939 45.9188 375.926 43.5794L359.511 5.78254C358.492 3.44547 356.59 1.60807 354.22 0.673462C351.85 -0.261146 349.206 -0.216644 346.869 0.7972ZM349.058 5.83679C349.374 5.7007 349.706 5.60501 350.046 5.55197L332.173 39.3055L295.464 29.2501C295.692 29.0892 295.937 28.9519 296.193 28.8405L349.058 5.83679ZM368.757 51.1931L315.892 74.1968C314.89 74.6313 313.757 74.6504 312.741 74.2498C311.726 73.8493 310.91 73.0618 310.474 72.0602L294.206 34.6027L332.845 45.1868C333.446 45.3515 334.086 45.3063 334.659 45.0584C335.231 44.8106 335.702 44.375 335.995 43.8233L354.702 8.49389L370.891 45.7702C371.325 46.7728 371.344 47.9068 370.944 48.9235C370.544 49.9401 369.757 50.7563 368.757 51.1931Z" fill="#E6E6E6"/>
<path d="M287.575 328.654C314.16 328.654 335.711 307.082 335.711 280.472C335.711 253.861 314.16 232.289 287.575 232.289C260.99 232.289 239.438 253.861 239.438 280.472C239.438 307.082 260.99 328.654 287.575 328.654Z" fill="#FAB955"/>
<path d="M279.99 580.576H266.715C265.165 580.574 263.679 579.957 262.583 578.86C261.487 577.763 260.87 576.276 260.868 574.724V463.977C260.87 462.426 261.487 460.938 262.583 459.841C263.679 458.744 265.165 458.127 266.715 458.125H279.99C281.54 458.127 283.026 458.744 284.122 459.841C285.218 460.938 285.834 462.426 285.836 463.977V574.724C285.834 576.276 285.218 577.763 284.122 578.86C283.026 579.957 281.54 580.574 279.99 580.576Z" fill="#0E4870"/>
<path d="M306.246 580.576H292.971C291.421 580.574 289.935 579.957 288.839 578.86C287.743 577.763 287.126 576.276 287.125 574.724V463.977C287.126 462.426 287.743 460.938 288.839 459.841C289.935 458.744 291.421 458.127 292.971 458.125H306.246C307.796 458.127 309.282 458.744 310.378 459.841C311.474 460.938 312.09 462.426 312.092 463.977V574.724C312.09 576.276 311.474 577.763 310.378 578.86C309.282 579.957 307.796 580.574 306.246 580.576Z" fill="#0E4870"/>
<path d="M361.257 455.761C360.674 455.761 360.094 455.673 359.537 455.502C358.802 455.278 358.119 454.911 357.526 454.422C356.934 453.932 356.445 453.33 356.087 452.65L304.222 354.824C303.862 354.145 303.639 353.402 303.566 352.637C303.493 351.872 303.571 351.101 303.796 350.366C304.021 349.631 304.389 348.948 304.877 348.356C305.366 347.763 305.967 347.273 306.645 346.912L318.371 340.683C319.049 340.323 319.791 340.1 320.556 340.027C321.32 339.953 322.091 340.032 322.825 340.257C323.559 340.482 324.242 340.85 324.834 341.339C325.426 341.829 325.916 342.43 326.276 343.109L378.14 440.935C378.5 441.613 378.723 442.356 378.796 443.121C378.869 443.886 378.791 444.658 378.566 445.393C378.341 446.128 377.973 446.811 377.485 447.404C376.996 447.996 376.395 448.486 375.717 448.846L363.991 455.075C363.15 455.525 362.211 455.761 361.257 455.761Z" fill="#FAB955"/>
<path d="M253.288 362.227C252.587 362.227 251.891 362.1 251.235 361.852H251.234L147.731 322.713C147.013 322.442 146.355 322.031 145.796 321.505C145.237 320.979 144.787 320.347 144.471 319.647C144.156 318.946 143.982 318.191 143.958 317.423C143.935 316.655 144.063 315.89 144.335 315.172L149.018 302.741C149.57 301.291 150.674 300.119 152.088 299.482C153.501 298.845 155.109 298.794 156.56 299.34L260.061 338.47C261.509 339.021 262.68 340.124 263.318 341.537C263.956 342.949 264.009 344.558 263.467 346.01L258.775 358.442C258.352 359.555 257.6 360.513 256.62 361.189C255.64 361.865 254.478 362.227 253.288 362.227Z" fill="#FAB955"/>
<path d="M317.186 337.025H256.869C253.888 337.025 251.472 339.443 251.472 342.426V470.695C251.472 473.678 253.888 476.096 256.869 476.096H317.186C320.166 476.096 322.582 473.678 322.582 470.695V342.426C322.582 339.443 320.166 337.025 317.186 337.025Z" fill="#0E4870"/>
<path d="M323.129 233.287C325.957 239.5 328.665 247.008 325.621 253.654C324.504 256.338 322.408 258.497 319.76 259.693C316.622 260.945 313.202 260.23 310.295 258.716C304.173 255.527 300.227 249.602 294.762 245.542C292.273 243.603 289.331 242.333 286.214 241.855C282.622 241.386 279.057 242.234 275.544 242.889C271.808 243.585 267.947 243.952 264.489 242.056C261.447 240.276 259.066 237.554 257.707 234.3C256.995 232.718 254.669 234.09 255.377 235.663C258.317 242.196 264.397 246.648 271.703 246.133C275.569 245.861 279.303 244.611 283.175 244.432C286.708 244.315 290.172 245.424 292.982 247.57C298.983 251.852 303.055 258.428 309.94 261.538C313.188 263.005 316.908 263.616 320.332 262.353C323.286 261.203 325.747 259.058 327.291 256.287C331.809 248.5 328.908 239.499 325.459 231.924C324.74 230.344 322.414 231.715 323.129 233.287Z" fill="#2F2E41"/>
<path d="M292.896 296.559C289.923 296.476 286.222 296.372 283.371 294.287C282.523 293.641 281.825 292.817 281.328 291.873C280.831 290.929 280.546 289.887 280.493 288.821C280.441 288.063 280.566 287.304 280.856 286.602C281.146 285.9 281.595 285.275 282.166 284.776C283.654 283.516 285.828 283.22 288.173 283.911L285.745 266.152L287.528 265.907L290.381 286.784L288.894 286.101C287.169 285.309 284.8 284.905 283.327 286.151C282.966 286.476 282.685 286.881 282.505 287.333C282.325 287.785 282.252 288.272 282.291 288.757C282.335 289.551 282.549 290.325 282.918 291.029C283.288 291.732 283.804 292.348 284.432 292.833C286.651 294.455 289.601 294.666 292.947 294.759L292.896 296.559Z" fill="#2F2E41"/>
<path d="M276.932 267.683H267.243V269.484H276.932V267.683Z" fill="#2F2E41"/>
<path d="M307.512 267.683H297.823V269.484H307.512V267.683Z" fill="#2F2E41"/>
<path d="M251.392 361.431L208.856 348.448C207.529 348.043 206.409 347.142 205.728 345.933C205.047 344.723 204.858 343.298 205.199 341.952L210.165 322.367C210.361 321.594 210.726 320.873 211.234 320.258C211.741 319.642 212.379 319.147 213.1 318.807C213.822 318.468 214.61 318.293 215.407 318.294C216.205 318.296 216.992 318.475 217.712 318.818L259.902 338.891C261.239 339.399 262.321 340.417 262.91 341.721C263.499 343.025 263.548 344.51 263.046 345.85L258.354 358.283C257.847 359.624 256.829 360.708 255.524 361.299C254.218 361.889 252.733 361.936 251.392 361.431Z" fill="#0E4870"/>
<path d="M303.629 351.166L321.871 391.761C322.44 393.027 323.474 394.025 324.759 394.548C326.044 395.072 327.48 395.08 328.771 394.571L347.552 387.165C348.294 386.872 348.962 386.419 349.508 385.837C350.054 385.255 350.464 384.559 350.71 383.8C350.955 383.04 351.029 382.236 350.926 381.444C350.824 380.653 350.547 379.894 350.117 379.222L324.891 339.867C324.218 338.604 323.073 337.659 321.706 337.238C320.339 336.818 318.861 336.957 317.596 337.625L305.868 343.855C304.603 344.529 303.657 345.676 303.238 347.047C302.818 348.417 302.958 349.899 303.629 351.166Z" fill="#0E4870"/>
<path d="M132.129 218.428L7.08061 191.428L5.45549 191.078C4.6279 190.898 3.7664 190.955 2.97003 191.244C2.17366 191.532 1.47478 192.039 0.953747 192.708C0.432716 193.376 0.110685 194.178 0.0247101 195.021C-0.0612648 195.864 0.0923146 196.715 0.46775 197.475L50.1172 298.398C50.4385 299.046 50.9108 299.608 51.4943 300.035C52.0777 300.463 52.7552 300.744 53.4698 300.855C54.1866 300.966 54.9198 300.902 55.606 300.666C56.2923 300.431 56.9109 300.031 57.4085 299.503L91.8938 263.106C92.1391 262.841 92.4367 262.629 92.7678 262.484C93.0988 262.34 93.4562 262.265 93.8175 262.265C94.3085 262.258 94.7922 262.385 95.2167 262.632C95.6413 262.879 95.9907 263.237 96.2276 263.668L103.291 276.746C103.742 277.618 104.472 278.314 105.363 278.723C106.255 279.132 107.258 279.23 108.212 279.003L108.247 278.995C109.213 278.79 110.082 278.266 110.715 277.508C111.347 276.749 111.706 275.799 111.734 274.811L113.149 244.623C113.166 244.247 113.26 243.877 113.425 243.539C113.603 243.203 113.844 242.906 114.135 242.662L134.029 226.315C134.683 225.778 135.173 225.067 135.442 224.264C135.711 223.461 135.748 222.599 135.55 221.776C135.351 220.952 134.925 220.202 134.32 219.61C133.715 219.018 132.956 218.608 132.129 218.428H132.129ZM132.893 224.926L112.998 241.273C112.739 241.482 112.504 241.719 112.298 241.981C112.112 242.214 111.952 242.466 111.819 242.732C111.68 243.005 111.571 243.292 111.493 243.588L111.495 243.597C111.413 243.906 111.365 244.222 111.353 244.541L109.939 274.729C109.927 275.323 109.714 275.895 109.334 276.351C108.954 276.807 108.431 277.12 107.85 277.239L107.832 277.243C107.259 277.385 106.656 277.33 106.118 277.086C105.581 276.841 105.142 276.423 104.872 275.898L97.8068 262.811C97.4427 262.138 96.9129 261.569 96.2676 261.158C95.6222 260.748 94.8828 260.509 94.1194 260.465L94.1108 260.467C94.0081 260.462 93.9057 260.457 93.8054 260.461C93.0931 260.461 92.3916 260.636 91.7618 260.969C91.3219 261.198 90.9247 261.501 90.5876 261.865L56.1027 298.261C55.8034 298.577 55.4326 298.815 55.0217 298.956C54.6108 299.097 54.1719 299.137 53.7424 299.071C53.313 299.006 52.9055 298.838 52.5547 298.582C52.204 298.326 51.9202 297.988 51.7276 297.598L2.0781 196.676C1.85615 196.22 1.7666 195.71 1.81968 195.206C1.87276 194.701 2.06633 194.222 2.37833 193.822C2.69034 193.423 3.10823 193.119 3.5844 192.945C4.06057 192.772 4.57588 192.735 5.0716 192.841L6.73531 193.201L131.745 220.192C132.242 220.299 132.698 220.545 133.061 220.9C133.425 221.254 133.681 221.705 133.801 222.199C133.921 222.693 133.899 223.21 133.739 223.693C133.578 224.175 133.285 224.602 132.893 224.926Z" fill="#3F3D56"/>
<path d="M112.697 242.16L111.954 243.8L111.495 243.597L111.493 243.588L6.13271 195.768L94.1105 260.467L94.1191 260.465L94.352 260.644L93.2912 262.096L91.7615 260.969L5.06333 197.222C4.72238 196.977 4.47785 196.62 4.37205 196.213C4.26625 195.806 4.30582 195.375 4.48393 194.994C4.66203 194.613 4.96748 194.307 5.34742 194.128C5.72736 193.949 6.15792 193.908 6.56463 194.013C6.66428 194.037 6.76129 194.071 6.85429 194.115L112.298 241.981L112.697 242.16Z" fill="#3F3D56"/>
</g>
<defs>
<clipPath id="clip0">
<rect width="448" height="582" fill="white"/>
</clipPath>
</defs>
</svg>
