<svg width="155" height="55" viewBox="0 0 155 55" fill="none" xmlns="http://www.w3.org/2000/svg">
<path d="M49.006 0.456543H0.276855V49.3635H49.006V0.456543Z" fill="#FF8300"/>
<path d="M19.3891 44.6303C18.7283 45.0778 17.947 45.3132 17.1492 45.305C15.8762 45.305 15.1348 44.4642 15.1348 43.3302C15.1348 41.8122 16.5244 40.9948 19.4021 40.6834V40.3019C19.4021 39.8089 19.0287 39.5235 18.3443 39.5235C18.026 39.5127 17.7096 39.5776 17.4211 39.7129C17.1327 39.8482 16.8805 40.0501 16.6851 40.3019L15.477 39.6091C16.1121 38.7294 17.0792 38.2831 18.3702 38.2831C20.1383 38.2831 21.1339 39.046 21.1339 40.3019C21.1339 40.3019 21.1339 45.2194 21.1339 45.2323H19.5498L19.3891 44.6303ZM16.8951 43.2005C16.8858 43.3128 16.8998 43.4259 16.9361 43.5326C16.9725 43.6393 17.0304 43.7374 17.1063 43.8207C17.1822 43.9039 17.2745 43.9707 17.3773 44.0167C17.4801 44.0626 17.5913 44.0869 17.704 44.088C18.3239 44.0616 18.9122 43.8065 19.3554 43.3718V41.7629C17.6728 41.9679 16.8951 42.3935 16.8951 43.2005Z" fill="white"/>
<path d="M22.5361 38.6102L24.0217 38.4052L24.1798 39.2096C25.0094 38.5972 25.6757 38.2728 26.5131 38.2728C27.913 38.2728 28.6338 39.0098 28.6338 40.4837V45.2195H26.8449V40.8081C26.8449 39.9725 26.6271 39.5988 25.9842 39.5988C25.4501 39.5988 24.9187 39.8454 24.3172 40.354V45.2299H22.5439L22.5361 38.6102Z" fill="white"/>
<path d="M40.4375 45.3493C38.4387 45.3493 37.2461 44.0699 37.2461 41.8253C37.2461 39.5807 38.4542 38.2728 40.4168 38.2728C42.3793 38.2728 43.5278 39.5236 43.5278 41.7319C43.5278 41.8513 43.507 41.968 43.507 42.0874H38.996C39.0142 43.3849 39.5431 44.0206 40.5905 44.0206C41.2671 44.0206 41.713 43.7611 42.133 43.1513L43.4293 43.8779C42.8693 44.8432 41.8349 45.3493 40.4375 45.3493ZM41.7752 40.9378C41.7752 40.027 41.2567 39.4899 40.4168 39.4899C39.5768 39.4899 39.0997 40.0088 39.0272 40.9378H41.7752Z" fill="white"/>
<path d="M6.27849 45.4244C4.50779 45.4244 2.9082 44.2982 2.9082 41.8382C2.9082 39.3782 4.49742 38.2494 6.27849 38.2494C8.05955 38.2494 9.63581 39.373 9.63581 41.8382C9.63581 44.3034 8.03622 45.4244 6.27849 45.4244ZM6.27849 39.7571C4.94074 39.7571 4.68927 40.9637 4.68927 41.833C4.68927 42.7023 4.94852 43.909 6.27849 43.909C7.60845 43.909 7.84956 42.7101 7.84956 41.833C7.84956 40.9559 7.60586 39.7571 6.27849 39.7571Z" fill="white"/>
<path d="M10.8517 38.4415H12.5472V39.22C12.7784 38.9438 13.0639 38.7181 13.3859 38.5569C13.7079 38.3958 14.0595 38.3026 14.419 38.2832C14.4933 38.278 14.5678 38.278 14.642 38.2832V39.9596H14.5616C13.7839 39.9596 12.9413 40.0789 12.6639 40.6861V45.2065H10.8491L10.8517 38.4415Z" fill="white"/>
<path d="M32.9895 43.7688C34.3454 43.7688 34.4594 42.3753 34.4594 41.4723C34.4594 40.4109 33.9409 39.5442 32.9791 39.5442C32.3387 39.5442 31.6232 40.0191 31.6232 41.5475C31.6232 42.3883 31.6725 43.774 32.9895 43.7688ZM36.1705 38.4024V44.8431C36.1705 45.9849 36.0849 47.8506 32.8521 47.8714C31.5221 47.8714 30.288 47.3524 30.0392 46.1769L31.7995 45.8889C31.8773 46.2262 32.0795 46.561 33.0802 46.561C33.998 46.561 34.4439 46.1146 34.4439 45.0481V44.2696L34.4205 44.2411C34.1328 44.7601 33.7076 45.2297 32.668 45.2297C31.0917 45.2297 29.8447 44.1347 29.8447 41.833C29.8447 39.5312 31.141 38.2857 32.5721 38.2831C33.9228 38.2831 34.4257 38.9033 34.5424 39.225H34.5242L34.6694 38.4102L36.1705 38.4024Z" fill="white"/>
<path d="M44.2303 36.145H43.5329V38.0938H43.157V36.145H42.457V35.8466H44.2303V36.145ZM47.1599 38.0938H46.784V36.2176L46.0451 38.0938H45.8118L45.0755 36.2176V38.0938H44.7099V35.8466H45.2751L45.9466 37.554L46.5999 35.8466H47.178L47.1599 38.0938Z" fill="white"/>
<path d="M61.8833 32.9609H73.4123V35.9944H65.4869V39.7856H72.3493V42.5934H65.4869V49.3662H61.8833V32.9609Z" fill="white"/>
<path d="M86.2811 49.3662H83.183V47.7106H83.113C82.7408 48.3628 82.1806 48.8874 81.5057 49.2157C80.8766 49.523 80.1861 49.6836 79.4861 49.6854C78.7549 49.7108 78.026 49.5899 77.3421 49.3299C76.8226 49.1241 76.3672 48.7838 76.0225 48.3438C75.6844 47.8869 75.4524 47.3603 75.3432 46.8024C75.2081 46.1416 75.1429 45.4684 75.1488 44.7939V37.4891H78.4076V44.1971C78.4076 45.1745 78.5606 45.9054 78.8665 46.3898C79.1724 46.8742 79.716 47.1155 80.4972 47.1138C81.3838 47.1138 82.0268 46.8491 82.426 46.3197C82.8253 45.7904 83.024 44.9254 83.0223 43.7248V37.4969H86.2811V49.3662Z" fill="white"/>
<path d="M88.7598 37.4892H91.8578V39.1422H91.9278C92.2998 38.4907 92.8589 37.9662 93.5326 37.6371C94.1619 37.33 94.8521 37.1686 95.5522 37.1648C96.2844 37.1399 97.0142 37.2617 97.6988 37.5229C98.2179 37.7293 98.6731 38.0695 99.0184 38.509C99.3556 38.9661 99.5867 39.4926 99.695 40.0504C99.8324 40.7109 99.8985 41.3842 99.8921 42.0589V49.3662H96.6333V42.6557C96.6333 41.6774 96.4777 40.9456 96.1744 40.463C95.8711 39.9803 95.324 39.739 94.5437 39.739C93.657 39.739 93.0141 40.0037 92.6149 40.533C92.2156 41.0624 92.0168 41.9274 92.0186 43.128V49.3559H88.7598V37.4892Z" fill="white"/>
<path d="M110.841 47.8482H110.794C110.447 48.4579 109.923 48.9469 109.29 49.2495C108.631 49.5485 107.914 49.6974 107.19 49.6854C106.375 49.7085 105.566 49.5303 104.836 49.1664C104.186 48.8264 103.621 48.3428 103.185 47.7522C102.733 47.1357 102.396 46.4431 102.189 45.7074C101.967 44.9303 101.855 44.1257 101.857 43.3174C101.856 42.5356 101.968 41.7576 102.189 41.0079C102.396 40.2983 102.731 39.6325 103.177 39.0436C103.639 38.4417 104.236 37.9578 104.921 37.6312C105.605 37.3047 106.357 37.1449 107.115 37.1648C107.81 37.1629 108.496 37.3163 109.124 37.6137C109.743 37.8986 110.265 38.3575 110.628 38.9346H110.675V32.9662H113.933V49.3663H110.822L110.841 47.8482ZM110.794 43.3927C110.794 42.9222 110.748 42.4529 110.657 41.9914C110.576 41.5631 110.416 41.1538 110.185 40.7848C109.964 40.4406 109.666 40.1534 109.314 39.9466C108.911 39.7211 108.455 39.6098 107.994 39.6248C107.521 39.6088 107.053 39.7199 106.638 39.9466C106.279 40.1532 105.977 40.4445 105.757 40.7951C105.525 41.1697 105.361 41.5827 105.274 42.0148C105.174 42.475 105.123 42.9449 105.124 43.416C105.125 43.88 105.179 44.3423 105.285 44.794C105.383 45.2308 105.559 45.6465 105.803 46.0214C106.035 46.3751 106.341 46.6737 106.7 46.8959C107.093 47.126 107.542 47.2411 107.997 47.228C108.465 47.2442 108.929 47.133 109.34 46.9062C109.694 46.6963 109.99 46.3999 110.2 46.0447C110.421 45.6643 110.576 45.2494 110.659 44.8173C110.75 44.348 110.796 43.8708 110.794 43.3927Z" fill="white"/>
<path d="M116.256 41.1403C116.278 40.4694 116.475 39.8161 116.829 39.246C117.159 38.7401 117.603 38.3188 118.125 38.0159C118.666 37.7021 119.256 37.481 119.87 37.362C120.52 37.2307 121.181 37.1646 121.843 37.1648C122.45 37.1664 123.056 37.2089 123.658 37.292C124.239 37.3676 124.804 37.5349 125.333 37.7876C125.826 38.0235 126.253 38.3805 126.572 38.8256C126.912 39.3337 127.081 39.9375 127.054 40.5486V46.7272C127.053 47.2423 127.083 47.7571 127.145 48.2686C127.175 48.6545 127.284 49.0299 127.466 49.3714H124.15C124.09 49.187 124.04 48.9989 124.003 48.8083C123.964 48.6147 123.937 48.4188 123.922 48.2219C123.416 48.7498 122.785 49.1408 122.087 49.3585C121.388 49.5799 120.66 49.6919 119.927 49.6906C119.391 49.6948 118.858 49.6214 118.343 49.4726C117.877 49.3391 117.442 49.117 117.06 48.8187C116.689 48.525 116.394 48.1469 116.199 47.7159C115.98 47.2166 115.874 46.6753 115.888 46.1304C115.867 45.5542 115.989 44.9818 116.243 44.4644C116.464 44.0506 116.779 43.695 117.164 43.4264C117.558 43.1557 117.996 42.9571 118.46 42.84C118.941 42.7106 119.428 42.6067 119.919 42.5286C120.407 42.4542 120.888 42.3928 121.363 42.3443C121.789 42.3076 122.211 42.239 122.626 42.1393C122.943 42.0706 123.241 41.9333 123.5 41.7371C123.609 41.6413 123.693 41.5203 123.745 41.3847C123.797 41.2491 123.815 41.1029 123.798 40.9586C123.809 40.6734 123.75 40.3897 123.624 40.1334C123.52 39.9291 123.361 39.7576 123.165 39.6378C122.961 39.518 122.734 39.4403 122.499 39.4094C122.229 39.3697 121.957 39.3506 121.685 39.3523C121.149 39.3219 120.618 39.4667 120.171 39.7649C119.803 40.04 119.59 40.4993 119.528 41.1429L116.256 41.1403ZM123.774 43.5536C123.623 43.6835 123.447 43.7806 123.256 43.839C123.039 43.9117 122.817 43.9697 122.592 44.0129C122.354 44.0596 122.102 44.0959 121.835 44.1271C121.568 44.1582 121.317 44.1971 121.058 44.2412C120.809 44.2855 120.564 44.347 120.324 44.4255C120.106 44.497 119.9 44.6021 119.715 44.7369C119.54 44.8714 119.399 45.0434 119.3 45.2403C119.187 45.473 119.132 45.7292 119.139 45.9876C119.127 46.2498 119.182 46.5107 119.3 46.7454C119.404 46.9333 119.555 47.0914 119.738 47.2047C119.935 47.3243 120.152 47.4061 120.378 47.446C120.629 47.4923 120.883 47.5149 121.138 47.5135C121.655 47.5425 122.17 47.4313 122.629 47.1917C122.951 47.0048 123.22 46.7363 123.406 46.4132C123.568 46.1337 123.674 45.8251 123.717 45.505C123.75 45.2614 123.769 45.0163 123.774 44.7706V43.5536Z" fill="white"/>
<path d="M133.699 37.4891H136.086V39.6715H133.699V45.5516C133.699 46.1018 133.792 46.4702 133.973 46.6545C134.155 46.8387 134.526 46.9295 135.075 46.9295C135.258 46.9295 135.431 46.9218 135.594 46.9062C135.756 46.8937 135.917 46.8712 136.076 46.8387V49.387C135.772 49.4365 135.466 49.4677 135.158 49.4804C134.813 49.496 134.483 49.5037 134.17 49.5037C133.691 49.5047 133.211 49.47 132.737 49.3999C132.315 49.3408 131.909 49.1998 131.542 48.9847C131.198 48.7774 130.916 48.4806 130.728 48.1258C130.51 47.6752 130.408 47.1777 130.429 46.6778V39.6715H128.457V37.4891H130.448V33.9263H133.706L133.699 37.4891ZM131.542 50.5132H134.87V52.1947C134.89 52.5956 134.807 52.9947 134.629 53.3546C134.478 53.628 134.25 53.8509 133.973 53.9956C133.665 54.1504 133.331 54.248 132.988 54.2836C132.585 54.3315 132.179 54.3549 131.772 54.3537V53.4922C132.076 53.4785 132.372 53.4006 132.643 53.2638C132.755 53.1959 132.851 53.1058 132.926 52.9991C133.001 52.8924 133.053 52.7714 133.079 52.6436H131.542V50.5132Z" fill="white"/>
<path d="M140.997 35.6493H137.738V32.9609H140.997V35.6493ZM137.738 37.4891H140.997V49.3662H137.738V37.4891Z" fill="white"/>
<path d="M143.431 41.1403C143.452 40.4692 143.649 39.8156 144.004 39.246C144.334 38.7401 144.778 38.3188 145.3 38.0159C145.841 37.7016 146.431 37.4806 147.045 37.362C147.695 37.2307 148.356 37.1646 149.018 37.1648C149.625 37.1662 150.232 37.2087 150.833 37.292C151.415 37.3673 151.981 37.5346 152.51 37.7876C153.004 38.0242 153.43 38.3812 153.75 38.8256C154.09 39.3337 154.259 39.9375 154.232 40.5486V46.7272C154.231 47.2423 154.261 47.7571 154.322 48.2686C154.353 48.6545 154.462 49.0299 154.644 49.3714H151.326C151.265 49.187 151.215 48.9989 151.178 48.8083C151.139 48.6147 151.112 48.4188 151.097 48.2219C150.591 48.7498 149.96 49.1408 149.262 49.3585C148.563 49.5799 147.835 49.6919 147.102 49.6906C146.567 49.6948 146.033 49.6214 145.518 49.4726C145.048 49.3412 144.607 49.1191 144.222 48.8187C143.851 48.525 143.556 48.1469 143.361 47.7159C143.143 47.2166 143.036 46.6753 143.05 46.1304C143.029 45.5542 143.151 44.9818 143.405 44.4644C143.626 44.0506 143.941 43.695 144.326 43.4264C144.716 43.157 145.15 42.9585 145.609 42.84C146.09 42.7104 146.577 42.6064 147.069 42.5286C147.556 42.4542 148.037 42.3928 148.513 42.3443C148.938 42.3073 149.36 42.2388 149.775 42.1393C150.092 42.0706 150.39 41.9333 150.649 41.7371C150.758 41.6413 150.842 41.5203 150.894 41.3847C150.946 41.2491 150.964 41.1029 150.947 40.9586C150.959 40.6734 150.899 40.3897 150.773 40.1334C150.669 39.9291 150.51 39.7576 150.314 39.6378C150.11 39.518 149.883 39.4403 149.648 39.4094C149.379 39.3697 149.106 39.3506 148.834 39.3523C148.298 39.3215 147.767 39.4664 147.32 39.7649C146.952 40.04 146.738 40.4993 146.677 41.1429L143.431 41.1403ZM150.95 43.5536C150.798 43.683 150.621 43.7801 150.431 43.839C150.214 43.9117 149.992 43.9697 149.767 44.0129C149.529 44.0596 149.277 44.0959 149.01 44.1271C148.743 44.1582 148.492 44.1971 148.233 44.2412C147.984 44.2851 147.739 44.3467 147.499 44.4255C147.281 44.497 147.075 44.6021 146.89 44.7369C146.711 44.8694 146.565 45.0418 146.465 45.2403C146.352 45.473 146.297 45.7292 146.304 45.9876C146.293 46.2463 146.349 46.5034 146.465 46.735C146.568 46.9228 146.718 47.0809 146.9 47.1943C147.098 47.3135 147.316 47.3953 147.543 47.4356C147.794 47.4819 148.048 47.5045 148.303 47.5031C148.819 47.5321 149.334 47.4209 149.793 47.1813C150.116 46.9944 150.384 46.726 150.571 46.4028C150.733 46.1233 150.839 45.8148 150.882 45.4946C150.915 45.251 150.934 45.0059 150.939 44.7602L150.95 43.5536Z" fill="white"/>
</svg>
