<svg width="158" height="54" viewBox="0 0 158 54" fill="none" xmlns="http://www.w3.org/2000/svg">
<path d="M157.73 -0.700439H108.23V48.7918H157.73V-0.700439Z" fill="#FF8300"/>
<path d="M127.645 43.9993C126.975 44.4531 126.182 44.6914 125.372 44.6821C124.076 44.6821 123.326 43.8339 123.326 42.6837C123.326 41.1475 124.737 40.3203 127.658 40.0052V39.6192C127.658 39.1229 127.281 38.8314 126.583 38.8314C126.26 38.8211 125.94 38.8871 125.647 39.024C125.355 39.1609 125.099 39.3649 124.901 39.6192L123.671 38.9154C124.319 38.0278 125.301 37.5762 126.612 37.5762C128.406 37.5762 129.417 38.3456 129.417 39.6166C129.417 39.6166 129.417 44.5928 129.417 44.6059H127.811L127.645 43.9993ZM125.106 42.555C125.097 42.6684 125.111 42.7825 125.147 42.8901C125.184 42.9978 125.243 43.0967 125.32 43.1808C125.397 43.2648 125.49 43.3321 125.594 43.3785C125.698 43.425 125.811 43.4495 125.925 43.4505C126.554 43.4238 127.151 43.1667 127.603 42.7284V41.0976C125.909 41.3077 125.106 41.7384 125.106 42.555Z" fill="white"/>
<path d="M130.844 37.9071L132.351 37.6996L132.511 38.5163C133.357 37.8939 134.033 37.5657 134.881 37.5657C136.301 37.5657 137.033 38.3141 137.033 39.8056V44.5954H135.213V40.1313C135.213 39.2857 134.989 38.9049 134.336 38.9049C133.81 38.9049 133.257 39.1675 132.643 39.6691V44.6033H130.844V37.9071Z" fill="white"/>
<path d="M149.039 44.7294C147.006 44.7294 145.797 43.4321 145.797 41.1606C145.797 38.8892 147.025 37.5657 149.016 37.5657C151.006 37.5657 152.176 38.8314 152.176 41.0687C152.176 41.1869 152.155 41.3077 152.155 41.4259H147.572C147.591 42.7389 148.128 43.3849 149.195 43.3849C149.879 43.3849 150.335 43.1223 150.759 42.5052L152.076 43.2378C151.496 44.2147 150.446 44.7294 149.039 44.7294ZM150.396 40.2652C150.396 39.3408 149.869 38.7973 149.016 38.7973C148.162 38.7973 147.678 39.3225 147.607 40.2652H150.396Z" fill="white"/>
<path d="M114.329 44.8029C112.531 44.8029 110.906 43.6658 110.906 41.1764C110.906 38.6869 112.523 37.542 114.329 37.542C116.136 37.542 117.737 38.6791 117.737 41.1764C117.737 43.6737 116.12 44.8029 114.329 44.8029ZM114.329 39.0677C112.968 39.0677 112.715 40.2888 112.715 41.1685C112.715 42.0482 112.978 43.2693 114.329 43.2693C115.68 43.2693 115.909 42.0535 115.909 41.1685C115.909 40.2835 115.678 39.0677 114.329 39.0677Z" fill="white"/>
<path d="M118.972 37.7285H120.695V38.532C120.931 38.2531 121.221 38.0252 121.549 37.8622C121.876 37.6992 122.233 37.6045 122.599 37.584C122.674 37.5819 122.75 37.5863 122.825 37.5972V39.2909H122.741C121.951 39.2909 121.095 39.4117 120.813 40.0262V44.6033H118.97L118.972 37.7285Z" fill="white"/>
<path d="M141.46 43.1172C142.84 43.1172 142.956 41.7096 142.956 40.7958C142.956 39.7217 142.429 38.842 141.449 38.842C140.802 38.842 140.075 39.3226 140.075 40.8693C140.085 41.7306 140.13 43.1355 141.46 43.1172ZM144.694 37.6866V44.2043C144.694 45.3598 144.607 47.2505 141.323 47.2715C139.969 47.2715 138.716 46.7332 138.463 45.5541L140.254 45.2652C140.33 45.604 140.538 45.9453 141.552 45.9453C142.484 45.9453 142.937 45.4911 142.937 44.4144V43.6266L142.914 43.6003C142.624 44.1255 142.192 44.6008 141.133 44.6008C139.532 44.6008 138.268 43.49 138.268 41.1608C138.268 38.8315 139.572 37.5737 141.036 37.571C142.408 37.571 142.919 38.196 143.04 38.5217H143.016L143.164 37.6971L144.694 37.6866Z" fill="white"/>
<path d="M152.879 35.415H152.17V37.3871H151.791V35.415H151.08V35.1104H152.879V35.415ZM155.855 37.3871H155.473V35.5016L154.725 37.4002H154.488L153.727 35.5016V37.4002H153.353V35.1235H153.927L154.612 36.8514L155.275 35.1235H155.86L155.855 37.3871Z" fill="white"/>
<path d="M0.932617 32.1824H12.6386V35.2522H4.59321V39.0861H11.5694V41.9248H4.59321V48.7813H0.932617V32.1824Z" fill="white"/>
<path d="M25.7165 48.7814H22.5694V47.1086H22.4983C22.1197 47.7673 21.552 48.2978 20.8682 48.6317C20.2289 48.9421 19.5277 49.1045 18.8167 49.107C18.0731 49.1317 17.3321 49.0094 16.6361 48.7473C16.1087 48.5374 15.6462 48.1923 15.2957 47.7468C14.9531 47.2852 14.7183 46.7532 14.6083 46.1895C14.4686 45.5203 14.4015 44.838 14.4082 44.1544V36.7622H17.7185V43.5504C17.7185 44.543 17.8739 45.2836 18.1846 45.772C18.4954 46.2604 19.0484 46.502 19.8411 46.502C20.7418 46.502 21.3949 46.2394 21.8005 45.7011C22.206 45.1628 22.4062 44.2883 22.4062 43.0751V36.7727H25.7165V48.7814Z" fill="white"/>
<path d="M28.2344 36.762H31.3946V38.4348H31.4657C31.8446 37.7761 32.4136 37.2463 33.0985 36.9143C33.7373 36.6026 34.4387 36.4392 35.15 36.4364C35.8927 36.412 36.6328 36.5342 37.3279 36.7962C37.8549 37.0069 38.3171 37.3519 38.6684 37.7967C39.0107 38.2586 39.2463 38.7904 39.3583 39.3539C39.4957 40.0235 39.5619 40.7056 39.5559 41.389V48.7812H36.2324V41.993C36.2324 41.0004 36.077 40.2625 35.7662 39.774C35.4555 39.2856 34.9024 39.0414 34.1098 39.0414C33.2091 39.0414 32.556 39.304 32.1504 39.8292C31.7449 40.3544 31.5447 41.2446 31.5447 42.4683V48.7707H28.2344V36.762Z" fill="white"/>
<path d="M50.6642 47.2478H50.6168C50.2646 47.8648 49.7316 48.3596 49.0893 48.6658C48.4197 48.9684 47.6912 49.1191 46.9562 49.107C46.1287 49.1307 45.3083 48.9503 44.5676 48.5818C43.9057 48.2395 43.331 47.7509 42.8874 47.1532C42.4325 46.5321 42.0927 45.8349 41.884 45.0945C41.6582 44.309 41.5448 43.4956 41.5469 42.6785C41.5451 41.8873 41.6587 41.1 41.884 40.3414C42.0934 39.6231 42.4336 38.9492 42.8874 38.3535C43.3349 37.7762 43.9039 37.3038 44.5544 36.9696C45.2767 36.6075 46.0768 36.4272 46.8851 36.4444C47.5908 36.4425 48.2881 36.5977 48.926 36.8987C49.5545 37.187 50.0853 37.6514 50.4535 38.2354H50.5009V32.1956H53.8112V48.7945H50.6642V47.2478ZM50.6168 42.7363C50.6168 42.2602 50.57 41.7853 50.4772 41.3183C50.3957 40.8849 50.2331 40.4706 49.9979 40.0972C49.7734 39.7495 49.4703 39.459 49.113 39.249C48.7038 39.022 48.2406 38.9095 47.7726 38.9234C47.2934 38.9081 46.8189 39.0205 46.3979 39.249C46.0321 39.4582 45.7237 39.754 45.4998 40.1103C45.2646 40.4887 45.0988 40.9057 45.01 41.3419C44.9076 41.8077 44.8564 42.2831 44.8572 42.76C44.8555 43.2336 44.9085 43.7059 45.0153 44.1675C45.1155 44.6102 45.2938 45.0317 45.542 45.4122C45.7765 45.7699 46.0877 46.0713 46.4532 46.2945C46.8511 46.5294 47.3077 46.6469 47.7699 46.6333C48.2458 46.6497 48.7173 46.5372 49.1341 46.3077C49.494 46.0945 49.7946 45.7948 50.0084 45.4358C50.2323 45.0498 50.3899 44.629 50.4746 44.1911C50.5699 43.712 50.6175 43.2247 50.6168 42.7363Z" fill="white"/>
<path d="M56.1654 40.4596C56.1872 39.7799 56.3879 39.1179 56.7474 38.54C57.0838 38.0298 57.5346 37.6045 58.0641 37.2979C58.6141 36.9805 59.213 36.756 59.8365 36.6335C60.4963 36.5016 61.1676 36.4356 61.8406 36.4365C62.4573 36.4368 63.0733 36.4798 63.6841 36.5652C64.274 36.6409 64.8482 36.8093 65.3853 37.0642C65.8868 37.3032 66.3198 37.6644 66.6441 38.1146C66.9906 38.6284 67.1623 39.2397 67.134 39.8582V46.1107C67.1331 46.6312 67.1639 47.1512 67.2261 47.668C67.2562 48.0585 67.3674 48.4386 67.5527 48.784H64.1844C64.1236 48.597 64.0735 48.4068 64.0343 48.2142C63.9948 48.0182 63.9675 47.82 63.9527 47.6207C63.4379 48.1548 62.7968 48.5512 62.0881 48.7735C61.3783 48.9963 60.6386 49.1097 59.8944 49.1096C59.351 49.114 58.8099 49.0397 58.288 48.8891C57.8101 48.7557 57.3629 48.531 56.9712 48.2273C56.5955 47.9294 56.2958 47.5469 56.0969 47.1112C55.8748 46.606 55.7669 46.0582 55.7809 45.5068C55.7586 44.9233 55.8835 44.3436 56.1443 43.8209C56.3678 43.4024 56.6872 43.0426 57.0765 42.7705C57.4783 42.4991 57.9236 42.2984 58.3933 42.177C58.8814 42.0457 59.3764 41.9414 59.876 41.8645C60.3711 41.7857 60.8609 41.7253 61.3429 41.678C61.775 41.64 62.2037 41.5698 62.6254 41.468C62.9478 41.3996 63.251 41.2606 63.5129 41.0609C63.6248 40.9648 63.711 40.8426 63.7638 40.7051C63.8167 40.5676 63.8345 40.4192 63.8157 40.2731C63.8275 39.9836 63.7669 39.6957 63.6393 39.4354C63.5331 39.2294 63.3717 39.0567 63.1732 38.9365C62.9658 38.8155 62.7368 38.7361 62.499 38.7028C62.2242 38.664 61.9469 38.6446 61.6694 38.645C61.1249 38.6142 60.5851 38.7608 60.1314 39.0625C59.7575 39.3435 59.5415 39.8083 59.4783 40.4596H56.1654ZM63.8026 42.8991C63.6488 43.0312 63.4696 43.1304 63.2759 43.1906C63.0542 43.2629 62.8282 43.3208 62.599 43.3639C62.3568 43.4112 62.1013 43.4506 61.8301 43.4821C61.5588 43.5136 61.3034 43.5504 61.04 43.5976C60.7873 43.6412 60.5381 43.7035 60.2947 43.7841C60.0729 43.8545 59.864 43.96 59.6758 44.0966C59.4943 44.2319 59.3464 44.4071 59.2439 44.6087C59.1299 44.8442 59.0739 45.1035 59.0807 45.365C59.0698 45.6259 59.126 45.8854 59.2439 46.1186C59.351 46.3089 59.504 46.4695 59.689 46.586C59.8891 46.7078 60.1108 46.7898 60.3421 46.8276C60.5956 46.8755 60.8531 46.8992 61.1111 46.8985C61.6361 46.9283 62.1593 46.8158 62.6254 46.5729C62.9527 46.383 63.225 46.1115 63.4154 45.7851C63.5795 45.5021 63.6869 45.1899 63.7315 44.866C63.7644 44.6195 63.7838 44.3714 63.7894 44.1228L63.8026 42.8991Z" fill="white"/>
<path d="M73.8839 36.7621H76.3093V38.9705H73.8839V44.9237C73.8839 45.4804 73.9787 45.8533 74.1657 46.0397C74.3526 46.2262 74.724 46.3181 75.2849 46.3181C75.4693 46.3181 75.6483 46.3181 75.8116 46.2944C75.9761 46.2797 76.1396 46.256 76.3014 46.2235V48.8049C75.9928 48.8542 75.6815 48.8849 75.3692 48.8968C75.0268 48.9126 74.6924 48.9204 74.3658 48.9204C73.8784 48.9227 73.3915 48.8875 72.9095 48.8154C72.4818 48.7581 72.0699 48.6161 71.6981 48.3979C71.3471 48.1879 71.0603 47.8865 70.8685 47.526C70.6476 47.0701 70.5435 46.5666 70.5656 46.0607V38.9705H68.5615V36.7621H70.5656V33.1592H73.876L73.8839 36.7621ZM71.6928 49.9446H75.0742V51.641C75.0943 52.0467 75.01 52.4508 74.8293 52.8148C74.6762 53.0915 74.4456 53.3178 74.1657 53.4661C73.8515 53.6227 73.5116 53.7214 73.1623 53.7575C72.7522 53.8038 72.3398 53.8266 71.9272 53.8258V52.9671C72.2354 52.9525 72.537 52.8729 72.812 52.7334C72.9254 52.6651 73.0232 52.574 73.0994 52.4659C73.1755 52.3579 73.2283 52.2353 73.2545 52.1058H71.6928V49.9446Z" fill="white"/>
<path d="M81.2998 34.9029H77.9868V32.1824H81.2998V34.9029ZM77.9868 36.7621H81.2998V48.7813H77.9868V36.7621Z" fill="white"/>
<path d="M83.7701 40.4596C83.7919 39.7799 83.9927 39.1179 84.3521 38.54C84.6885 38.0298 85.1393 37.6045 85.6688 37.2979C86.2188 36.9805 86.8177 36.756 87.4412 36.6335C88.101 36.5014 88.7723 36.4355 89.4453 36.4365C90.062 36.4369 90.678 36.4799 91.2888 36.5652C91.8787 36.6409 92.4529 36.8093 92.99 37.0642C93.4915 37.3032 93.9245 37.6644 94.2488 38.1146C94.5953 38.6284 94.767 39.2397 94.7387 39.8582V46.1107C94.7378 46.6312 94.7686 47.1512 94.8308 47.668C94.8609 48.0585 94.9721 48.4386 95.1574 48.784H91.7891C91.7283 48.597 91.6782 48.4068 91.639 48.2142C91.5995 48.0182 91.5722 47.82 91.5574 47.6207C91.0426 48.1548 90.4015 48.5512 89.6928 48.7735C88.983 48.9963 88.2433 49.1097 87.4991 49.1096C86.9549 49.1139 86.4129 49.0396 85.89 48.889C85.417 48.7539 84.9744 48.5292 84.5864 48.2273C84.21 47.9301 83.9102 47.5474 83.7121 47.1112C83.49 46.606 83.3821 46.0582 83.3961 45.5068C83.3738 44.9233 83.4988 44.3436 83.7595 43.8209C83.983 43.4024 84.3025 43.0426 84.6918 42.7705C85.0891 42.4999 85.53 42.2991 85.9954 42.177C86.4835 42.0457 86.9784 41.9414 87.478 41.8645C87.9732 41.7857 88.463 41.7253 88.9449 41.678C89.3771 41.64 89.8058 41.5698 90.2274 41.468C90.5499 41.3996 90.853 41.2606 91.1149 41.0609C91.2268 40.9648 91.3131 40.8426 91.3659 40.7051C91.4188 40.5676 91.4366 40.4192 91.4178 40.2731C91.4296 39.9836 91.3689 39.6957 91.2414 39.4354C91.1351 39.2294 90.9738 39.0567 90.7752 38.9365C90.5677 38.8159 90.3388 38.7365 90.101 38.7028C89.8262 38.664 89.549 38.6446 89.2715 38.645C88.727 38.6142 88.1872 38.7608 87.7335 39.0625C87.3595 39.3435 87.1436 39.8083 87.0804 40.4596H83.7701ZM91.4073 42.8991C91.2535 43.0312 91.0743 43.1304 90.8806 43.1906C90.6589 43.2629 90.4329 43.3208 90.2037 43.3639C89.9615 43.4112 89.706 43.4506 89.4348 43.4821C89.1635 43.5136 88.9081 43.5504 88.6447 43.5976C88.392 43.6412 88.1428 43.7035 87.8994 43.7841C87.6777 43.8545 87.4687 43.96 87.2805 44.0966C87.099 44.2319 86.9512 44.4071 86.8486 44.6087C86.7346 44.8442 86.6786 45.1035 86.6854 45.3649C86.6745 45.6259 86.7307 45.8854 86.8486 46.1186C86.9557 46.3089 87.1087 46.4695 87.2937 46.586C87.493 46.7073 87.7139 46.7893 87.9442 46.8276C88.1986 46.8754 88.4569 46.8991 88.7158 46.8985C89.2408 46.9283 89.7641 46.8158 90.2301 46.5729C90.5574 46.383 90.8297 46.1115 91.0201 45.7851C91.1842 45.5021 91.2916 45.1899 91.3362 44.866C91.3691 44.6195 91.3885 44.3714 91.3941 44.1228L91.4073 42.8991Z" fill="white"/>
</svg>
