<svg width="164" height="50" viewBox="0 0 164 50" fill="none" xmlns="http://www.w3.org/2000/svg">
<path d="M20.0271 1.03259L12.9348 2.09237L0 25.0271L12.9348 47.9075L20.0271 48.9945L6.22282 25.0271L20.0271 1.03259Z" fill="#BBBBBB"/>
<path d="M38.1519 1.03259L45.2442 2.09237L58.179 25.0271L45.2442 47.9075L38.1519 48.9945L51.929 25.0271L38.1519 1.03259Z" fill="#BBBBBB"/>
<path d="M20.027 1.03261L29.0759 0V25.0271H6.22266L20.027 1.03261Z" fill="#F7F7F7"/>
<path d="M20.027 48.9946L29.0759 50V25.0272H6.22266L20.027 48.9946Z" fill="#EDEDED"/>
<path d="M38.1522 48.9946L29.0762 50V25.0272H51.9294L38.1522 48.9946Z" fill="#D9D9D9"/>
<path d="M38.1522 1.03261L29.0762 0V25.0271H51.9294L38.1522 1.03261Z" fill="#F2F2F2"/>
<path d="M81.6847 21.0869C80.1358 21.4674 78.5326 21.6576 76.9565 21.6576C75.8152 21.7119 74.6467 21.5489 73.5597 21.1685C72.7445 20.8424 72.038 20.2446 71.5489 19.4837C71.0326 18.6685 70.7065 17.7446 70.5163 16.7935C70.326 15.5163 70.2445 14.212 70.2717 12.9076C70.2717 9.64674 70.7337 7.36413 71.6576 6.08696C72.5815 4.80979 74.2663 4.13044 76.7119 4.13044C78.3967 4.15761 80.0543 4.40218 81.6847 4.83696L81.5489 7.58152C80.1902 7.36413 78.8315 7.22826 77.4728 7.20109C76.3586 7.20109 75.5978 7.36413 75.1358 7.66304C74.6739 7.96196 74.3206 8.47826 74.1032 9.29348C73.8858 10.1087 73.7228 11.4946 73.7228 13.4511C73.7228 15.4076 73.9673 16.7663 74.4293 17.5272C74.8913 18.3152 75.8152 18.6413 77.1739 18.6413C78.6412 18.6413 80.1086 18.5326 81.5489 18.3152L81.6847 21.0869ZM84.6195 10.3533C85.5162 9.21196 86.9836 8.6413 89.0217 8.6413C91.0597 8.6413 92.5271 9.21196 93.4238 10.3533C94.3206 11.4946 94.7825 13.0978 94.7825 15.1359C94.7825 19.5109 92.8532 21.6576 89.0217 21.6576C85.1902 21.6576 83.3152 19.4837 83.3152 15.1359C83.3152 13.0706 83.7499 11.4946 84.6195 10.3533ZM87.2282 17.9348C87.5543 18.5598 88.1793 18.8315 89.0217 18.8315C89.8641 18.8315 90.5434 18.5326 90.8695 17.9348C91.2771 17.038 91.4401 16.0869 91.413 15.1087C91.4673 14.1576 91.2771 13.2065 90.8695 12.337C90.5434 11.7663 89.9184 11.4402 89.0217 11.4402C88.3152 11.3859 87.6086 11.712 87.2282 12.337C86.8478 12.9076 86.6847 13.8587 86.6847 15.1087C86.6847 16.3587 86.8478 17.3098 87.2282 17.9348ZM107.744 3.94022V21.3587H104.429V20.8152C103.505 21.3043 102.473 21.6032 101.413 21.6304C99.6195 21.6304 98.3423 21.1413 97.663 20.0815C96.9564 19.0217 96.6032 17.3913 96.6032 15.1087C96.6032 12.8261 97.0108 11.2228 97.8804 10.163C98.7499 9.10326 99.9999 8.61413 101.766 8.61413C102.5 8.6413 103.234 8.72283 103.967 8.8587L104.456 8.99456V3.94022H107.744ZM104.076 18.3696L104.456 18.288V11.7663C103.641 11.6033 102.826 11.5217 102.011 11.5217C100.652 11.5217 99.9999 12.7174 99.9999 15.1087C99.9999 16.3859 100.136 17.3098 100.462 17.8532C100.734 18.3967 101.331 18.7228 101.929 18.6685C102.663 18.6685 103.369 18.5598 104.076 18.3696ZM114.212 18.2065C114.674 18.5869 115.272 18.7772 115.897 18.75C117.446 18.75 118.804 18.6685 120.027 18.5869L120.734 18.5054V20.9511C119.049 21.413 117.337 21.6576 115.598 21.6848C113.723 21.6848 112.337 21.1413 111.522 20.163C110.706 19.1848 110.244 17.5543 110.244 15.2989C110.244 10.8424 112.038 8.61413 115.706 8.61413C119.375 8.61413 121.141 10.4891 121.141 14.2391L120.897 16.5761H113.587C113.533 17.2011 113.75 17.7989 114.212 18.2065ZM117.88 14.0217C117.88 13.0435 117.717 12.337 117.391 11.9293C117.092 11.5489 116.522 11.3587 115.761 11.3587C114.973 11.3587 114.402 11.5761 114.076 11.9837C113.75 12.3913 113.587 13.0978 113.533 14.0217H117.88ZM132.935 11.7663V21.3587H129.592V11.7663H128.288V8.91304H129.592V8.36957C129.592 6.57609 129.891 5.35326 130.407 4.64674C130.951 3.94022 131.875 3.61414 133.261 3.61414C134.022 3.64131 134.782 3.72283 135.543 3.8587L136.087 3.94022V6.68478L134.239 6.60326C133.859 6.57609 133.478 6.71196 133.206 7.01087C133.016 7.44565 132.935 7.93478 132.962 8.39674V8.88587H135.978V11.7391L132.935 11.7663ZM138.478 10.3533C139.348 9.21196 140.815 8.6413 142.853 8.6413C144.891 8.6413 146.413 9.21196 147.255 10.3533C148.125 11.4946 148.614 13.0978 148.614 15.1359C148.614 19.5109 146.685 21.6576 142.853 21.6576C139.022 21.6576 137.147 19.4837 137.147 15.1359C137.147 13.0706 137.581 11.4946 138.478 10.3533ZM141.06 17.9348C141.386 18.5598 142.011 18.8315 142.853 18.8315C143.723 18.8315 144.375 18.5326 144.701 17.9348C145.027 17.3098 145.244 16.3859 145.244 15.1087C145.244 13.8315 145.081 12.9076 144.701 12.337C144.321 11.7663 143.75 11.4674 142.853 11.4674C141.956 11.4674 141.386 11.7663 141.06 12.337C140.734 12.9076 140.516 13.8587 140.516 15.1087C140.516 16.3587 140.679 17.3098 141.06 17.9348ZM151.005 21.3587V8.91304H154.32V10.2717C155.543 9.48369 156.902 8.94022 158.315 8.6413V11.9837C157.147 12.2283 155.978 12.5272 154.837 12.8804L154.348 13.0435V21.3587H151.005ZM74.375 40.5978V46.2771H70.951V29.3478H77.5271C81.5217 29.3478 83.4782 31.2228 83.4782 34.9456C83.4782 37.1467 82.663 38.7771 80.9782 39.8097L83.3967 46.3043H79.6467L77.6902 40.625H74.375V40.5978ZM79.4021 36.9021C79.8097 36.3315 80.0271 35.625 79.9728 34.8913C79.9999 34.2119 79.7826 33.5054 79.3478 32.9619C78.8858 32.4456 78.2065 32.1739 77.4999 32.2282H74.3478V37.6087H77.5271C78.2336 37.6902 78.913 37.4184 79.4021 36.9021ZM86.5217 35.1902C87.4184 34.0761 88.8858 33.5054 90.9238 33.5054C92.9619 33.5054 94.4836 34.0761 95.326 35.1902C96.1956 36.3043 96.6304 37.9347 96.6304 40C96.6304 44.375 94.7554 46.5217 90.9238 46.5217C87.0923 46.5217 85.2173 44.3478 85.2173 40C85.2173 37.9347 85.6793 36.3315 86.5217 35.1902ZM89.1032 42.826C89.5108 43.4239 90.2173 43.7771 90.951 43.7228C91.8478 43.7228 92.4728 43.3967 92.7988 42.826C93.2064 41.9293 93.3695 40.9782 93.3423 40C93.3967 39.0217 93.2064 38.0706 92.7988 37.1739C92.4728 36.6032 91.8478 36.3043 90.951 36.3043C90.2173 36.2228 89.538 36.5761 89.1032 37.1739C88.7771 37.7989 88.6141 38.6956 88.6141 40C88.6141 41.3043 88.7771 42.2282 89.1032 42.826ZM102.446 46.25H99.1032V33.8043H102.418V34.5108C103.288 33.9402 104.321 33.6141 105.353 33.5326C106.712 33.5326 107.717 33.913 108.451 34.6739C109.755 33.9674 111.196 33.5869 112.663 33.5326C114.293 33.5326 115.435 33.9945 116.087 34.9728C116.739 35.9511 117.038 37.4184 117.038 39.538V46.2771H113.696V39.6195C113.75 38.8043 113.641 38.0163 113.369 37.2554C113.098 36.7391 112.554 36.4674 111.984 36.5217C111.331 36.5489 110.652 36.6576 110.027 36.8478L109.647 36.9837C109.728 38.2608 109.783 39.1847 109.783 39.8369V46.2771H106.44V39.8641C106.467 38.9945 106.359 38.0978 106.114 37.2554C105.897 36.7663 105.408 36.5217 104.674 36.5217C104.022 36.5217 103.369 36.6304 102.744 36.8478L102.446 36.9565V46.25ZM129.511 37.6902V42.8804C129.511 43.1521 129.565 43.451 129.728 43.6956C129.864 43.913 130.081 44.0217 130.353 44.0217L130.272 46.5489C129.592 46.576 128.913 46.5217 128.234 46.3858C127.69 46.25 127.174 46.0054 126.712 45.6793C125.571 46.2228 124.321 46.5217 123.043 46.5489C120.462 46.5489 119.158 45.1902 119.158 42.4728C119.158 41.1413 119.538 40.1902 120.272 39.6467C120.978 39.076 122.065 38.75 123.532 38.6684L126.196 38.4511V37.663C126.223 37.2826 126.114 36.9021 125.869 36.6032C125.543 36.3858 125.136 36.2771 124.728 36.3043L120.081 36.5217L119.946 34.1848C121.603 33.7228 123.288 33.4782 125 33.4511C126.63 33.4511 127.772 33.8315 128.478 34.4837C129.185 35.1358 129.511 36.2228 129.511 37.6902ZM123.913 41.0054C122.962 41.0869 122.527 41.576 122.527 42.4728C122.527 43.3695 122.935 43.8587 123.75 43.8587C124.429 43.8315 125.136 43.7228 125.788 43.5326L126.168 43.451V40.788L123.913 41.0054ZM136.032 46.25H132.69V33.8043H136.005V34.5108C136.929 33.913 138.016 33.5869 139.103 33.5326C140.788 33.5326 141.929 34.0217 142.527 35C143.179 35.9782 143.505 37.5 143.505 39.4837V46.25H140.163V39.5924C140.217 38.7771 140.081 37.9891 139.782 37.2282C139.538 36.7391 138.994 36.4945 138.261 36.4945C137.581 36.4674 136.929 36.5761 136.304 36.8206L136.005 36.9565L136.032 46.25ZM146.44 32.2282V28.8315H149.782V32.2282H146.44ZM146.44 46.25V33.8043H149.782V46.25H146.44ZM162.418 37.6902V42.8804C162.418 43.1521 162.473 43.451 162.636 43.6956C162.772 43.913 162.989 44.0217 163.261 44.0217L163.179 46.5489C162.5 46.576 161.82 46.5217 161.141 46.3858C160.598 46.25 160.054 46.0054 159.592 45.6793C158.451 46.2228 157.228 46.5217 155.951 46.5489C153.369 46.5489 152.065 45.1902 152.065 42.4728C152.065 41.1141 152.445 40.1902 153.125 39.6467C153.831 39.1032 154.973 38.75 156.44 38.6684L159.103 38.4511V37.663C159.13 37.2826 159.022 36.9021 158.777 36.6032C158.451 36.3858 158.043 36.2771 157.636 36.3043L152.989 36.5217L152.853 34.1848C154.511 33.7228 156.195 33.4782 157.907 33.4511C159.538 33.4511 160.679 33.8315 161.386 34.4837C162.038 35.163 162.418 36.2228 162.418 37.6902ZM156.82 41.0054C155.869 41.0869 155.435 41.576 155.435 42.4728C155.435 43.3695 155.842 43.8587 156.63 43.8587C157.337 43.8315 158.043 43.7228 158.723 43.5326L159.103 43.451V40.788L156.82 41.0054Z" fill="#BBBBBB"/>
</svg>
