<svg width="15" height="15" viewBox="0 0 15 15" fill="none" xmlns="http://www.w3.org/2000/svg">
<path fill-rule="evenodd" clip-rule="evenodd" d="M7.18029 0.401552L14.2365 7.45773C14.8158 8.03712 14.8158 8.97645 14.2365 9.55584L9.55584 14.2365C8.97645 14.8158 8.03712 14.8158 7.45773 14.2365L0.401552 7.18029C0.355177 7.13392 0.329116 7.07104 0.329102 7.00547V0.576374C0.329102 0.439809 0.439809 0.329102 0.576374 0.329102H7.00547C7.07104 0.329116 7.13392 0.355177 7.18029 0.401552ZM3.0491 4.28547C3.0491 4.96829 3.60264 5.52183 4.28547 5.52183C4.61337 5.52183 4.92784 5.39157 5.15971 5.15971C5.39157 4.92784 5.52183 4.61337 5.52183 4.28547C5.52183 3.60264 4.96829 3.0491 4.28547 3.0491C3.60264 3.0491 3.0491 3.60264 3.0491 4.28547Z" fill="#ADB5BD"/>
</svg>
