<svg width="15" height="13" viewBox="0 0 15 13" fill="none" xmlns="http://www.w3.org/2000/svg">
<path d="M7.97819 7.86002C7.68056 8.02404 7.31962 8.02404 7.02199 7.86002L0.0820312 4.03149V11.1982C0.0828491 12.0173 0.746617 12.681 1.56567 12.6818H13.4348C14.2538 12.681 14.9176 12.0173 14.9184 11.1982V4.03149L7.97819 7.86002Z" fill="#ADB5BD"/>
<path d="M13.4348 0.318237H1.56567C0.746617 0.319055 0.0828491 0.982823 0.0820313 1.80187V3.03824C0.0819971 3.12834 0.130976 3.21133 0.209871 3.25485L7.38078 7.21121C7.45512 7.25222 7.5453 7.25222 7.61965 7.21121L14.7906 3.25485C14.8695 3.21133 14.9184 3.12834 14.9184 3.03824V1.80187C14.9176 0.982823 14.2538 0.319055 13.4348 0.318237Z" fill="#ADB5BD"/>
</svg>
