<svg width="109" height="22" viewBox="0 0 109 22" fill="none" xmlns="http://www.w3.org/2000/svg">
<path d="M8.23503 21.5278C5.65057 21.5278 3.63391 20.8151 2.18505 19.3898C0.73618 17.9644 0.0078317 15.9477 0 13.3398C0 10.6496 0.671568 8.57222 2.0147 7.10769C3.35784 5.64317 5.21591 4.90895 7.58892 4.90503C9.85619 4.90503 11.6183 5.55115 12.8753 6.84338C14.1323 8.13561 14.7628 9.91731 14.7667 12.1885V14.3148H4.42883C4.40489 15.3995 4.80046 16.4515 5.53309 17.2517C5.9183 17.6156 6.374 17.8966 6.87206 18.0774C7.37011 18.2582 7.89996 18.3351 8.42887 18.3031C9.34993 18.3061 10.2683 18.2036 11.166 17.9977C12.0963 17.7754 13.0001 17.4545 13.8621 17.0403V20.4235C13.0847 20.8092 12.2617 21.0953 11.4127 21.2752C10.3652 21.4695 9.30017 21.5542 8.23503 21.5278ZM7.64766 8.01813C7.24202 7.99599 6.83647 8.06345 6.45984 8.21572C6.08322 8.368 5.74475 8.60135 5.46848 8.8992C4.89437 9.60794 4.57573 10.4894 4.56393 11.4014H10.702C10.7443 10.4907 10.4424 9.59747 9.85619 8.8992C9.56926 8.59899 9.22052 8.36472 8.83412 8.21259C8.44771 8.06047 8.03287 7.99411 7.61829 8.01813H7.64766Z" fill="#FAB954"/>
<path d="M16.9106 15.1545V11.5715H24.6112V15.1545H16.9106Z" fill="white"/>
<path d="M40.4998 15.4188C40.5363 16.2723 40.37 17.1224 40.0147 17.8993C39.6595 18.6763 39.1252 19.358 38.4557 19.8887C37.093 20.9813 35.1978 21.5275 32.7699 21.5275C30.7198 21.5674 28.688 21.1353 26.8315 20.2647V16.153C27.9936 16.6896 29.1954 17.1354 30.4263 17.4864C31.3027 17.7304 32.2068 17.8607 33.1165 17.874C33.9039 17.9225 34.6872 17.7277 35.3603 17.316C35.619 17.125 35.826 16.8723 35.9624 16.581C36.0988 16.2897 36.1604 15.969 36.1415 15.6479C36.1458 15.2542 36.0244 14.8694 35.7949 14.5495C35.5149 14.1851 35.1729 13.873 34.7846 13.6273C33.9055 13.1063 32.9975 12.6357 32.0651 12.2176C31.0338 11.7688 30.0661 11.1862 29.1869 10.4848C28.5554 9.9424 28.0331 9.28454 27.648 8.54649C27.2458 7.74739 27.0442 6.86237 27.0606 5.9679C27.0209 5.14307 27.1701 4.32006 27.4969 3.56167C27.8236 2.80329 28.3193 2.12958 28.9461 1.59194C30.2031 0.53466 31.9417 0.000142896 34.1561 0.000142896C35.2081 -0.00493534 36.2564 0.125359 37.2751 0.387814C38.3376 0.671033 39.3764 1.0363 40.3823 1.48034L38.9491 4.93412C38.0464 4.55081 37.1181 4.23089 36.1708 3.97669C35.4663 3.79688 34.7423 3.70417 34.0152 3.70062C33.3194 3.65671 32.6312 3.86527 32.0768 4.288C31.8585 4.47785 31.6851 4.71392 31.5693 4.97908C31.4535 5.24424 31.3981 5.53185 31.4072 5.82106C31.3978 6.1824 31.4916 6.53894 31.6774 6.84897C31.9052 7.18833 32.2013 7.47641 32.5467 7.69479C33.4543 8.24019 34.3939 8.73055 35.3603 9.16324C37.3182 10.103 38.6613 11.0428 39.3897 11.9827C40.1365 12.9702 40.5277 14.181 40.4998 15.4188Z" fill="white"/>
<path d="M51.2135 21.5278C48.6291 21.5278 46.6105 20.8151 45.1577 19.3898C43.7049 17.9644 42.9785 15.9477 42.9785 13.3398C42.9785 10.6496 43.6501 8.57222 44.9932 7.1077C46.3364 5.64317 48.1944 4.90895 50.5674 4.90503C52.8347 4.90503 54.5968 5.55115 55.8538 6.84338C57.1108 8.13561 57.7374 9.92711 57.7334 12.2179V14.3442H47.3956C47.3717 15.4288 47.7672 16.4809 48.4999 17.2811C48.8851 17.6449 49.3408 17.9259 49.8388 18.1068C50.3369 18.2876 50.8667 18.3644 51.3956 18.3325C52.3167 18.3355 53.2351 18.233 54.1328 18.027C55.063 17.8048 55.9668 17.4838 56.8289 17.0696V20.4529C56.0514 20.8386 55.2285 21.1247 54.3795 21.3046C53.3347 21.4883 52.2737 21.5631 51.2135 21.5278ZM50.5968 8.01813C50.1912 7.99599 49.7856 8.06345 49.409 8.21572C49.0324 8.368 48.6939 8.60135 48.4176 8.8992C47.8435 9.60794 47.5249 10.4894 47.5131 11.4014H53.6512C53.6877 10.4915 53.3865 9.60028 52.8053 8.8992C52.5217 8.60286 52.1777 8.37085 51.7967 8.21885C51.4157 8.06685 51.0065 7.99841 50.5968 8.01813Z" fill="white"/>
<path d="M76.1066 21.2398H71.7306V11.877C71.7932 10.9653 71.5782 10.0561 71.1139 9.26904C70.8849 8.97287 70.5854 8.73872 70.2427 8.58791C69.9001 8.4371 69.5251 8.37442 69.1521 8.40559C68.6408 8.3604 68.1267 8.44997 67.6609 8.66536C67.195 8.88076 66.7938 9.21446 66.4971 9.63322C65.9508 10.4497 65.6806 11.8006 65.6806 13.6979V21.2398H61.3047V5.20439H64.6469L65.2342 7.26021H65.4809C65.9646 6.48746 66.6654 5.87451 67.4956 5.49807C68.4199 5.09003 69.4224 4.88954 70.4325 4.9107C72.2926 4.9107 73.7062 5.41584 74.6734 6.42613C75.6406 7.43642 76.1242 8.89116 76.1242 10.7904L76.1066 21.2398Z" fill="white"/>
<path d="M91.8013 16.4761C91.8446 17.1952 91.7109 17.9139 91.4118 18.5693C91.1128 19.2247 90.6576 19.7967 90.0862 20.2354C88.9467 21.0929 87.2374 21.5276 84.9584 21.5276C83.9604 21.5409 82.9633 21.4602 81.9804 21.2868C81.1859 21.1411 80.4099 20.9086 79.6661 20.5937V16.9813C80.5504 17.3859 81.4708 17.7064 82.415 17.9387C83.2925 18.1777 84.196 18.3079 85.1052 18.3264C86.6716 18.3264 87.4547 17.8682 87.4547 16.9519C87.4644 16.641 87.3503 16.3389 87.1376 16.112C86.8134 15.8167 86.4472 15.5713 86.0509 15.3836C85.534 15.1076 84.8468 14.7962 83.9833 14.4262C83.0248 14.0586 82.1137 13.5775 81.2697 12.993C80.7281 12.6019 80.2938 12.0808 80.0068 11.4776C79.7248 10.8155 79.5905 10.0999 79.6132 9.38062C79.586 8.73413 79.7237 8.09135 80.0135 7.51281C80.3033 6.93427 80.7356 6.43901 81.2697 6.07368C82.3681 5.29247 83.9364 4.89893 85.9687 4.89893C87.9179 4.90358 89.8425 5.33461 91.6075 6.16179L90.2859 9.31601C89.5509 8.99594 88.8 8.71363 88.0362 8.47018C87.3443 8.2528 86.6234 8.14189 85.8982 8.14125C84.606 8.14125 83.9598 8.4878 83.9598 9.18678C83.9688 9.3951 84.0306 9.5977 84.1396 9.77549C84.2485 9.95327 84.4009 10.1004 84.5825 10.203C85.4544 10.7114 86.3705 11.14 87.3196 11.4834C88.2897 11.8426 89.2128 12.3179 90.0686 12.899C90.6155 13.2947 91.0588 13.8166 91.3608 14.4203C91.661 15.0635 91.8116 15.7664 91.8013 16.4761Z" fill="white"/>
<path d="M102.463 21.5278C99.8859 21.5278 97.8693 20.8151 96.4126 19.3898C94.9559 17.9644 94.2295 15.9477 94.2334 13.3398C94.2334 10.6496 94.905 8.57222 96.2481 7.1077C97.5913 5.64317 99.4474 4.90895 101.816 4.90503C104.084 4.90503 105.846 5.55115 107.103 6.84338C108.36 8.13561 108.992 9.91731 109 12.1885V14.3148H98.6622C98.6383 15.3995 99.0339 16.4515 99.7665 17.2517C100.152 17.6153 100.608 17.8961 101.106 18.0769C101.604 18.2577 102.133 18.3347 102.662 18.3031C103.585 18.3062 104.506 18.2037 105.405 17.9977C106.335 17.7735 107.239 17.4526 108.101 17.0403V20.4235C107.322 20.8083 106.497 21.0944 105.646 21.2752C104.597 21.4699 103.53 21.5546 102.463 21.5278ZM101.875 8.01813C101.47 7.9968 101.064 8.06463 100.688 8.21685C100.311 8.36908 99.9728 8.602 99.696 8.8992C99.1255 9.60997 98.8073 10.4901 98.7915 11.4014H104.9C104.942 10.4907 104.641 9.59747 104.054 8.8992C103.771 8.60255 103.427 8.37034 103.046 8.21831C102.665 8.06629 102.256 7.99802 101.846 8.01813H101.875Z" fill="white"/>
</svg>
