<svg width="217" height="71" viewBox="0 0 217 71" fill="none" xmlns="http://www.w3.org/2000/svg">
<g clip-path="url(#clip0)">
<path d="M206.663 -0.875488H144.788V60.9897H206.663V-0.875488Z" fill="#FF8300"/>
<path d="M169.055 54.9993C168.218 55.5665 167.227 55.8643 166.215 55.8527C164.595 55.8527 163.657 54.7925 163.657 53.3548C163.657 51.4345 165.421 50.4005 169.072 50.0066V49.5241C169.072 48.9037 168.601 48.5394 167.729 48.5394C167.325 48.5265 166.924 48.609 166.559 48.7802C166.193 48.9513 165.873 49.2062 165.625 49.5241L164.088 48.6444C164.898 47.5349 166.126 46.9703 167.765 46.9703C170.007 46.9703 171.271 47.9321 171.271 49.5208C171.271 49.5208 171.271 55.7411 171.271 55.7576H169.263L169.055 54.9993ZM165.882 53.1939C165.87 53.3356 165.888 53.4782 165.934 53.6128C165.98 53.7474 166.053 53.871 166.149 53.9761C166.245 54.0811 166.362 54.1653 166.492 54.2233C166.623 54.2813 166.763 54.3119 166.906 54.3133C167.692 54.2798 168.439 53.9584 169.003 53.4106V51.3722C166.886 51.6348 165.882 52.1731 165.882 53.1939Z" fill="white"/>
<path d="M173.055 47.3839L174.938 47.1246L175.139 48.1454C176.196 47.3675 177.042 46.9572 178.102 46.9572C179.876 46.9572 180.791 47.8927 180.791 49.7571V55.7444H178.516V50.1641C178.516 49.1072 178.237 48.6312 177.42 48.6312C176.762 48.6312 176.071 48.9595 175.304 49.5864V55.7542H173.055V47.3839Z" fill="white"/>
<path d="M195.799 55.9118C193.258 55.9118 191.747 54.2902 191.747 51.4509C191.747 48.6115 193.281 46.9572 195.77 46.9572C198.258 46.9572 199.72 48.5393 199.72 51.336C199.72 51.4837 199.694 51.6347 199.694 51.7824H193.966C193.989 53.4236 194.66 54.2311 195.994 54.2311C196.85 54.2311 197.419 53.9029 197.949 53.1315L199.595 54.0473C198.871 55.2684 197.557 55.9118 195.799 55.9118ZM197.495 50.3316C197.495 49.1761 196.836 48.4966 195.77 48.4966C194.703 48.4966 194.097 49.1531 194.009 50.3316H197.495Z" fill="white"/>
<path d="M152.412 56.0036C150.163 56.0036 148.132 54.5823 148.132 51.4705C148.132 48.3587 150.154 46.9275 152.412 46.9275C154.67 46.9275 156.672 48.3488 156.672 51.4705C156.672 54.5921 154.65 56.0036 152.412 56.0036ZM152.412 48.8346C150.71 48.8346 150.394 50.361 150.394 51.4606C150.394 52.5603 150.723 54.0866 152.412 54.0866C154.101 54.0866 154.387 52.5668 154.387 51.4606C154.387 50.3544 154.097 48.8346 152.412 48.8346Z" fill="white"/>
<path d="M158.216 47.1606H160.369V48.165C160.664 47.8164 161.027 47.5315 161.436 47.3277C161.845 47.124 162.292 47.0056 162.749 46.98C162.843 46.9774 162.938 46.9829 163.032 46.9964V49.1136H162.926C161.939 49.1136 160.869 49.2646 160.517 50.0327V55.7541H158.212L158.216 47.1606Z" fill="white"/>
<path d="M186.325 53.8963C188.05 53.8963 188.195 52.1368 188.195 50.9945C188.195 49.652 187.537 48.5524 186.312 48.5524C185.502 48.5524 184.594 49.153 184.594 51.0864C184.607 52.1631 184.663 53.9192 186.325 53.8963ZM190.368 47.1081V55.2552C190.368 56.6995 190.259 59.0629 186.154 59.0892C184.462 59.0892 182.895 58.4163 182.579 56.9424L184.818 56.5813C184.913 57.0048 185.173 57.4315 186.44 57.4315C187.606 57.4315 188.172 56.8636 188.172 55.5178V54.5331L188.142 54.5002C187.78 55.1567 187.24 55.7509 185.917 55.7509C183.916 55.7509 182.335 54.3624 182.335 51.4508C182.335 48.5392 183.965 46.9669 185.795 46.9636C187.51 46.9636 188.149 47.7449 188.3 48.1519H188.271L188.455 47.1212L190.368 47.1081Z" fill="white"/>
<path d="M200.598 44.2687H199.713V46.7339H199.239V44.2687H198.35V43.8879H200.598V44.2687ZM204.318 46.7339H203.841V44.377L202.906 46.7503H202.61L201.658 44.377V46.7503H201.191V43.9043H201.909L202.765 46.0642L203.594 43.9043H204.325L204.318 46.7339Z" fill="white"/>
<path d="M10.666 40.2279H25.2985V44.0651H15.2418V48.8576H23.962V52.406H15.2418V60.9766H10.666V40.2279Z" fill="#1D1D1B"/>
<path d="M41.6462 60.9766H37.7124V58.8857H37.6235C37.1503 59.709 36.4406 60.3721 35.5858 60.7895C34.7868 61.1775 33.9102 61.3805 33.0215 61.3837C32.092 61.4144 31.1657 61.2616 30.2958 60.934C29.6364 60.6717 29.0584 60.2402 28.6202 59.6833C28.192 59.1064 27.8984 58.4414 27.761 57.7368C27.5864 56.9002 27.5025 56.0473 27.5108 55.1929V45.9526H31.6487V54.4379C31.6487 55.6787 31.843 56.6043 32.2314 57.2149C32.6198 57.8254 33.3111 58.1274 34.302 58.1274C35.4278 58.1274 36.2442 57.7992 36.7512 57.1263C37.2581 56.4534 37.5083 55.3603 37.5083 53.8438V45.9658H41.6462V60.9766Z" fill="#1D1D1B"/>
<path d="M44.793 45.9526H48.7432V48.0436H48.8321C49.3058 47.2202 50.0169 46.5579 50.8731 46.143C51.6717 45.7533 52.5484 45.549 53.4375 45.5456C54.3658 45.515 55.291 45.6679 56.1599 45.9953C56.8186 46.2586 57.3964 46.6899 57.8355 47.2459C58.2634 47.8234 58.5579 48.4881 58.6979 49.1924C58.8696 50.0294 58.9523 50.8821 58.9448 51.7364V60.9766H54.7905V52.4913C54.7905 51.2506 54.5962 50.3282 54.2078 49.7176C53.8193 49.1071 53.128 48.8018 52.1372 48.8018C51.0114 48.8018 50.195 49.1301 49.688 49.7866C49.1811 50.4431 48.9309 51.5558 48.9309 53.0855V60.9635H44.793V45.9526Z" fill="#1D1D1B"/>
<path d="M72.8302 59.0597H72.7709C72.3308 59.8309 71.6645 60.4494 70.8616 60.8322C70.0247 61.2104 69.114 61.3988 68.1952 61.3837C67.1609 61.4133 66.1353 61.1878 65.2094 60.7272C64.3821 60.2993 63.6637 59.6885 63.1092 58.9415C62.5406 58.1651 62.1158 57.2936 61.855 56.368C61.5728 55.3862 61.4309 54.3695 61.4336 53.3481C61.4314 52.3591 61.5733 51.375 61.855 50.4267C62.1168 49.5288 62.5419 48.6865 63.1092 47.9418C63.6686 47.2202 64.3799 46.6297 65.193 46.212C66.0958 45.7594 67.096 45.534 68.1063 45.5555C68.9885 45.553 69.8601 45.747 70.6575 46.1233C71.4431 46.4837 72.1066 47.0642 72.5669 47.7941H72.6261V40.2444H76.764V60.9931H72.8302V59.0597ZM72.7709 53.4203C72.771 52.8252 72.7125 52.2315 72.5965 51.6478C72.4946 51.106 72.2914 50.5882 71.9974 50.1214C71.7167 49.6868 71.3379 49.3237 70.8913 49.0612C70.3797 48.7775 69.8008 48.6368 69.2157 48.6541C68.6168 48.6351 68.0237 48.7756 67.4973 49.0612C67.0402 49.3227 66.6546 49.6925 66.3748 50.1378C66.0808 50.6108 65.8735 51.132 65.7625 51.6773C65.6345 52.2595 65.5705 52.8539 65.5716 53.4499C65.5694 54.042 65.6356 54.6323 65.7691 55.2093C65.8944 55.7627 66.1173 56.2895 66.4275 56.7652C66.7206 57.2123 67.1096 57.589 67.5664 57.8681C68.0639 58.1617 68.6346 58.3085 69.2124 58.2916C69.8073 58.3121 70.3966 58.1714 70.9176 57.8845C71.3675 57.6181 71.7433 57.2434 72.0105 56.7947C72.2904 56.3121 72.4873 55.7862 72.5932 55.2388C72.7124 54.64 72.7719 54.0309 72.7709 53.4203Z" fill="#1D1D1B"/>
<path d="M79.7069 50.5745C79.7343 49.7249 79.9852 48.8974 80.4344 48.175C80.855 47.5372 81.4185 47.0057 82.0804 46.6223C82.7679 46.2256 83.5165 45.945 84.2958 45.7919C85.1206 45.6269 85.9598 45.5445 86.801 45.5457C87.5719 45.546 88.3419 45.5997 89.1053 45.7065C89.8427 45.8011 90.5605 46.0116 91.2319 46.3302C91.8588 46.629 92.4 47.0805 92.8054 47.6432C93.2385 48.2855 93.4531 49.0496 93.4177 49.8228V57.6384C93.4166 58.289 93.4551 58.939 93.5329 59.5849C93.5705 60.0731 93.7095 60.5482 93.9411 60.98H89.7308C89.6547 60.7463 89.5921 60.5085 89.5431 60.2677C89.4937 60.0228 89.4596 59.775 89.4411 59.5259C88.7977 60.1935 87.9962 60.689 87.1104 60.9669C86.2232 61.2454 85.2984 61.3871 84.3683 61.387C83.6891 61.3926 83.0126 61.2997 82.3602 61.1113C81.7629 60.9447 81.2039 60.6637 80.7143 60.2841C80.2446 59.9117 79.87 59.4336 79.6213 58.8891C79.3437 58.2575 79.2089 57.5728 79.2263 56.8834C79.1984 56.1541 79.3546 55.4295 79.6806 54.7761C79.96 54.2531 80.3593 53.8032 80.8459 53.4631C81.3481 53.1239 81.9048 52.873 82.4919 52.7212C83.102 52.5571 83.7207 52.4267 84.3452 52.3306C84.9641 52.2321 85.5764 52.1566 86.1788 52.0975C86.719 52.05 87.2549 51.9623 87.782 51.8349C88.185 51.7495 88.564 51.5757 88.8913 51.3262C89.0312 51.206 89.139 51.0532 89.205 50.8813C89.2711 50.7095 89.2934 50.524 89.2699 50.3414C89.2846 49.9795 89.2088 49.6197 89.0493 49.2943C88.9166 49.0368 88.7149 48.8209 88.4667 48.6706C88.2075 48.5194 87.9213 48.4202 87.624 48.3785C87.2805 48.3299 86.9339 48.3058 86.587 48.3063C85.9064 48.2678 85.2317 48.451 84.6645 48.8282C84.1971 49.1794 83.9272 49.7604 83.8481 50.5745H79.7069ZM89.2534 53.6239C89.0613 53.789 88.8372 53.913 88.5951 53.9883C88.318 54.0786 88.0354 54.151 87.749 54.2049C87.4462 54.264 87.1269 54.3132 86.7878 54.3526C86.4487 54.392 86.1294 54.438 85.8002 54.4971C85.4843 54.5514 85.1729 54.6294 84.8686 54.7301C84.5914 54.8181 84.3302 54.95 84.095 55.1207C83.8681 55.2898 83.6833 55.5089 83.5552 55.7608C83.4126 56.0552 83.3426 56.3794 83.3511 56.7062C83.3375 57.0324 83.4078 57.3567 83.5552 57.6483C83.689 57.8861 83.8802 58.0869 84.1115 58.2325C84.3616 58.3847 84.6388 58.4872 84.9279 58.5345C85.2448 58.5944 85.5666 58.624 85.8891 58.6232C86.5453 58.6603 87.1994 58.5197 87.782 58.2161C88.1912 57.9787 88.5315 57.6394 88.7695 57.2314C88.9747 56.8776 89.1088 56.4874 89.1646 56.0825C89.2058 55.7744 89.2299 55.4643 89.237 55.1536L89.2534 53.6239Z" fill="#1D1D1B"/>
<path d="M101.855 45.9527H104.887V48.7133H101.855V56.1547C101.855 56.8506 101.974 57.3167 102.207 57.5498C102.441 57.7828 102.905 57.8977 103.606 57.8977C103.837 57.8977 104.061 57.8977 104.265 57.8682C104.47 57.8497 104.675 57.8201 104.877 57.7795V61.0062C104.491 61.0679 104.102 61.1063 103.712 61.1211C103.284 61.1408 102.866 61.1507 102.458 61.1507C101.848 61.1534 101.24 61.1096 100.637 61.0194C100.103 60.9477 99.5877 60.7703 99.1228 60.4975C98.6842 60.235 98.3256 59.8582 98.0859 59.4077C97.8097 58.8377 97.6796 58.2084 97.7073 57.576V48.7133H95.2021V45.9527H97.7073V41.4491H101.845L101.855 45.9527ZM99.1162 62.4309H103.343V64.5513C103.368 65.0585 103.263 65.5636 103.037 66.0186C102.845 66.3645 102.557 66.6474 102.207 66.8327C101.815 67.0285 101.39 67.1519 100.953 67.197C100.441 67.2548 99.9251 67.2833 99.4092 67.2824V66.209C99.7945 66.1908 100.171 66.0912 100.515 65.9169C100.657 65.8314 100.779 65.7176 100.874 65.5825C100.97 65.4475 101.036 65.2942 101.068 65.1324H99.1162V62.4309Z" fill="#1D1D1B"/>
<path d="M111.125 43.6286H106.984V40.2279H111.125V43.6286ZM106.984 45.9526H111.125V60.9766H106.984V45.9526Z" fill="#1D1D1B"/>
<path d="M114.213 50.5743C114.24 49.7247 114.491 48.8972 114.94 48.1748C115.361 47.5371 115.924 47.0055 116.586 46.6222C117.274 46.2255 118.022 45.9449 118.802 45.7917C119.626 45.6267 120.466 45.5442 121.307 45.5455C122.078 45.546 122.848 45.5997 123.611 45.7064C124.349 45.801 125.066 46.0115 125.738 46.3301C126.365 46.6288 126.906 47.0804 127.311 47.6431C127.744 48.2854 127.959 49.0495 127.924 49.8226V57.6383C127.922 58.2889 127.961 58.9389 128.039 59.5848C128.076 60.073 128.215 60.5481 128.447 60.9799H124.237C124.161 60.7462 124.098 60.5084 124.049 60.2676C124 60.0226 123.966 59.7749 123.947 59.5257C123.304 60.1933 122.502 60.6889 121.616 60.9668C120.729 61.2453 119.804 61.3869 118.874 61.3869C118.194 61.3922 117.516 61.2993 116.863 61.1112C116.271 60.9422 115.718 60.6614 115.233 60.284C114.763 59.9125 114.388 59.4341 114.14 58.8889C113.863 58.2574 113.728 57.5727 113.745 56.8833C113.717 56.154 113.874 55.4294 114.2 54.7759C114.479 54.2529 114.878 53.8031 115.365 53.4629C115.862 53.1247 116.413 52.8738 116.994 52.7211C117.605 52.557 118.223 52.4266 118.848 52.3305C119.467 52.232 120.079 52.1565 120.681 52.0974C121.222 52.0499 121.757 51.9621 122.285 51.8348C122.688 51.7494 123.067 51.5756 123.394 51.326C123.534 51.2059 123.642 51.0531 123.708 50.8812C123.774 50.7094 123.796 50.5238 123.772 50.3413C123.787 49.9794 123.711 49.6196 123.552 49.2942C123.419 49.0367 123.217 48.8208 122.969 48.6705C122.71 48.5198 122.424 48.4205 122.127 48.3784C121.783 48.3298 121.437 48.3057 121.09 48.3061C120.409 48.2677 119.734 48.4508 119.167 48.8281C118.7 49.1793 118.43 49.7603 118.351 50.5743H114.213ZM123.759 53.6238C123.567 53.7889 123.343 53.9129 123.101 53.9881C122.824 54.0785 122.541 54.1509 122.255 54.2048C121.952 54.2639 121.633 54.3131 121.294 54.3525C120.955 54.3919 120.635 54.4378 120.306 54.4969C119.99 54.5513 119.679 54.6292 119.375 54.73C119.097 54.818 118.836 54.9499 118.601 55.1206C118.374 55.2897 118.189 55.5087 118.061 55.7607C117.918 56.0551 117.848 56.3792 117.857 56.7061C117.843 57.0323 117.914 57.3566 118.061 57.6481C118.195 57.886 118.386 58.0868 118.617 58.2324C118.867 58.384 119.143 58.4865 119.43 58.5344C119.748 58.5941 120.071 58.6238 120.395 58.623C121.051 58.6602 121.705 58.5196 122.288 58.216C122.697 57.9786 123.037 57.6393 123.275 57.2313C123.481 56.8775 123.615 56.4873 123.67 56.0824C123.712 55.7743 123.736 55.4642 123.743 55.1534L123.759 53.6238Z" fill="#1D1D1B"/>
</g>
<defs>
<clipPath id="clip0">
<rect width="217" height="71" fill="white"/>
</clipPath>
</defs>
</svg>
