<svg width="197" height="68" viewBox="0 0 197 68" fill="none" xmlns="http://www.w3.org/2000/svg">
<path d="M196.663 -0.875488H134.788V60.9897H196.663V-0.875488Z" fill="#FF8300"/>
<path d="M159.055 54.9993C158.218 55.5665 157.227 55.8643 156.215 55.8527C154.595 55.8527 153.657 54.7925 153.657 53.3548C153.657 51.4345 155.421 50.4005 159.072 50.0066V49.5241C159.072 48.9037 158.601 48.5394 157.729 48.5394C157.325 48.5265 156.924 48.609 156.559 48.7802C156.193 48.9513 155.873 49.2062 155.625 49.5241L154.088 48.6444C154.898 47.5349 156.126 46.9703 157.765 46.9703C160.007 46.9703 161.271 47.9321 161.271 49.5208C161.271 49.5208 161.271 55.7411 161.271 55.7576H159.263L159.055 54.9993ZM155.882 53.1939C155.87 53.3356 155.888 53.4782 155.934 53.6128C155.98 53.7474 156.053 53.871 156.149 53.9761C156.245 54.0811 156.362 54.1653 156.492 54.2233C156.623 54.2813 156.763 54.3119 156.906 54.3133C157.692 54.2798 158.439 53.9584 159.003 53.4106V51.3722C156.886 51.6348 155.882 52.1731 155.882 53.1939Z" fill="white"/>
<path d="M163.055 47.3839L164.938 47.1246L165.139 48.1454C166.196 47.3675 167.042 46.9572 168.102 46.9572C169.876 46.9572 170.791 47.8927 170.791 49.7571V55.7444H168.516V50.1641C168.516 49.1072 168.237 48.6312 167.42 48.6312C166.762 48.6312 166.071 48.9595 165.304 49.5864V55.7542H163.055V47.3839Z" fill="white"/>
<path d="M185.799 55.9118C183.258 55.9118 181.747 54.2902 181.747 51.4509C181.747 48.6115 183.281 46.9572 185.77 46.9572C188.258 46.9572 189.72 48.5393 189.72 51.336C189.72 51.4837 189.694 51.6347 189.694 51.7824H183.966C183.989 53.4236 184.66 54.2311 185.994 54.2311C186.85 54.2311 187.419 53.9029 187.949 53.1315L189.595 54.0473C188.871 55.2684 187.557 55.9118 185.799 55.9118ZM187.495 50.3316C187.495 49.1761 186.836 48.4966 185.77 48.4966C184.703 48.4966 184.097 49.1531 184.009 50.3316H187.495Z" fill="white"/>
<path d="M142.412 56.0036C140.163 56.0036 138.132 54.5823 138.132 51.4705C138.132 48.3587 140.154 46.9275 142.412 46.9275C144.67 46.9275 146.672 48.3488 146.672 51.4705C146.672 54.5921 144.65 56.0036 142.412 56.0036ZM142.412 48.8346C140.71 48.8346 140.394 50.361 140.394 51.4606C140.394 52.5603 140.723 54.0866 142.412 54.0866C144.101 54.0866 144.387 52.5668 144.387 51.4606C144.387 50.3544 144.097 48.8346 142.412 48.8346Z" fill="white"/>
<path d="M148.216 47.1606H150.369V48.165C150.664 47.8164 151.027 47.5315 151.436 47.3277C151.845 47.124 152.292 47.0056 152.749 46.98C152.843 46.9774 152.938 46.9829 153.032 46.9964V49.1136H152.926C151.939 49.1136 150.869 49.2646 150.517 50.0327V55.7541H148.212L148.216 47.1606Z" fill="white"/>
<path d="M176.325 53.8963C178.05 53.8963 178.195 52.1368 178.195 50.9945C178.195 49.652 177.537 48.5524 176.312 48.5524C175.502 48.5524 174.594 49.153 174.594 51.0864C174.607 52.1631 174.663 53.9192 176.325 53.8963ZM180.368 47.1081V55.2552C180.368 56.6995 180.259 59.0629 176.154 59.0892C174.462 59.0892 172.895 58.4163 172.579 56.9424L174.818 56.5813C174.913 57.0048 175.173 57.4315 176.44 57.4315C177.606 57.4315 178.172 56.8636 178.172 55.5178V54.5331L178.142 54.5002C177.78 55.1567 177.24 55.7509 175.917 55.7509C173.916 55.7509 172.335 54.3624 172.335 51.4508C172.335 48.5392 173.965 46.9669 175.795 46.9636C177.51 46.9636 178.149 47.7449 178.3 48.1519H178.271L178.455 47.1212L180.368 47.1081Z" fill="white"/>
<path d="M190.598 44.2687H189.713V46.7339H189.239V44.2687H188.35V43.8879H190.598V44.2687ZM194.318 46.7339H193.841V44.377L192.906 46.7503H192.61L191.658 44.377V46.7503H191.191V43.9043H191.909L192.765 46.0642L193.594 43.9043H194.325L194.318 46.7339Z" fill="white"/>
<path d="M0.666016 40.2279H15.2985V44.0651H5.24176V48.8576H13.962V52.406H5.24176V60.9766H0.666016V40.2279Z" fill="#1D1D1B"/>
<path d="M31.6462 60.9766H27.7124V58.8857H27.6235C27.1503 59.709 26.4406 60.3721 25.5858 60.7895C24.7868 61.1775 23.9102 61.3805 23.0215 61.3837C22.092 61.4144 21.1657 61.2616 20.2958 60.934C19.6364 60.6717 19.0584 60.2402 18.6202 59.6833C18.192 59.1064 17.8984 58.4414 17.761 57.7368C17.5864 56.9002 17.5025 56.0473 17.5108 55.1929V45.9526H21.6487V54.4379C21.6487 55.6787 21.843 56.6043 22.2314 57.2149C22.6198 57.8254 23.3111 58.1274 24.302 58.1274C25.4278 58.1274 26.2442 57.7992 26.7512 57.1263C27.2581 56.4534 27.5083 55.3603 27.5083 53.8438V45.9658H31.6462V60.9766Z" fill="#1D1D1B"/>
<path d="M34.793 45.9526H38.7432V48.0436H38.8321C39.3058 47.2202 40.0169 46.5579 40.8731 46.143C41.6717 45.7533 42.5484 45.549 43.4375 45.5456C44.3658 45.515 45.291 45.6679 46.1599 45.9953C46.8186 46.2586 47.3964 46.6899 47.8355 47.2459C48.2634 47.8234 48.5579 48.4881 48.6979 49.1924C48.8696 50.0294 48.9523 50.8821 48.9448 51.7364V60.9766H44.7905V52.4913C44.7905 51.2506 44.5962 50.3282 44.2078 49.7176C43.8193 49.1071 43.128 48.8018 42.1372 48.8018C41.0114 48.8018 40.195 49.1301 39.688 49.7866C39.1811 50.4431 38.9309 51.5558 38.9309 53.0855V60.9635H34.793V45.9526Z" fill="#1D1D1B"/>
<path d="M62.8302 59.0597H62.7709C62.3308 59.8309 61.6645 60.4494 60.8616 60.8322C60.0247 61.2104 59.114 61.3988 58.1952 61.3837C57.1609 61.4133 56.1353 61.1878 55.2094 60.7272C54.3821 60.2993 53.6637 59.6885 53.1092 58.9415C52.5406 58.1651 52.1158 57.2936 51.855 56.368C51.5728 55.3862 51.4309 54.3695 51.4336 53.3481C51.4314 52.3591 51.5733 51.375 51.855 50.4267C52.1168 49.5288 52.5419 48.6865 53.1092 47.9418C53.6686 47.2202 54.3799 46.6297 55.193 46.212C56.0958 45.7594 57.096 45.534 58.1063 45.5555C58.9885 45.553 59.8601 45.747 60.6575 46.1233C61.4431 46.4837 62.1066 47.0642 62.5669 47.7941H62.6261V40.2444H66.764V60.9931H62.8302V59.0597ZM62.7709 53.4203C62.771 52.8252 62.7125 52.2315 62.5965 51.6478C62.4946 51.106 62.2914 50.5882 61.9974 50.1214C61.7167 49.6868 61.3379 49.3237 60.8913 49.0612C60.3797 48.7775 59.8008 48.6368 59.2157 48.6541C58.6168 48.6351 58.0237 48.7756 57.4973 49.0612C57.0402 49.3227 56.6546 49.6925 56.3748 50.1378C56.0808 50.6108 55.8735 51.132 55.7625 51.6773C55.6345 52.2595 55.5705 52.8539 55.5716 53.4499C55.5694 54.042 55.6356 54.6323 55.7691 55.2093C55.8944 55.7627 56.1173 56.2895 56.4275 56.7652C56.7206 57.2123 57.1096 57.589 57.5664 57.8681C58.0639 58.1617 58.6346 58.3085 59.2124 58.2916C59.8073 58.3121 60.3966 58.1714 60.9176 57.8845C61.3675 57.6181 61.7433 57.2434 62.0105 56.7947C62.2904 56.3121 62.4873 55.7862 62.5932 55.2388C62.7124 54.64 62.7719 54.0309 62.7709 53.4203Z" fill="#1D1D1B"/>
<path d="M69.7069 50.5745C69.7343 49.7249 69.9852 48.8974 70.4344 48.175C70.855 47.5372 71.4185 47.0057 72.0804 46.6223C72.7679 46.2256 73.5165 45.945 74.2958 45.7919C75.1206 45.6269 75.9598 45.5445 76.801 45.5457C77.5719 45.546 78.3419 45.5997 79.1053 45.7065C79.8427 45.8011 80.5605 46.0116 81.2319 46.3302C81.8588 46.629 82.4 47.0805 82.8054 47.6432C83.2385 48.2855 83.4531 49.0496 83.4177 49.8228V57.6384C83.4166 58.289 83.4551 58.939 83.5329 59.5849C83.5705 60.0731 83.7095 60.5482 83.9411 60.98H79.7308C79.6547 60.7463 79.5921 60.5085 79.5431 60.2677C79.4937 60.0228 79.4596 59.775 79.4411 59.5259C78.7977 60.1935 77.9962 60.689 77.1104 60.9669C76.2232 61.2454 75.2984 61.3871 74.3683 61.387C73.6891 61.3926 73.0126 61.2997 72.3602 61.1113C71.7629 60.9447 71.2039 60.6637 70.7143 60.2841C70.2446 59.9117 69.87 59.4336 69.6213 58.8891C69.3437 58.2575 69.2089 57.5728 69.2263 56.8834C69.1984 56.1541 69.3546 55.4295 69.6806 54.7761C69.96 54.2531 70.3593 53.8032 70.8459 53.4631C71.3481 53.1239 71.9048 52.873 72.4919 52.7212C73.102 52.5571 73.7207 52.4267 74.3452 52.3306C74.9641 52.2321 75.5764 52.1566 76.1788 52.0975C76.719 52.05 77.2549 51.9623 77.782 51.8349C78.185 51.7495 78.564 51.5757 78.8913 51.3262C79.0312 51.206 79.139 51.0532 79.205 50.8813C79.2711 50.7095 79.2934 50.524 79.2699 50.3414C79.2846 49.9795 79.2088 49.6197 79.0493 49.2943C78.9166 49.0368 78.7149 48.8209 78.4667 48.6706C78.2075 48.5194 77.9213 48.4202 77.624 48.3785C77.2805 48.3299 76.9339 48.3058 76.587 48.3063C75.9064 48.2678 75.2317 48.451 74.6645 48.8282C74.1971 49.1794 73.9272 49.7604 73.8481 50.5745H69.7069ZM79.2534 53.6239C79.0613 53.789 78.8372 53.913 78.5951 53.9883C78.318 54.0786 78.0354 54.151 77.749 54.2049C77.4462 54.264 77.1269 54.3132 76.7878 54.3526C76.4487 54.392 76.1294 54.438 75.8002 54.4971C75.4843 54.5514 75.1729 54.6294 74.8686 54.7301C74.5914 54.8181 74.3302 54.95 74.095 55.1207C73.8681 55.2898 73.6833 55.5089 73.5552 55.7608C73.4126 56.0552 73.3426 56.3794 73.3511 56.7062C73.3375 57.0324 73.4078 57.3567 73.5552 57.6483C73.689 57.8861 73.8802 58.0869 74.1115 58.2325C74.3616 58.3847 74.6388 58.4872 74.9279 58.5345C75.2448 58.5944 75.5666 58.624 75.8891 58.6232C76.5453 58.6603 77.1994 58.5197 77.782 58.2161C78.1912 57.9787 78.5315 57.6394 78.7695 57.2314C78.9747 56.8776 79.1088 56.4874 79.1646 56.0825C79.2058 55.7744 79.2299 55.4643 79.237 55.1536L79.2534 53.6239Z" fill="#1D1D1B"/>
<path d="M91.8551 45.9527H94.8869V48.7133H91.8551V56.1547C91.8551 56.8506 91.9736 57.3167 92.2073 57.5498C92.4411 57.7828 92.9052 57.8977 93.6064 57.8977C93.8368 57.8977 94.0607 57.8977 94.2648 57.8682C94.4703 57.8497 94.6747 57.8201 94.8771 57.7795V61.0062C94.4913 61.0679 94.1021 61.1063 93.7117 61.1211C93.2838 61.1408 92.8657 61.1507 92.4575 61.1507C91.8482 61.1534 91.2396 61.1096 90.6371 61.0194C90.1025 60.9477 89.5877 60.7703 89.1228 60.4975C88.6842 60.235 88.3256 59.8582 88.0859 59.4077C87.8097 58.8377 87.6796 58.2084 87.7073 57.576V48.7133H85.2021V45.9527H87.7073V41.4491H91.8452L91.8551 45.9527ZM89.1162 62.4309H93.343V64.5513C93.3681 65.0585 93.2627 65.5636 93.0369 66.0186C92.8455 66.3645 92.5572 66.6474 92.2073 66.8327C91.8147 67.0285 91.3898 67.1519 90.9531 67.197C90.4405 67.2548 89.9251 67.2833 89.4092 67.2824V66.209C89.7945 66.1908 90.1715 66.0912 90.5153 65.9169C90.6569 65.8314 90.7793 65.7176 90.8745 65.5825C90.9697 65.4475 91.0357 65.2942 91.0683 65.1324H89.1162V62.4309Z" fill="#1D1D1B"/>
<path d="M101.125 43.6286H96.9839V40.2279H101.125V43.6286ZM96.9839 45.9526H101.125V60.9766H96.9839V45.9526Z" fill="#1D1D1B"/>
<path d="M104.213 50.5743C104.24 49.7247 104.491 48.8972 104.94 48.1748C105.361 47.5371 105.924 47.0055 106.586 46.6222C107.274 46.2255 108.022 45.9449 108.802 45.7917C109.626 45.6267 110.466 45.5442 111.307 45.5455C112.078 45.546 112.848 45.5997 113.611 45.7064C114.349 45.801 115.066 46.0115 115.738 46.3301C116.365 46.6288 116.906 47.0804 117.311 47.6431C117.744 48.2854 117.959 49.0495 117.924 49.8226V57.6383C117.922 58.2889 117.961 58.9389 118.039 59.5848C118.076 60.073 118.215 60.5481 118.447 60.9799H114.237C114.161 60.7462 114.098 60.5084 114.049 60.2676C114 60.0226 113.966 59.7749 113.947 59.5257C113.304 60.1933 112.502 60.6889 111.616 60.9668C110.729 61.2453 109.804 61.3869 108.874 61.3869C108.194 61.3922 107.516 61.2993 106.863 61.1112C106.271 60.9422 105.718 60.6614 105.233 60.284C104.763 59.9125 104.388 59.4341 104.14 58.8889C103.863 58.2574 103.728 57.5727 103.745 56.8833C103.717 56.154 103.874 55.4294 104.2 54.7759C104.479 54.2529 104.878 53.8031 105.365 53.4629C105.862 53.1247 106.413 52.8738 106.994 52.7211C107.605 52.557 108.223 52.4266 108.848 52.3305C109.467 52.232 110.079 52.1565 110.681 52.0974C111.222 52.0499 111.757 51.9621 112.285 51.8348C112.688 51.7494 113.067 51.5756 113.394 51.326C113.534 51.2059 113.642 51.0531 113.708 50.8812C113.774 50.7094 113.796 50.5238 113.772 50.3413C113.787 49.9794 113.711 49.6196 113.552 49.2942C113.419 49.0367 113.217 48.8208 112.969 48.6705C112.71 48.5198 112.424 48.4205 112.127 48.3784C111.783 48.3298 111.437 48.3057 111.09 48.3061C110.409 48.2677 109.734 48.4508 109.167 48.8281C108.7 49.1793 108.43 49.7603 108.351 50.5743H104.213ZM113.759 53.6238C113.567 53.7889 113.343 53.9129 113.101 53.9881C112.824 54.0785 112.541 54.1509 112.255 54.2048C111.952 54.2639 111.633 54.3131 111.294 54.3525C110.955 54.3919 110.635 54.4378 110.306 54.4969C109.99 54.5513 109.679 54.6292 109.375 54.73C109.097 54.818 108.836 54.9499 108.601 55.1206C108.374 55.2897 108.189 55.5087 108.061 55.7607C107.918 56.0551 107.848 56.3792 107.857 56.7061C107.843 57.0323 107.914 57.3566 108.061 57.6481C108.195 57.886 108.386 58.0868 108.617 58.2324C108.867 58.384 109.143 58.4865 109.43 58.5344C109.748 58.5941 110.071 58.6238 110.395 58.623C111.051 58.6602 111.705 58.5196 112.288 58.216C112.697 57.9786 113.037 57.6393 113.275 57.2313C113.481 56.8775 113.615 56.4873 113.67 56.0824C113.712 55.7743 113.736 55.4642 113.743 55.1534L113.759 53.6238Z" fill="#1D1D1B"/>
</svg>
