<svg width="13" height="19" viewBox="0 0 13 19" fill="none" xmlns="http://www.w3.org/2000/svg">
<path fill-rule="evenodd" clip-rule="evenodd" d="M3.625 7.18274C4.47169 6.68646 5.45206 6.39769 6.5 6.39769C9.67041 6.39769 12.25 9.00171 12.25 12.2021C12.25 15.4025 9.67041 18.0066 6.5 18.0066C3.32959 18.0066 0.75 15.4025 0.75 12.2021C0.75 10.7358 1.29553 9.39858 2.1875 8.37555V4.94658C2.1875 2.54573 4.12166 0.593262 6.5 0.593262C8.87834 0.593262 10.8125 2.54573 10.8125 4.94658H9.375C9.375 3.34601 8.08556 2.04437 6.5 2.04437C4.91444 2.04437 3.625 3.34601 3.625 4.94658V7.18274ZM7.21875 15.1043V13.5197C8.05322 13.2193 8.65625 12.4212 8.65625 11.4766C8.65625 10.2765 7.68881 9.29991 6.5 9.29991C5.31119 9.29991 4.34375 10.2765 4.34375 11.4766C4.34375 12.4212 4.94678 13.2193 5.78125 13.5197V15.1043H7.21875Z" fill="#ADB5BD"/>
</svg>
