<svg width="12" height="15" viewBox="0 0 12 15" fill="none" xmlns="http://www.w3.org/2000/svg">
<path d="M11.9125 11.7768C11.9125 9.42857 11.3321 6.71429 8.99282 6.71429C8.2696 7.41964 7.28746 7.85714 6.19817 7.85714C5.10889 7.85714 4.12674 7.41964 3.40353 6.71429C1.06424 6.71429 0.483887 9.42857 0.483887 11.7768C0.483887 13.0804 1.34103 14.1429 2.38567 14.1429H10.0107C11.0553 14.1429 11.9125 13.0804 11.9125 11.7768ZM9.62674 3.85714C9.62674 1.96428 8.09103 0.428571 6.19817 0.428571C4.30532 0.428571 2.7696 1.96428 2.7696 3.85714C2.7696 5.75 4.30532 7.28571 6.19817 7.28571C8.09103 7.28571 9.62674 5.75 9.62674 3.85714Z" fill="#ADB5BD"/>
</svg>
