<svg width="1279" height="133" viewBox="0 0 1279 133" fill="none" xmlns="http://www.w3.org/2000/svg">
<path fill-rule="evenodd" clip-rule="evenodd" d="M920.133 -1003.21C1119.68 -1070.09 1226.68 -885.605 1410.11 -849.668C1570.75 -818.195 1799.61 -871.696 1919.93 -807.327C2043.04 -741.473 2047.64 -622.102 2039.24 -513.113C2031.03 -406.682 1980.19 -296.113 1872.81 -195.929C1767.7 -97.8623 1616.11 -14.775 1444.63 41.6528C1281.44 95.3551 1108.39 102.059 937.224 111.951C762.271 122.062 555.864 158.451 437.202 99.8765C318.706 41.384 414.871 -94.6367 348.435 -178.69C268.822 -279.413 -76.0275 -312.543 16.1142 -432.871C115.998 -563.31 500.852 -493.975 673.061 -602.62C850.196 -714.373 698.319 -928.861 920.133 -1003.21Z" fill="#A8DBFF"/>
<path fill-rule="evenodd" clip-rule="evenodd" d="M920.486 -1011.86C1120.03 -1078.74 1227.03 -894.25 1410.46 -858.313C1571.1 -826.84 1799.96 -880.342 1920.29 -815.972C2043.39 -750.119 2047.99 -630.748 2039.59 -521.759C2031.39 -415.328 1980.54 -304.758 1873.16 -204.575C1768.05 -106.508 1616.46 -23.4206 1444.99 33.0072C1281.8 86.7095 1108.74 93.413 937.576 103.306C762.624 113.417 556.216 149.805 437.555 91.2309C319.059 32.7383 415.224 -103.282 348.787 -187.336C269.175 -288.059 -75.675 -321.189 16.4667 -441.517C116.351 -571.956 501.205 -502.62 673.414 -611.266C850.548 -723.018 698.671 -937.506 920.486 -1011.86Z" fill="#3A81B2"/>
<path fill-rule="evenodd" clip-rule="evenodd" d="M922.174 -1019.48C1121.72 -1086.37 1228.72 -901.879 1412.15 -865.942C1572.79 -834.469 1801.65 -887.971 1921.97 -823.601C2045.08 -757.748 2049.68 -638.377 2041.28 -529.388C2033.08 -422.957 1982.23 -312.387 1874.85 -212.204C1769.74 -114.137 1618.15 -31.0495 1446.67 25.3783C1283.48 79.0806 1110.43 85.7841 939.265 95.6767C764.312 105.788 557.905 142.176 439.243 83.602C320.747 25.1094 416.912 -110.911 350.476 -194.965C270.863 -295.688 -73.9865 -328.818 18.1552 -449.146C118.039 -579.585 502.893 -510.249 675.103 -618.895C852.237 -730.647 700.36 -945.135 922.174 -1019.48Z" fill="#0E4870"/>
</svg>
