<svg width="152" height="152" viewBox="0 0 152 152" fill="none" xmlns="http://www.w3.org/2000/svg">
<path d="M75.9999 0.444458C61.0565 0.444458 46.4486 4.87571 34.0235 13.1779C21.5985 21.48 11.9143 33.2802 6.19569 47.0862C0.477073 60.8921 -1.01918 76.0838 1.89615 90.7402C4.81148 105.397 12.0074 118.859 22.5741 129.426C33.1407 139.992 46.6034 147.188 61.2598 150.104C75.9161 153.019 91.1078 151.523 104.914 145.804C118.72 140.086 130.52 130.401 138.822 117.976C147.124 105.551 151.555 90.9435 151.555 76C151.555 55.9614 143.595 36.7436 129.426 22.5742C115.256 8.40475 96.0385 0.444458 75.9999 0.444458ZM75.9999 142.111C62.9244 142.111 50.1425 138.234 39.2706 130.969C28.3986 123.705 19.925 113.38 14.9212 101.3C9.91743 89.2194 8.60821 75.9267 11.1591 63.1024C13.71 50.2781 20.0065 38.4982 29.2523 29.2524C38.4981 20.0066 50.278 13.7101 63.1023 11.1592C75.9266 8.6083 89.2193 9.91752 101.3 14.9213C113.38 19.9251 123.705 28.3987 130.969 39.2706C138.234 50.1426 142.111 62.9245 142.111 76C142.111 93.5338 135.146 110.349 122.748 122.748C110.349 135.146 93.5337 142.111 75.9999 142.111Z" fill="#2DCE89"/>
<path d="M123.226 48.1384C122.341 47.2589 121.144 46.7652 119.897 46.7652C118.649 46.7652 117.452 47.2589 116.568 48.1384L64.1509 100.319L35.8176 71.9856C34.9534 71.0526 33.754 70.501 32.4832 70.4523C31.2124 70.4036 29.9743 70.8617 29.0412 71.7259C28.1082 72.5901 27.5566 73.7895 27.5079 75.0603C27.4592 76.3311 27.9173 77.5692 28.7815 78.5023L64.1509 113.777L123.226 54.8439C123.669 54.405 124.02 53.8827 124.26 53.3072C124.499 52.7318 124.623 52.1146 124.623 51.4912C124.623 50.8678 124.499 50.2506 124.26 49.6751C124.02 49.0997 123.669 48.5774 123.226 48.1384Z" fill="#2DCE89"/>
</svg>
